<?xml version="1.0" encoding="utf-8" standalone="no"?>
<!DOCTYPE svg PUBLIC "-//W3C//DTD SVG 1.1//EN"
  "http://www.w3.org/Graphics/SVG/1.1/DTD/svg11.dtd">
<svg xmlns:xlink="http://www.w3.org/1999/xlink" width="1080pt" height="360pt" viewBox="0 0 1080 360" xmlns="http://www.w3.org/2000/svg" version="1.1">
 <metadata>
  <rdf:RDF xmlns:dc="http://purl.org/dc/elements/1.1/" xmlns:cc="http://creativecommons.org/ns#" xmlns:rdf="http://www.w3.org/1999/02/22-rdf-syntax-ns#">
   <cc:Work>
    <dc:type rdf:resource="http://purl.org/dc/dcmitype/StillImage"/>
    <dc:date>2026-03-26T19:02:24.879171</dc:date>
    <dc:format>image/svg+xml</dc:format>
    <dc:creator>
     <cc:Agent>
      <dc:title>Matplotlib v3.10.0, https://matplotlib.org/</dc:title>
     </cc:Agent>
    </dc:creator>
   </cc:Work>
  </rdf:RDF>
 </metadata>
 <defs>
  <style type="text/css">*{stroke-linejoin: round; stroke-linecap: butt}</style>
 </defs>
 <g id="figure_1">
  <g id="patch_1">
   <path d="M 0 360 
L 1080 360 
L 1080 0 
L 0 0 
z
" style="fill: #ffffff"/>
  </g>
  <g id="axes_1">
   <g id="patch_2">
    <path d="M 36.925 332.12 
L 1048.32 332.12 
L 1048.32 14.76 
L 36.925 14.76 
z
" style="fill: #ffffff"/>
   </g>
   <g id="matplotlib.axis_1">
    <g id="xtick_1">
     <g id="line2d_1">
      <defs>
       <path id="m3bdbaf4bab" d="M 0 0 
L 0 3.5 
" style="stroke: #000000; stroke-width: 0.8"/>
      </defs>
      <g>
       <use xlink:href="#m3bdbaf4bab" x="36.925" y="332.12" style="stroke: #000000; stroke-width: 0.8"/>
      </g>
     </g>
     <g id="text_1">
      <!-- 2022-01 -->
      <g transform="translate(16.033594 346.718437) scale(0.1 -0.1)">
       <defs>
        <path id="DejaVuSans-32" d="M 1228 531 
L 3431 531 
L 3431 0 
L 469 0 
L 469 531 
Q 828 903 1448 1529 
Q 2069 2156 2228 2338 
Q 2531 2678 2651 2914 
Q 2772 3150 2772 3378 
Q 2772 3750 2511 3984 
Q 2250 4219 1831 4219 
Q 1534 4219 1204 4116 
Q 875 4013 500 3803 
L 500 4441 
Q 881 4594 1212 4672 
Q 1544 4750 1819 4750 
Q 2544 4750 2975 4387 
Q 3406 4025 3406 3419 
Q 3406 3131 3298 2873 
Q 3191 2616 2906 2266 
Q 2828 2175 2409 1742 
Q 1991 1309 1228 531 
z
" transform="scale(0.015625)"/>
        <path id="DejaVuSans-30" d="M 2034 4250 
Q 1547 4250 1301 3770 
Q 1056 3291 1056 2328 
Q 1056 1369 1301 889 
Q 1547 409 2034 409 
Q 2525 409 2770 889 
Q 3016 1369 3016 2328 
Q 3016 3291 2770 3770 
Q 2525 4250 2034 4250 
z
M 2034 4750 
Q 2819 4750 3233 4129 
Q 3647 3509 3647 2328 
Q 3647 1150 3233 529 
Q 2819 -91 2034 -91 
Q 1250 -91 836 529 
Q 422 1150 422 2328 
Q 422 3509 836 4129 
Q 1250 4750 2034 4750 
z
" transform="scale(0.015625)"/>
        <path id="DejaVuSans-2d" d="M 313 2009 
L 1997 2009 
L 1997 1497 
L 313 1497 
L 313 2009 
z
" transform="scale(0.015625)"/>
        <path id="DejaVuSans-31" d="M 794 531 
L 1825 531 
L 1825 4091 
L 703 3866 
L 703 4441 
L 1819 4666 
L 2450 4666 
L 2450 531 
L 3481 531 
L 3481 0 
L 794 0 
L 794 531 
z
" transform="scale(0.015625)"/>
       </defs>
       <use xlink:href="#DejaVuSans-32"/>
       <use xlink:href="#DejaVuSans-30" transform="translate(63.623047 0)"/>
       <use xlink:href="#DejaVuSans-32" transform="translate(127.246094 0)"/>
       <use xlink:href="#DejaVuSans-32" transform="translate(190.869141 0)"/>
       <use xlink:href="#DejaVuSans-2d" transform="translate(254.492188 0)"/>
       <use xlink:href="#DejaVuSans-30" transform="translate(290.576172 0)"/>
       <use xlink:href="#DejaVuSans-31" transform="translate(354.199219 0)"/>
      </g>
     </g>
    </g>
    <g id="xtick_2">
     <g id="line2d_2">
      <g>
       <use xlink:href="#m3bdbaf4bab" x="162.224449" y="332.12" style="stroke: #000000; stroke-width: 0.8"/>
      </g>
     </g>
     <g id="text_2">
      <!-- 2022-07 -->
      <g transform="translate(141.333043 346.718437) scale(0.1 -0.1)">
       <defs>
        <path id="DejaVuSans-37" d="M 525 4666 
L 3525 4666 
L 3525 4397 
L 1831 0 
L 1172 0 
L 2766 4134 
L 525 4134 
L 525 4666 
z
" transform="scale(0.015625)"/>
       </defs>
       <use xlink:href="#DejaVuSans-32"/>
       <use xlink:href="#DejaVuSans-30" transform="translate(63.623047 0)"/>
       <use xlink:href="#DejaVuSans-32" transform="translate(127.246094 0)"/>
       <use xlink:href="#DejaVuSans-32" transform="translate(190.869141 0)"/>
       <use xlink:href="#DejaVuSans-2d" transform="translate(254.492188 0)"/>
       <use xlink:href="#DejaVuSans-30" transform="translate(290.576172 0)"/>
       <use xlink:href="#DejaVuSans-37" transform="translate(354.199219 0)"/>
      </g>
     </g>
    </g>
    <g id="xtick_3">
     <g id="line2d_3">
      <g>
       <use xlink:href="#m3bdbaf4bab" x="289.600684" y="332.12" style="stroke: #000000; stroke-width: 0.8"/>
      </g>
     </g>
     <g id="text_3">
      <!-- 2023-01 -->
      <g transform="translate(268.709278 346.718437) scale(0.1 -0.1)">
       <defs>
        <path id="DejaVuSans-33" d="M 2597 2516 
Q 3050 2419 3304 2112 
Q 3559 1806 3559 1356 
Q 3559 666 3084 287 
Q 2609 -91 1734 -91 
Q 1441 -91 1130 -33 
Q 819 25 488 141 
L 488 750 
Q 750 597 1062 519 
Q 1375 441 1716 441 
Q 2309 441 2620 675 
Q 2931 909 2931 1356 
Q 2931 1769 2642 2001 
Q 2353 2234 1838 2234 
L 1294 2234 
L 1294 2753 
L 1863 2753 
Q 2328 2753 2575 2939 
Q 2822 3125 2822 3475 
Q 2822 3834 2567 4026 
Q 2313 4219 1838 4219 
Q 1578 4219 1281 4162 
Q 984 4106 628 3988 
L 628 4550 
Q 988 4650 1302 4700 
Q 1616 4750 1894 4750 
Q 2613 4750 3031 4423 
Q 3450 4097 3450 3541 
Q 3450 3153 3228 2886 
Q 3006 2619 2597 2516 
z
" transform="scale(0.015625)"/>
       </defs>
       <use xlink:href="#DejaVuSans-32"/>
       <use xlink:href="#DejaVuSans-30" transform="translate(63.623047 0)"/>
       <use xlink:href="#DejaVuSans-32" transform="translate(127.246094 0)"/>
       <use xlink:href="#DejaVuSans-33" transform="translate(190.869141 0)"/>
       <use xlink:href="#DejaVuSans-2d" transform="translate(254.492188 0)"/>
       <use xlink:href="#DejaVuSans-30" transform="translate(290.576172 0)"/>
       <use xlink:href="#DejaVuSans-31" transform="translate(354.199219 0)"/>
      </g>
     </g>
    </g>
    <g id="xtick_4">
     <g id="line2d_4">
      <g>
       <use xlink:href="#m3bdbaf4bab" x="414.900133" y="332.12" style="stroke: #000000; stroke-width: 0.8"/>
      </g>
     </g>
     <g id="text_4">
      <!-- 2023-07 -->
      <g transform="translate(394.008727 346.718437) scale(0.1 -0.1)">
       <use xlink:href="#DejaVuSans-32"/>
       <use xlink:href="#DejaVuSans-30" transform="translate(63.623047 0)"/>
       <use xlink:href="#DejaVuSans-32" transform="translate(127.246094 0)"/>
       <use xlink:href="#DejaVuSans-33" transform="translate(190.869141 0)"/>
       <use xlink:href="#DejaVuSans-2d" transform="translate(254.492188 0)"/>
       <use xlink:href="#DejaVuSans-30" transform="translate(290.576172 0)"/>
       <use xlink:href="#DejaVuSans-37" transform="translate(354.199219 0)"/>
      </g>
     </g>
    </g>
    <g id="xtick_5">
     <g id="line2d_5">
      <g>
       <use xlink:href="#m3bdbaf4bab" x="542.276369" y="332.12" style="stroke: #000000; stroke-width: 0.8"/>
      </g>
     </g>
     <g id="text_5">
      <!-- 2024-01 -->
      <g transform="translate(521.384963 346.718437) scale(0.1 -0.1)">
       <defs>
        <path id="DejaVuSans-34" d="M 2419 4116 
L 825 1625 
L 2419 1625 
L 2419 4116 
z
M 2253 4666 
L 3047 4666 
L 3047 1625 
L 3713 1625 
L 3713 1100 
L 3047 1100 
L 3047 0 
L 2419 0 
L 2419 1100 
L 313 1100 
L 313 1709 
L 2253 4666 
z
" transform="scale(0.015625)"/>
       </defs>
       <use xlink:href="#DejaVuSans-32"/>
       <use xlink:href="#DejaVuSans-30" transform="translate(63.623047 0)"/>
       <use xlink:href="#DejaVuSans-32" transform="translate(127.246094 0)"/>
       <use xlink:href="#DejaVuSans-34" transform="translate(190.869141 0)"/>
       <use xlink:href="#DejaVuSans-2d" transform="translate(254.492188 0)"/>
       <use xlink:href="#DejaVuSans-30" transform="translate(290.576172 0)"/>
       <use xlink:href="#DejaVuSans-31" transform="translate(354.199219 0)"/>
      </g>
     </g>
    </g>
    <g id="xtick_6">
     <g id="line2d_6">
      <g>
       <use xlink:href="#m3bdbaf4bab" x="668.26808" y="332.12" style="stroke: #000000; stroke-width: 0.8"/>
      </g>
     </g>
     <g id="text_6">
      <!-- 2024-07 -->
      <g transform="translate(647.376674 346.718437) scale(0.1 -0.1)">
       <use xlink:href="#DejaVuSans-32"/>
       <use xlink:href="#DejaVuSans-30" transform="translate(63.623047 0)"/>
       <use xlink:href="#DejaVuSans-32" transform="translate(127.246094 0)"/>
       <use xlink:href="#DejaVuSans-34" transform="translate(190.869141 0)"/>
       <use xlink:href="#DejaVuSans-2d" transform="translate(254.492188 0)"/>
       <use xlink:href="#DejaVuSans-30" transform="translate(290.576172 0)"/>
       <use xlink:href="#DejaVuSans-37" transform="translate(354.199219 0)"/>
      </g>
     </g>
    </g>
    <g id="xtick_7">
     <g id="line2d_7">
      <g>
       <use xlink:href="#m3bdbaf4bab" x="795.644316" y="332.12" style="stroke: #000000; stroke-width: 0.8"/>
      </g>
     </g>
     <g id="text_7">
      <!-- 2025-01 -->
      <g transform="translate(774.752909 346.718437) scale(0.1 -0.1)">
       <defs>
        <path id="DejaVuSans-35" d="M 691 4666 
L 3169 4666 
L 3169 4134 
L 1269 4134 
L 1269 2991 
Q 1406 3038 1543 3061 
Q 1681 3084 1819 3084 
Q 2600 3084 3056 2656 
Q 3513 2228 3513 1497 
Q 3513 744 3044 326 
Q 2575 -91 1722 -91 
Q 1428 -91 1123 -41 
Q 819 9 494 109 
L 494 744 
Q 775 591 1075 516 
Q 1375 441 1709 441 
Q 2250 441 2565 725 
Q 2881 1009 2881 1497 
Q 2881 1984 2565 2268 
Q 2250 2553 1709 2553 
Q 1456 2553 1204 2497 
Q 953 2441 691 2322 
L 691 4666 
z
" transform="scale(0.015625)"/>
       </defs>
       <use xlink:href="#DejaVuSans-32"/>
       <use xlink:href="#DejaVuSans-30" transform="translate(63.623047 0)"/>
       <use xlink:href="#DejaVuSans-32" transform="translate(127.246094 0)"/>
       <use xlink:href="#DejaVuSans-35" transform="translate(190.869141 0)"/>
       <use xlink:href="#DejaVuSans-2d" transform="translate(254.492188 0)"/>
       <use xlink:href="#DejaVuSans-30" transform="translate(290.576172 0)"/>
       <use xlink:href="#DejaVuSans-31" transform="translate(354.199219 0)"/>
      </g>
     </g>
    </g>
    <g id="xtick_8">
     <g id="line2d_8">
      <g>
       <use xlink:href="#m3bdbaf4bab" x="920.943765" y="332.12" style="stroke: #000000; stroke-width: 0.8"/>
      </g>
     </g>
     <g id="text_8">
      <!-- 2025-07 -->
      <g transform="translate(900.052358 346.718437) scale(0.1 -0.1)">
       <use xlink:href="#DejaVuSans-32"/>
       <use xlink:href="#DejaVuSans-30" transform="translate(63.623047 0)"/>
       <use xlink:href="#DejaVuSans-32" transform="translate(127.246094 0)"/>
       <use xlink:href="#DejaVuSans-35" transform="translate(190.869141 0)"/>
       <use xlink:href="#DejaVuSans-2d" transform="translate(254.492188 0)"/>
       <use xlink:href="#DejaVuSans-30" transform="translate(290.576172 0)"/>
       <use xlink:href="#DejaVuSans-37" transform="translate(354.199219 0)"/>
      </g>
     </g>
    </g>
    <g id="xtick_9">
     <g id="line2d_9">
      <g>
       <use xlink:href="#m3bdbaf4bab" x="1048.32" y="332.12" style="stroke: #000000; stroke-width: 0.8"/>
      </g>
     </g>
     <g id="text_9">
      <!-- 2026-01 -->
      <g transform="translate(1027.428594 346.718437) scale(0.1 -0.1)">
       <defs>
        <path id="DejaVuSans-36" d="M 2113 2584 
Q 1688 2584 1439 2293 
Q 1191 2003 1191 1497 
Q 1191 994 1439 701 
Q 1688 409 2113 409 
Q 2538 409 2786 701 
Q 3034 994 3034 1497 
Q 3034 2003 2786 2293 
Q 2538 2584 2113 2584 
z
M 3366 4563 
L 3366 3988 
Q 3128 4100 2886 4159 
Q 2644 4219 2406 4219 
Q 1781 4219 1451 3797 
Q 1122 3375 1075 2522 
Q 1259 2794 1537 2939 
Q 1816 3084 2150 3084 
Q 2853 3084 3261 2657 
Q 3669 2231 3669 1497 
Q 3669 778 3244 343 
Q 2819 -91 2113 -91 
Q 1303 -91 875 529 
Q 447 1150 447 2328 
Q 447 3434 972 4092 
Q 1497 4750 2381 4750 
Q 2619 4750 2861 4703 
Q 3103 4656 3366 4563 
z
" transform="scale(0.015625)"/>
       </defs>
       <use xlink:href="#DejaVuSans-32"/>
       <use xlink:href="#DejaVuSans-30" transform="translate(63.623047 0)"/>
       <use xlink:href="#DejaVuSans-32" transform="translate(127.246094 0)"/>
       <use xlink:href="#DejaVuSans-36" transform="translate(190.869141 0)"/>
       <use xlink:href="#DejaVuSans-2d" transform="translate(254.492188 0)"/>
       <use xlink:href="#DejaVuSans-30" transform="translate(290.576172 0)"/>
       <use xlink:href="#DejaVuSans-31" transform="translate(354.199219 0)"/>
      </g>
     </g>
    </g>
   </g>
   <g id="matplotlib.axis_2">
    <g id="ytick_1">
     <g id="line2d_10">
      <defs>
       <path id="m05a6fe0b83" d="M 0 0 
L -3.5 0 
" style="stroke: #000000; stroke-width: 0.8"/>
      </defs>
      <g>
       <use xlink:href="#m05a6fe0b83" x="36.925" y="332.12" style="stroke: #000000; stroke-width: 0.8"/>
      </g>
     </g>
     <g id="text_10">
      <!-- 0 -->
      <g transform="translate(23.5625 335.919219) scale(0.1 -0.1)">
       <use xlink:href="#DejaVuSans-30"/>
      </g>
     </g>
    </g>
    <g id="ytick_2">
     <g id="line2d_11">
      <g>
       <use xlink:href="#m05a6fe0b83" x="36.925" y="268.648" style="stroke: #000000; stroke-width: 0.8"/>
      </g>
     </g>
     <g id="text_11">
      <!-- 20 -->
      <g transform="translate(17.2 272.447219) scale(0.1 -0.1)">
       <use xlink:href="#DejaVuSans-32"/>
       <use xlink:href="#DejaVuSans-30" transform="translate(63.623047 0)"/>
      </g>
     </g>
    </g>
    <g id="ytick_3">
     <g id="line2d_12">
      <g>
       <use xlink:href="#m05a6fe0b83" x="36.925" y="205.176" style="stroke: #000000; stroke-width: 0.8"/>
      </g>
     </g>
     <g id="text_12">
      <!-- 40 -->
      <g transform="translate(17.2 208.975219) scale(0.1 -0.1)">
       <use xlink:href="#DejaVuSans-34"/>
       <use xlink:href="#DejaVuSans-30" transform="translate(63.623047 0)"/>
      </g>
     </g>
    </g>
    <g id="ytick_4">
     <g id="line2d_13">
      <g>
       <use xlink:href="#m05a6fe0b83" x="36.925" y="141.704" style="stroke: #000000; stroke-width: 0.8"/>
      </g>
     </g>
     <g id="text_13">
      <!-- 60 -->
      <g transform="translate(17.2 145.503219) scale(0.1 -0.1)">
       <use xlink:href="#DejaVuSans-36"/>
       <use xlink:href="#DejaVuSans-30" transform="translate(63.623047 0)"/>
      </g>
     </g>
    </g>
    <g id="ytick_5">
     <g id="line2d_14">
      <g>
       <use xlink:href="#m05a6fe0b83" x="36.925" y="78.232" style="stroke: #000000; stroke-width: 0.8"/>
      </g>
     </g>
     <g id="text_14">
      <!-- 80 -->
      <g transform="translate(17.2 82.031219) scale(0.1 -0.1)">
       <defs>
        <path id="DejaVuSans-38" d="M 2034 2216 
Q 1584 2216 1326 1975 
Q 1069 1734 1069 1313 
Q 1069 891 1326 650 
Q 1584 409 2034 409 
Q 2484 409 2743 651 
Q 3003 894 3003 1313 
Q 3003 1734 2745 1975 
Q 2488 2216 2034 2216 
z
M 1403 2484 
Q 997 2584 770 2862 
Q 544 3141 544 3541 
Q 544 4100 942 4425 
Q 1341 4750 2034 4750 
Q 2731 4750 3128 4425 
Q 3525 4100 3525 3541 
Q 3525 3141 3298 2862 
Q 3072 2584 2669 2484 
Q 3125 2378 3379 2068 
Q 3634 1759 3634 1313 
Q 3634 634 3220 271 
Q 2806 -91 2034 -91 
Q 1263 -91 848 271 
Q 434 634 434 1313 
Q 434 1759 690 2068 
Q 947 2378 1403 2484 
z
M 1172 3481 
Q 1172 3119 1398 2916 
Q 1625 2713 2034 2713 
Q 2441 2713 2670 2916 
Q 2900 3119 2900 3481 
Q 2900 3844 2670 4047 
Q 2441 4250 2034 4250 
Q 1625 4250 1398 4047 
Q 1172 3844 1172 3481 
z
" transform="scale(0.015625)"/>
       </defs>
       <use xlink:href="#DejaVuSans-38"/>
       <use xlink:href="#DejaVuSans-30" transform="translate(63.623047 0)"/>
      </g>
     </g>
    </g>
    <g id="ytick_6">
     <g id="line2d_15">
      <g>
       <use xlink:href="#m05a6fe0b83" x="36.925" y="14.76" style="stroke: #000000; stroke-width: 0.8"/>
      </g>
     </g>
     <g id="text_15">
      <!-- 100 -->
      <g transform="translate(10.8375 18.559219) scale(0.1 -0.1)">
       <use xlink:href="#DejaVuSans-31"/>
       <use xlink:href="#DejaVuSans-30" transform="translate(63.623047 0)"/>
       <use xlink:href="#DejaVuSans-30" transform="translate(127.246094 0)"/>
      </g>
     </g>
    </g>
   </g>
   <g id="line2d_16">
    <path d="M 76.383943 186.1344 
L 81.229778 195.6552 
L 86.075613 182.9608 
L 90.921448 198.8288 
L 95.767283 202.0024 
L 100.613118 205.176 
L 105.458953 205.176 
L 110.304788 205.176 
L 115.150623 208.3496 
L 119.996458 198.8288 
L 124.842293 192.4816 
L 129.688128 208.3496 
L 134.533963 202.0024 
L 139.379798 198.8288 
L 144.225633 202.0024 
L 149.071468 202.0024 
L 153.917303 198.8288 
L 158.763138 208.3496 
L 163.608973 202.0024 
L 168.454808 208.3496 
L 173.300643 208.3496 
L 178.146478 205.176 
L 182.992313 202.0024 
L 187.838149 211.5232 
L 192.683984 208.3496 
L 197.529819 217.8704 
L 202.375654 214.6968 
L 207.221489 208.3496 
L 212.067324 214.6968 
L 216.913159 217.8704 
L 221.758994 217.8704 
L 226.604829 230.5648 
L 231.450664 217.8704 
L 236.296499 217.8704 
L 241.142334 217.8704 
L 245.988169 214.6968 
L 250.834004 192.4816 
L 255.679839 217.8704 
L 260.525674 227.3912 
L 265.371509 227.3912 
L 270.217344 217.8704 
L 275.063179 214.6968 
L 279.909014 198.8288 
L 284.754849 182.9608 
L 289.600684 189.308 
L 294.44652 208.3496 
L 299.292355 208.3496 
L 304.13819 214.6968 
L 308.984025 214.6968 
L 313.82986 214.6968 
L 318.675695 195.6552 
L 323.52153 202.0024 
L 328.367365 205.176 
L 333.2132 195.6552 
L 338.059035 179.7872 
L 342.90487 195.6552 
L 347.750705 202.0024 
L 352.59654 205.176 
L 357.442375 211.5232 
L 362.28821 208.3496 
L 367.134045 211.5232 
L 371.97988 214.6968 
L 376.825715 211.5232 
L 381.67155 195.6552 
L 386.517385 208.3496 
L 391.36322 208.3496 
L 396.209055 208.3496 
L 401.05489 208.3496 
L 405.900726 202.0024 
L 410.746561 208.3496 
L 415.592396 202.0024 
L 420.438231 205.176 
L 425.284066 205.176 
L 430.129901 205.176 
L 434.975736 208.3496 
L 439.821571 205.176 
L 444.667406 211.5232 
L 449.513241 221.044 
L 454.359076 224.2176 
L 459.204911 214.6968 
L 464.050746 230.5648 
L 468.896581 217.8704 
L 473.742416 211.5232 
L 478.588251 205.176 
L 483.434086 195.6552 
L 488.279921 195.6552 
L 493.125756 198.8288 
L 497.971591 211.5232 
L 502.817426 189.308 
L 507.663261 211.5232 
L 512.509097 224.2176 
L 517.354932 227.3912 
L 522.200767 217.8704 
L 527.046602 221.044 
L 531.892437 208.3496 
L 536.738272 208.3496 
L 541.584107 195.6552 
L 546.429942 221.044 
L 551.275777 211.5232 
L 556.121612 205.176 
L 560.967447 214.6968 
L 565.813282 214.6968 
L 570.659117 205.176 
L 575.504952 195.6552 
L 580.350787 202.0024 
L 585.196622 202.0024 
L 590.042457 189.308 
L 594.888292 202.0024 
L 599.734127 195.6552 
L 604.579962 192.4816 
L 609.425797 211.5232 
L 614.271632 205.176 
L 619.117467 198.8288 
" clip-path="url(#p656b98b834)" style="fill: none; stroke: #ff0000; stroke-width: 1.5; stroke-linecap: square"/>
   </g>
   <g id="line2d_17">
    <path d="M 76.383943 138.5304 
L 81.229778 151.2248 
L 86.075613 129.0096 
L 90.921448 151.2248 
L 95.767283 154.3984 
L 100.613118 151.2248 
L 105.458953 151.2248 
L 110.304788 157.572 
L 115.150623 170.2664 
L 119.996458 163.9192 
L 124.842293 154.3984 
L 129.688128 176.6136 
L 134.533963 167.0928 
L 139.379798 157.572 
L 144.225633 167.0928 
L 149.071468 173.44 
L 153.917303 148.0512 
L 158.763138 170.2664 
L 163.608973 148.0512 
L 168.454808 163.9192 
L 173.300643 148.0512 
L 178.146478 163.9192 
L 182.992313 167.0928 
L 187.838149 167.0928 
L 192.683984 176.6136 
L 197.529819 186.1344 
L 202.375654 176.6136 
L 207.221489 135.3568 
L 212.067324 167.0928 
L 216.913159 148.0512 
L 221.758994 170.2664 
L 226.604829 189.308 
L 231.450664 170.2664 
L 236.296499 170.2664 
L 241.142334 176.6136 
L 245.988169 182.9608 
L 250.834004 151.2248 
L 255.679839 192.4816 
L 260.525674 179.7872 
L 265.371509 198.8288 
L 270.217344 186.1344 
L 275.063179 182.9608 
L 279.909014 176.6136 
L 284.754849 138.5304 
L 289.600684 167.0928 
L 294.44652 160.7456 
L 299.292355 135.3568 
L 304.13819 157.572 
L 308.984025 151.2248 
L 313.82986 163.9192 
L 318.675695 144.8776 
L 323.52153 167.0928 
L 328.367365 173.44 
L 333.2132 179.7872 
L 338.059035 170.2664 
L 342.90487 182.9608 
L 347.750705 192.4816 
L 352.59654 186.1344 
L 357.442375 189.308 
L 362.28821 189.308 
L 367.134045 192.4816 
L 371.97988 205.176 
L 376.825715 198.8288 
L 381.67155 176.6136 
L 386.517385 182.9608 
L 391.36322 170.2664 
L 396.209055 167.0928 
L 401.05489 176.6136 
L 405.900726 176.6136 
L 410.746561 179.7872 
L 415.592396 173.44 
L 420.438231 189.308 
L 425.284066 186.1344 
L 430.129901 192.4816 
L 434.975736 195.6552 
L 439.821571 179.7872 
L 444.667406 122.6624 
L 449.513241 148.0512 
L 454.359076 167.0928 
L 459.204911 173.44 
L 464.050746 186.1344 
L 468.896581 182.9608 
L 473.742416 195.6552 
L 478.588251 116.3152 
L 483.434086 84.5792 
L 488.279921 138.5304 
L 493.125756 163.9192 
L 497.971591 179.7872 
L 502.817426 160.7456 
L 507.663261 189.308 
L 512.509097 186.1344 
L 517.354932 198.8288 
L 522.200767 198.8288 
L 527.046602 198.8288 
L 531.892437 186.1344 
L 536.738272 154.3984 
L 541.584107 173.44 
L 546.429942 179.7872 
L 551.275777 132.1832 
L 556.121612 116.3152 
L 560.967447 167.0928 
L 565.813282 176.6136 
L 570.659117 170.2664 
L 575.504952 163.9192 
L 580.350787 173.44 
L 585.196622 163.9192 
L 590.042457 179.7872 
L 594.888292 176.6136 
L 599.734127 167.0928 
L 604.579962 173.44 
L 609.425797 182.9608 
L 614.271632 182.9608 
L 619.117467 186.1344 
" clip-path="url(#p656b98b834)" style="fill: none; stroke: #4c72b0; stroke-width: 1.5; stroke-linecap: square"/>
   </g>
   <g id="line2d_18">
    <path d="M 76.383943 287.6896 
L 81.229778 287.6896 
L 86.075613 284.516 
L 90.921448 287.6896 
L 95.767283 290.8632 
L 100.613118 290.8632 
L 105.458953 290.8632 
L 110.304788 294.0368 
L 115.150623 290.8632 
L 119.996458 287.6896 
L 124.842293 287.6896 
L 129.688128 294.0368 
L 134.533963 294.0368 
L 139.379798 294.0368 
L 144.225633 294.0368 
L 149.071468 294.0368 
L 153.917303 290.8632 
L 158.763138 294.0368 
L 163.608973 290.8632 
L 168.454808 290.8632 
L 173.300643 290.8632 
L 178.146478 294.0368 
L 182.992313 294.0368 
L 187.838149 297.2104 
L 192.683984 294.0368 
L 197.529819 297.2104 
L 202.375654 297.2104 
L 207.221489 297.2104 
L 212.067324 297.2104 
L 216.913159 300.384 
L 221.758994 300.384 
L 226.604829 303.5576 
L 231.450664 300.384 
L 236.296499 294.0368 
L 241.142334 300.384 
L 245.988169 306.7312 
L 250.834004 300.384 
L 255.679839 303.5576 
L 260.525674 303.5576 
L 265.371509 306.7312 
L 270.217344 300.384 
L 275.063179 303.5576 
L 279.909014 303.5576 
L 284.754849 287.6896 
L 289.600684 300.384 
L 294.44652 303.5576 
L 299.292355 300.384 
L 304.13819 303.5576 
L 308.984025 300.384 
L 313.82986 300.384 
L 318.675695 294.0368 
L 323.52153 297.2104 
L 328.367365 300.384 
L 333.2132 297.2104 
L 338.059035 297.2104 
L 342.90487 297.2104 
L 347.750705 300.384 
L 352.59654 297.2104 
L 357.442375 297.2104 
L 362.28821 297.2104 
L 367.134045 297.2104 
L 371.97988 294.0368 
L 376.825715 297.2104 
L 381.67155 294.0368 
L 386.517385 300.384 
L 391.36322 297.2104 
L 396.209055 297.2104 
L 401.05489 297.2104 
L 405.900726 294.0368 
L 410.746561 290.8632 
L 415.592396 294.0368 
L 420.438231 297.2104 
L 425.284066 297.2104 
L 430.129901 294.0368 
L 434.975736 297.2104 
L 439.821571 303.5576 
L 444.667406 300.384 
L 449.513241 303.5576 
L 454.359076 303.5576 
L 459.204911 303.5576 
L 464.050746 303.5576 
L 468.896581 303.5576 
L 473.742416 303.5576 
L 478.588251 303.5576 
L 483.434086 303.5576 
L 488.279921 300.384 
L 493.125756 303.5576 
L 497.971591 303.5576 
L 502.817426 303.5576 
L 507.663261 303.5576 
L 512.509097 303.5576 
L 517.354932 306.7312 
L 522.200767 303.5576 
L 527.046602 303.5576 
L 531.892437 303.5576 
L 536.738272 294.0368 
L 541.584107 271.8216 
L 546.429942 306.7312 
L 551.275777 306.7312 
L 556.121612 306.7312 
L 560.967447 306.7312 
L 565.813282 306.7312 
L 570.659117 303.5576 
L 575.504952 300.384 
L 580.350787 303.5576 
L 585.196622 303.5576 
L 590.042457 303.5576 
L 594.888292 303.5576 
L 599.734127 306.7312 
L 604.579962 306.7312 
L 609.425797 306.7312 
L 614.271632 306.7312 
L 619.117467 306.7312 
" clip-path="url(#p656b98b834)" style="fill: none; stroke: #55a868; stroke-width: 1.5; stroke-linecap: square"/>
   </g>
   <g id="line2d_19">
    <path d="M 76.383943 217.8704 
L 81.229778 224.2176 
L 86.075613 217.8704 
L 90.921448 214.6968 
L 95.767283 227.3912 
L 100.613118 227.3912 
L 105.458953 224.2176 
L 110.304788 230.5648 
L 115.150623 230.5648 
L 119.996458 217.8704 
L 124.842293 198.8288 
L 129.688128 236.912 
L 134.533963 236.912 
L 139.379798 236.912 
L 144.225633 236.912 
L 149.071468 230.5648 
L 153.917303 211.5232 
L 158.763138 233.7384 
L 163.608973 224.2176 
L 168.454808 230.5648 
L 173.300643 224.2176 
L 178.146478 227.3912 
L 182.992313 233.7384 
L 187.838149 233.7384 
L 192.683984 233.7384 
L 197.529819 236.912 
L 202.375654 240.0856 
L 207.221489 236.912 
L 212.067324 252.78 
L 216.913159 243.2592 
L 221.758994 246.4328 
L 226.604829 259.1272 
L 231.450664 246.4328 
L 236.296499 243.2592 
L 241.142334 249.6064 
L 245.988169 252.78 
L 250.834004 246.4328 
L 255.679839 249.6064 
L 260.525674 252.78 
L 265.371509 259.1272 
L 270.217344 249.6064 
L 275.063179 236.912 
L 279.909014 217.8704 
L 284.754849 198.8288 
L 289.600684 214.6968 
L 294.44652 227.3912 
L 299.292355 224.2176 
L 304.13819 233.7384 
L 308.984025 236.912 
L 313.82986 227.3912 
L 318.675695 198.8288 
L 323.52153 236.912 
L 328.367365 240.0856 
L 333.2132 236.912 
L 338.059035 230.5648 
L 342.90487 233.7384 
L 347.750705 240.0856 
L 352.59654 243.2592 
L 357.442375 246.4328 
L 362.28821 243.2592 
L 367.134045 243.2592 
L 371.97988 246.4328 
L 376.825715 233.7384 
L 381.67155 224.2176 
L 386.517385 249.6064 
L 391.36322 246.4328 
L 396.209055 249.6064 
L 401.05489 236.912 
L 405.900726 224.2176 
L 410.746561 246.4328 
L 415.592396 240.0856 
L 420.438231 246.4328 
L 425.284066 249.6064 
L 430.129901 243.2592 
L 434.975736 243.2592 
L 439.821571 246.4328 
L 444.667406 243.2592 
L 449.513241 249.6064 
L 454.359076 259.1272 
L 459.204911 252.78 
L 464.050746 255.9536 
L 468.896581 259.1272 
L 473.742416 262.3008 
L 478.588251 262.3008 
L 483.434086 259.1272 
L 488.279921 252.78 
L 493.125756 255.9536 
L 497.971591 255.9536 
L 502.817426 243.2592 
L 507.663261 249.6064 
L 512.509097 259.1272 
L 517.354932 259.1272 
L 522.200767 243.2592 
L 527.046602 240.0856 
L 531.892437 217.8704 
L 536.738272 208.3496 
L 541.584107 217.8704 
L 546.429942 236.912 
L 551.275777 233.7384 
L 556.121612 243.2592 
L 560.967447 249.6064 
L 565.813282 233.7384 
L 570.659117 208.3496 
L 575.504952 217.8704 
L 580.350787 205.176 
L 585.196622 227.3912 
L 590.042457 227.3912 
L 594.888292 243.2592 
L 599.734127 246.4328 
L 604.579962 246.4328 
L 609.425797 249.6064 
L 614.271632 243.2592 
L 619.117467 243.2592 
" clip-path="url(#p656b98b834)" style="fill: none; stroke: #c44e52; stroke-width: 1.5; stroke-linecap: square"/>
   </g>
   <g id="line2d_20">
    <path d="M 76.383943 265.4744 
L 81.229778 268.648 
L 86.075613 265.4744 
L 90.921448 265.4744 
L 95.767283 265.4744 
L 100.613118 271.8216 
L 105.458953 271.8216 
L 110.304788 271.8216 
L 115.150623 268.648 
L 119.996458 271.8216 
L 124.842293 268.648 
L 129.688128 274.9952 
L 134.533963 268.648 
L 139.379798 265.4744 
L 144.225633 271.8216 
L 149.071468 265.4744 
L 153.917303 265.4744 
L 158.763138 268.648 
L 163.608973 265.4744 
L 168.454808 268.648 
L 173.300643 268.648 
L 178.146478 265.4744 
L 182.992313 271.8216 
L 187.838149 271.8216 
L 192.683984 278.1688 
L 197.529819 278.1688 
L 202.375654 274.9952 
L 207.221489 274.9952 
L 212.067324 278.1688 
L 216.913159 281.3424 
L 221.758994 278.1688 
L 226.604829 284.516 
L 231.450664 281.3424 
L 236.296499 278.1688 
L 241.142334 281.3424 
L 245.988169 278.1688 
L 250.834004 268.648 
L 255.679839 278.1688 
L 260.525674 278.1688 
L 265.371509 284.516 
L 270.217344 281.3424 
L 275.063179 278.1688 
L 279.909014 271.8216 
L 284.754849 259.1272 
L 289.600684 274.9952 
L 294.44652 278.1688 
L 299.292355 274.9952 
L 304.13819 281.3424 
L 308.984025 281.3424 
L 313.82986 281.3424 
L 318.675695 281.3424 
L 323.52153 274.9952 
L 328.367365 274.9952 
L 333.2132 278.1688 
L 338.059035 274.9952 
L 342.90487 278.1688 
L 347.750705 274.9952 
L 352.59654 278.1688 
L 357.442375 281.3424 
L 362.28821 281.3424 
L 367.134045 284.516 
L 371.97988 284.516 
L 376.825715 284.516 
L 381.67155 284.516 
L 386.517385 287.6896 
L 391.36322 281.3424 
L 396.209055 281.3424 
L 401.05489 281.3424 
L 405.900726 278.1688 
L 410.746561 281.3424 
L 415.592396 278.1688 
L 420.438231 281.3424 
L 425.284066 281.3424 
L 430.129901 281.3424 
L 434.975736 281.3424 
L 439.821571 284.516 
L 444.667406 284.516 
L 449.513241 284.516 
L 454.359076 287.6896 
L 459.204911 287.6896 
L 464.050746 290.8632 
L 468.896581 284.516 
L 473.742416 287.6896 
L 478.588251 287.6896 
L 483.434086 287.6896 
L 488.279921 287.6896 
L 493.125756 290.8632 
L 497.971591 287.6896 
L 502.817426 278.1688 
L 507.663261 287.6896 
L 512.509097 287.6896 
L 517.354932 290.8632 
L 522.200767 287.6896 
L 527.046602 284.516 
L 531.892437 278.1688 
L 536.738272 278.1688 
L 541.584107 278.1688 
L 546.429942 287.6896 
L 551.275777 287.6896 
L 556.121612 284.516 
L 560.967447 287.6896 
L 565.813282 287.6896 
L 570.659117 281.3424 
L 575.504952 278.1688 
L 580.350787 284.516 
L 585.196622 281.3424 
L 590.042457 281.3424 
L 594.888292 278.1688 
L 599.734127 281.3424 
L 604.579962 284.516 
L 609.425797 287.6896 
L 614.271632 284.516 
L 619.117467 281.3424 
" clip-path="url(#p656b98b834)" style="fill: none; stroke: #8172b2; stroke-width: 1.5; stroke-linecap: square"/>
   </g>
   <g id="patch_3">
    <path d="M 36.925 332.12 
L 36.925 14.76 
" style="fill: none; stroke: #000000; stroke-width: 0.8; stroke-linejoin: miter; stroke-linecap: square"/>
   </g>
   <g id="patch_4">
    <path d="M 1048.32 332.12 
L 1048.32 14.76 
" style="fill: none; stroke: #000000; stroke-width: 0.8; stroke-linejoin: miter; stroke-linecap: square"/>
   </g>
   <g id="patch_5">
    <path d="M 36.925 332.12 
L 1048.32 332.12 
" style="fill: none; stroke: #000000; stroke-width: 0.8; stroke-linejoin: miter; stroke-linecap: square"/>
   </g>
   <g id="patch_6">
    <path d="M 36.925 14.76 
L 1048.32 14.76 
" style="fill: none; stroke: #000000; stroke-width: 0.8; stroke-linejoin: miter; stroke-linecap: square"/>
   </g>
   <g id="legend_1">
    <g id="patch_7">
     <path d="M 905.749688 96.150625 
L 1041.32 96.150625 
Q 1043.32 96.150625 1043.32 94.150625 
L 1043.32 21.76 
Q 1043.32 19.76 1041.32 19.76 
L 905.749688 19.76 
Q 903.749688 19.76 903.749688 21.76 
L 903.749688 94.150625 
Q 903.749688 96.150625 905.749688 96.150625 
z
" style="fill: #ffffff; opacity: 0.8; stroke: #cccccc; stroke-linejoin: miter"/>
    </g>
    <g id="line2d_21">
     <path d="M 907.749688 27.858437 
L 917.749688 27.858437 
L 927.749688 27.858437 
" style="fill: none; stroke: #ff0000; stroke-width: 1.5; stroke-linecap: square"/>
    </g>
    <g id="text_16">
     <!-- Chili's -->
     <g transform="translate(935.749688 31.358437) scale(0.1 -0.1)">
      <defs>
       <path id="DejaVuSans-43" d="M 4122 4306 
L 4122 3641 
Q 3803 3938 3442 4084 
Q 3081 4231 2675 4231 
Q 1875 4231 1450 3742 
Q 1025 3253 1025 2328 
Q 1025 1406 1450 917 
Q 1875 428 2675 428 
Q 3081 428 3442 575 
Q 3803 722 4122 1019 
L 4122 359 
Q 3791 134 3420 21 
Q 3050 -91 2638 -91 
Q 1578 -91 968 557 
Q 359 1206 359 2328 
Q 359 3453 968 4101 
Q 1578 4750 2638 4750 
Q 3056 4750 3426 4639 
Q 3797 4528 4122 4306 
z
" transform="scale(0.015625)"/>
       <path id="DejaVuSans-68" d="M 3513 2113 
L 3513 0 
L 2938 0 
L 2938 2094 
Q 2938 2591 2744 2837 
Q 2550 3084 2163 3084 
Q 1697 3084 1428 2787 
Q 1159 2491 1159 1978 
L 1159 0 
L 581 0 
L 581 4863 
L 1159 4863 
L 1159 2956 
Q 1366 3272 1645 3428 
Q 1925 3584 2291 3584 
Q 2894 3584 3203 3211 
Q 3513 2838 3513 2113 
z
" transform="scale(0.015625)"/>
       <path id="DejaVuSans-69" d="M 603 3500 
L 1178 3500 
L 1178 0 
L 603 0 
L 603 3500 
z
M 603 4863 
L 1178 4863 
L 1178 4134 
L 603 4134 
L 603 4863 
z
" transform="scale(0.015625)"/>
       <path id="DejaVuSans-6c" d="M 603 4863 
L 1178 4863 
L 1178 0 
L 603 0 
L 603 4863 
z
" transform="scale(0.015625)"/>
       <path id="DejaVuSans-27" d="M 1147 4666 
L 1147 2931 
L 616 2931 
L 616 4666 
L 1147 4666 
z
" transform="scale(0.015625)"/>
       <path id="DejaVuSans-73" d="M 2834 3397 
L 2834 2853 
Q 2591 2978 2328 3040 
Q 2066 3103 1784 3103 
Q 1356 3103 1142 2972 
Q 928 2841 928 2578 
Q 928 2378 1081 2264 
Q 1234 2150 1697 2047 
L 1894 2003 
Q 2506 1872 2764 1633 
Q 3022 1394 3022 966 
Q 3022 478 2636 193 
Q 2250 -91 1575 -91 
Q 1294 -91 989 -36 
Q 684 19 347 128 
L 347 722 
Q 666 556 975 473 
Q 1284 391 1588 391 
Q 1994 391 2212 530 
Q 2431 669 2431 922 
Q 2431 1156 2273 1281 
Q 2116 1406 1581 1522 
L 1381 1569 
Q 847 1681 609 1914 
Q 372 2147 372 2553 
Q 372 3047 722 3315 
Q 1072 3584 1716 3584 
Q 2034 3584 2315 3537 
Q 2597 3491 2834 3397 
z
" transform="scale(0.015625)"/>
      </defs>
      <use xlink:href="#DejaVuSans-43"/>
      <use xlink:href="#DejaVuSans-68" transform="translate(69.824219 0)"/>
      <use xlink:href="#DejaVuSans-69" transform="translate(133.203125 0)"/>
      <use xlink:href="#DejaVuSans-6c" transform="translate(160.986328 0)"/>
      <use xlink:href="#DejaVuSans-69" transform="translate(188.769531 0)"/>
      <use xlink:href="#DejaVuSans-27" transform="translate(216.552734 0)"/>
      <use xlink:href="#DejaVuSans-73" transform="translate(244.042969 0)"/>
     </g>
    </g>
    <g id="line2d_22">
     <path d="M 907.749688 42.536563 
L 917.749688 42.536563 
L 927.749688 42.536563 
" style="fill: none; stroke: #4c72b0; stroke-width: 1.5; stroke-linecap: square"/>
    </g>
    <g id="text_17">
     <!-- Applebees -->
     <g transform="translate(935.749688 46.036563) scale(0.1 -0.1)">
      <defs>
       <path id="DejaVuSans-41" d="M 2188 4044 
L 1331 1722 
L 3047 1722 
L 2188 4044 
z
M 1831 4666 
L 2547 4666 
L 4325 0 
L 3669 0 
L 3244 1197 
L 1141 1197 
L 716 0 
L 50 0 
L 1831 4666 
z
" transform="scale(0.015625)"/>
       <path id="DejaVuSans-70" d="M 1159 525 
L 1159 -1331 
L 581 -1331 
L 581 3500 
L 1159 3500 
L 1159 2969 
Q 1341 3281 1617 3432 
Q 1894 3584 2278 3584 
Q 2916 3584 3314 3078 
Q 3713 2572 3713 1747 
Q 3713 922 3314 415 
Q 2916 -91 2278 -91 
Q 1894 -91 1617 61 
Q 1341 213 1159 525 
z
M 3116 1747 
Q 3116 2381 2855 2742 
Q 2594 3103 2138 3103 
Q 1681 3103 1420 2742 
Q 1159 2381 1159 1747 
Q 1159 1113 1420 752 
Q 1681 391 2138 391 
Q 2594 391 2855 752 
Q 3116 1113 3116 1747 
z
" transform="scale(0.015625)"/>
       <path id="DejaVuSans-65" d="M 3597 1894 
L 3597 1613 
L 953 1613 
Q 991 1019 1311 708 
Q 1631 397 2203 397 
Q 2534 397 2845 478 
Q 3156 559 3463 722 
L 3463 178 
Q 3153 47 2828 -22 
Q 2503 -91 2169 -91 
Q 1331 -91 842 396 
Q 353 884 353 1716 
Q 353 2575 817 3079 
Q 1281 3584 2069 3584 
Q 2775 3584 3186 3129 
Q 3597 2675 3597 1894 
z
M 3022 2063 
Q 3016 2534 2758 2815 
Q 2500 3097 2075 3097 
Q 1594 3097 1305 2825 
Q 1016 2553 972 2059 
L 3022 2063 
z
" transform="scale(0.015625)"/>
       <path id="DejaVuSans-62" d="M 3116 1747 
Q 3116 2381 2855 2742 
Q 2594 3103 2138 3103 
Q 1681 3103 1420 2742 
Q 1159 2381 1159 1747 
Q 1159 1113 1420 752 
Q 1681 391 2138 391 
Q 2594 391 2855 752 
Q 3116 1113 3116 1747 
z
M 1159 2969 
Q 1341 3281 1617 3432 
Q 1894 3584 2278 3584 
Q 2916 3584 3314 3078 
Q 3713 2572 3713 1747 
Q 3713 922 3314 415 
Q 2916 -91 2278 -91 
Q 1894 -91 1617 61 
Q 1341 213 1159 525 
L 1159 0 
L 581 0 
L 581 4863 
L 1159 4863 
L 1159 2969 
z
" transform="scale(0.015625)"/>
      </defs>
      <use xlink:href="#DejaVuSans-41"/>
      <use xlink:href="#DejaVuSans-70" transform="translate(68.408203 0)"/>
      <use xlink:href="#DejaVuSans-70" transform="translate(131.884766 0)"/>
      <use xlink:href="#DejaVuSans-6c" transform="translate(195.361328 0)"/>
      <use xlink:href="#DejaVuSans-65" transform="translate(223.144531 0)"/>
      <use xlink:href="#DejaVuSans-62" transform="translate(284.667969 0)"/>
      <use xlink:href="#DejaVuSans-65" transform="translate(348.144531 0)"/>
      <use xlink:href="#DejaVuSans-65" transform="translate(409.667969 0)"/>
      <use xlink:href="#DejaVuSans-73" transform="translate(471.191406 0)"/>
     </g>
    </g>
    <g id="line2d_23">
     <path d="M 907.749688 57.214687 
L 917.749688 57.214687 
L 927.749688 57.214687 
" style="fill: none; stroke: #55a868; stroke-width: 1.5; stroke-linecap: square"/>
    </g>
    <g id="text_18">
     <!-- Fridays -->
     <g transform="translate(935.749688 60.714687) scale(0.1 -0.1)">
      <defs>
       <path id="DejaVuSans-46" d="M 628 4666 
L 3309 4666 
L 3309 4134 
L 1259 4134 
L 1259 2759 
L 3109 2759 
L 3109 2228 
L 1259 2228 
L 1259 0 
L 628 0 
L 628 4666 
z
" transform="scale(0.015625)"/>
       <path id="DejaVuSans-72" d="M 2631 2963 
Q 2534 3019 2420 3045 
Q 2306 3072 2169 3072 
Q 1681 3072 1420 2755 
Q 1159 2438 1159 1844 
L 1159 0 
L 581 0 
L 581 3500 
L 1159 3500 
L 1159 2956 
Q 1341 3275 1631 3429 
Q 1922 3584 2338 3584 
Q 2397 3584 2469 3576 
Q 2541 3569 2628 3553 
L 2631 2963 
z
" transform="scale(0.015625)"/>
       <path id="DejaVuSans-64" d="M 2906 2969 
L 2906 4863 
L 3481 4863 
L 3481 0 
L 2906 0 
L 2906 525 
Q 2725 213 2448 61 
Q 2172 -91 1784 -91 
Q 1150 -91 751 415 
Q 353 922 353 1747 
Q 353 2572 751 3078 
Q 1150 3584 1784 3584 
Q 2172 3584 2448 3432 
Q 2725 3281 2906 2969 
z
M 947 1747 
Q 947 1113 1208 752 
Q 1469 391 1925 391 
Q 2381 391 2643 752 
Q 2906 1113 2906 1747 
Q 2906 2381 2643 2742 
Q 2381 3103 1925 3103 
Q 1469 3103 1208 2742 
Q 947 2381 947 1747 
z
" transform="scale(0.015625)"/>
       <path id="DejaVuSans-61" d="M 2194 1759 
Q 1497 1759 1228 1600 
Q 959 1441 959 1056 
Q 959 750 1161 570 
Q 1363 391 1709 391 
Q 2188 391 2477 730 
Q 2766 1069 2766 1631 
L 2766 1759 
L 2194 1759 
z
M 3341 1997 
L 3341 0 
L 2766 0 
L 2766 531 
Q 2569 213 2275 61 
Q 1981 -91 1556 -91 
Q 1019 -91 701 211 
Q 384 513 384 1019 
Q 384 1609 779 1909 
Q 1175 2209 1959 2209 
L 2766 2209 
L 2766 2266 
Q 2766 2663 2505 2880 
Q 2244 3097 1772 3097 
Q 1472 3097 1187 3025 
Q 903 2953 641 2809 
L 641 3341 
Q 956 3463 1253 3523 
Q 1550 3584 1831 3584 
Q 2591 3584 2966 3190 
Q 3341 2797 3341 1997 
z
" transform="scale(0.015625)"/>
       <path id="DejaVuSans-79" d="M 2059 -325 
Q 1816 -950 1584 -1140 
Q 1353 -1331 966 -1331 
L 506 -1331 
L 506 -850 
L 844 -850 
Q 1081 -850 1212 -737 
Q 1344 -625 1503 -206 
L 1606 56 
L 191 3500 
L 800 3500 
L 1894 763 
L 2988 3500 
L 3597 3500 
L 2059 -325 
z
" transform="scale(0.015625)"/>
      </defs>
      <use xlink:href="#DejaVuSans-46"/>
      <use xlink:href="#DejaVuSans-72" transform="translate(50.269531 0)"/>
      <use xlink:href="#DejaVuSans-69" transform="translate(91.382812 0)"/>
      <use xlink:href="#DejaVuSans-64" transform="translate(119.166016 0)"/>
      <use xlink:href="#DejaVuSans-61" transform="translate(182.642578 0)"/>
      <use xlink:href="#DejaVuSans-79" transform="translate(243.921875 0)"/>
      <use xlink:href="#DejaVuSans-73" transform="translate(303.101562 0)"/>
     </g>
    </g>
    <g id="line2d_24">
     <path d="M 907.749688 71.892812 
L 917.749688 71.892812 
L 927.749688 71.892812 
" style="fill: none; stroke: #c44e52; stroke-width: 1.5; stroke-linecap: square"/>
    </g>
    <g id="text_19">
     <!-- Outback Steakhouse -->
     <g transform="translate(935.749688 75.392812) scale(0.1 -0.1)">
      <defs>
       <path id="DejaVuSans-4f" d="M 2522 4238 
Q 1834 4238 1429 3725 
Q 1025 3213 1025 2328 
Q 1025 1447 1429 934 
Q 1834 422 2522 422 
Q 3209 422 3611 934 
Q 4013 1447 4013 2328 
Q 4013 3213 3611 3725 
Q 3209 4238 2522 4238 
z
M 2522 4750 
Q 3503 4750 4090 4092 
Q 4678 3434 4678 2328 
Q 4678 1225 4090 567 
Q 3503 -91 2522 -91 
Q 1538 -91 948 565 
Q 359 1222 359 2328 
Q 359 3434 948 4092 
Q 1538 4750 2522 4750 
z
" transform="scale(0.015625)"/>
       <path id="DejaVuSans-75" d="M 544 1381 
L 544 3500 
L 1119 3500 
L 1119 1403 
Q 1119 906 1312 657 
Q 1506 409 1894 409 
Q 2359 409 2629 706 
Q 2900 1003 2900 1516 
L 2900 3500 
L 3475 3500 
L 3475 0 
L 2900 0 
L 2900 538 
Q 2691 219 2414 64 
Q 2138 -91 1772 -91 
Q 1169 -91 856 284 
Q 544 659 544 1381 
z
M 1991 3584 
L 1991 3584 
z
" transform="scale(0.015625)"/>
       <path id="DejaVuSans-74" d="M 1172 4494 
L 1172 3500 
L 2356 3500 
L 2356 3053 
L 1172 3053 
L 1172 1153 
Q 1172 725 1289 603 
Q 1406 481 1766 481 
L 2356 481 
L 2356 0 
L 1766 0 
Q 1100 0 847 248 
Q 594 497 594 1153 
L 594 3053 
L 172 3053 
L 172 3500 
L 594 3500 
L 594 4494 
L 1172 4494 
z
" transform="scale(0.015625)"/>
       <path id="DejaVuSans-63" d="M 3122 3366 
L 3122 2828 
Q 2878 2963 2633 3030 
Q 2388 3097 2138 3097 
Q 1578 3097 1268 2742 
Q 959 2388 959 1747 
Q 959 1106 1268 751 
Q 1578 397 2138 397 
Q 2388 397 2633 464 
Q 2878 531 3122 666 
L 3122 134 
Q 2881 22 2623 -34 
Q 2366 -91 2075 -91 
Q 1284 -91 818 406 
Q 353 903 353 1747 
Q 353 2603 823 3093 
Q 1294 3584 2113 3584 
Q 2378 3584 2631 3529 
Q 2884 3475 3122 3366 
z
" transform="scale(0.015625)"/>
       <path id="DejaVuSans-6b" d="M 581 4863 
L 1159 4863 
L 1159 1991 
L 2875 3500 
L 3609 3500 
L 1753 1863 
L 3688 0 
L 2938 0 
L 1159 1709 
L 1159 0 
L 581 0 
L 581 4863 
z
" transform="scale(0.015625)"/>
       <path id="DejaVuSans-20" transform="scale(0.015625)"/>
       <path id="DejaVuSans-53" d="M 3425 4513 
L 3425 3897 
Q 3066 4069 2747 4153 
Q 2428 4238 2131 4238 
Q 1616 4238 1336 4038 
Q 1056 3838 1056 3469 
Q 1056 3159 1242 3001 
Q 1428 2844 1947 2747 
L 2328 2669 
Q 3034 2534 3370 2195 
Q 3706 1856 3706 1288 
Q 3706 609 3251 259 
Q 2797 -91 1919 -91 
Q 1588 -91 1214 -16 
Q 841 59 441 206 
L 441 856 
Q 825 641 1194 531 
Q 1563 422 1919 422 
Q 2459 422 2753 634 
Q 3047 847 3047 1241 
Q 3047 1584 2836 1778 
Q 2625 1972 2144 2069 
L 1759 2144 
Q 1053 2284 737 2584 
Q 422 2884 422 3419 
Q 422 4038 858 4394 
Q 1294 4750 2059 4750 
Q 2388 4750 2728 4690 
Q 3069 4631 3425 4513 
z
" transform="scale(0.015625)"/>
       <path id="DejaVuSans-6f" d="M 1959 3097 
Q 1497 3097 1228 2736 
Q 959 2375 959 1747 
Q 959 1119 1226 758 
Q 1494 397 1959 397 
Q 2419 397 2687 759 
Q 2956 1122 2956 1747 
Q 2956 2369 2687 2733 
Q 2419 3097 1959 3097 
z
M 1959 3584 
Q 2709 3584 3137 3096 
Q 3566 2609 3566 1747 
Q 3566 888 3137 398 
Q 2709 -91 1959 -91 
Q 1206 -91 779 398 
Q 353 888 353 1747 
Q 353 2609 779 3096 
Q 1206 3584 1959 3584 
z
" transform="scale(0.015625)"/>
      </defs>
      <use xlink:href="#DejaVuSans-4f"/>
      <use xlink:href="#DejaVuSans-75" transform="translate(78.710938 0)"/>
      <use xlink:href="#DejaVuSans-74" transform="translate(142.089844 0)"/>
      <use xlink:href="#DejaVuSans-62" transform="translate(181.298828 0)"/>
      <use xlink:href="#DejaVuSans-61" transform="translate(244.775391 0)"/>
      <use xlink:href="#DejaVuSans-63" transform="translate(306.054688 0)"/>
      <use xlink:href="#DejaVuSans-6b" transform="translate(361.035156 0)"/>
      <use xlink:href="#DejaVuSans-20" transform="translate(418.945312 0)"/>
      <use xlink:href="#DejaVuSans-53" transform="translate(450.732422 0)"/>
      <use xlink:href="#DejaVuSans-74" transform="translate(514.208984 0)"/>
      <use xlink:href="#DejaVuSans-65" transform="translate(553.417969 0)"/>
      <use xlink:href="#DejaVuSans-61" transform="translate(614.941406 0)"/>
      <use xlink:href="#DejaVuSans-6b" transform="translate(676.220703 0)"/>
      <use xlink:href="#DejaVuSans-68" transform="translate(734.130859 0)"/>
      <use xlink:href="#DejaVuSans-6f" transform="translate(797.509766 0)"/>
      <use xlink:href="#DejaVuSans-75" transform="translate(858.691406 0)"/>
      <use xlink:href="#DejaVuSans-73" transform="translate(922.070312 0)"/>
      <use xlink:href="#DejaVuSans-65" transform="translate(974.169922 0)"/>
     </g>
    </g>
    <g id="line2d_25">
     <path d="M 907.749688 86.570938 
L 917.749688 86.570938 
L 927.749688 86.570938 
" style="fill: none; stroke: #8172b2; stroke-width: 1.5; stroke-linecap: square"/>
    </g>
    <g id="text_20">
     <!-- Red Robin -->
     <g transform="translate(935.749688 90.070938) scale(0.1 -0.1)">
      <defs>
       <path id="DejaVuSans-52" d="M 2841 2188 
Q 3044 2119 3236 1894 
Q 3428 1669 3622 1275 
L 4263 0 
L 3584 0 
L 2988 1197 
Q 2756 1666 2539 1819 
Q 2322 1972 1947 1972 
L 1259 1972 
L 1259 0 
L 628 0 
L 628 4666 
L 2053 4666 
Q 2853 4666 3247 4331 
Q 3641 3997 3641 3322 
Q 3641 2881 3436 2590 
Q 3231 2300 2841 2188 
z
M 1259 4147 
L 1259 2491 
L 2053 2491 
Q 2509 2491 2742 2702 
Q 2975 2913 2975 3322 
Q 2975 3731 2742 3939 
Q 2509 4147 2053 4147 
L 1259 4147 
z
" transform="scale(0.015625)"/>
       <path id="DejaVuSans-6e" d="M 3513 2113 
L 3513 0 
L 2938 0 
L 2938 2094 
Q 2938 2591 2744 2837 
Q 2550 3084 2163 3084 
Q 1697 3084 1428 2787 
Q 1159 2491 1159 1978 
L 1159 0 
L 581 0 
L 581 3500 
L 1159 3500 
L 1159 2956 
Q 1366 3272 1645 3428 
Q 1925 3584 2291 3584 
Q 2894 3584 3203 3211 
Q 3513 2838 3513 2113 
z
" transform="scale(0.015625)"/>
      </defs>
      <use xlink:href="#DejaVuSans-52"/>
      <use xlink:href="#DejaVuSans-65" transform="translate(64.982422 0)"/>
      <use xlink:href="#DejaVuSans-64" transform="translate(126.505859 0)"/>
      <use xlink:href="#DejaVuSans-20" transform="translate(189.982422 0)"/>
      <use xlink:href="#DejaVuSans-52" transform="translate(221.769531 0)"/>
      <use xlink:href="#DejaVuSans-6f" transform="translate(286.751953 0)"/>
      <use xlink:href="#DejaVuSans-62" transform="translate(347.933594 0)"/>
      <use xlink:href="#DejaVuSans-69" transform="translate(411.410156 0)"/>
      <use xlink:href="#DejaVuSans-6e" transform="translate(439.193359 0)"/>
     </g>
    </g>
   </g>
  </g>
 </g>
 <defs>
  <clipPath id="p656b98b834">
   <rect x="36.925" y="14.76" width="1011.395" height="317.36"/>
  </clipPath>
 </defs>
</svg>
