<?xml version="1.0" encoding="utf-8" standalone="no"?>
<!DOCTYPE svg PUBLIC "-//W3C//DTD SVG 1.1//EN"
  "http://www.w3.org/Graphics/SVG/1.1/DTD/svg11.dtd">
<svg xmlns:xlink="http://www.w3.org/1999/xlink" width="1080pt" height="360pt" viewBox="0 0 1080 360" xmlns="http://www.w3.org/2000/svg" version="1.1">
 <metadata>
  <rdf:RDF xmlns:dc="http://purl.org/dc/elements/1.1/" xmlns:cc="http://creativecommons.org/ns#" xmlns:rdf="http://www.w3.org/1999/02/22-rdf-syntax-ns#">
   <cc:Work>
    <dc:type rdf:resource="http://purl.org/dc/dcmitype/StillImage"/>
    <dc:date>2026-03-26T19:02:24.013007</dc:date>
    <dc:format>image/svg+xml</dc:format>
    <dc:creator>
     <cc:Agent>
      <dc:title>Matplotlib v3.10.0, https://matplotlib.org/</dc:title>
     </cc:Agent>
    </dc:creator>
   </cc:Work>
  </rdf:RDF>
 </metadata>
 <defs>
  <style type="text/css">*{stroke-linejoin: round; stroke-linecap: butt}</style>
 </defs>
 <g id="figure_1">
  <g id="patch_1">
   <path d="M 0 360 
L 1080 360 
L 1080 0 
L 0 0 
z
" style="fill: #ffffff"/>
  </g>
  <g id="axes_1">
   <g id="patch_2">
    <path d="M 38.905 332.12 
L 1048.32 332.12 
L 1048.32 14.76 
L 38.905 14.76 
z
" style="fill: #ffffff"/>
   </g>
   <g id="matplotlib.axis_1">
    <g id="xtick_1">
     <g id="line2d_1">
      <defs>
       <path id="m2ba4e7a289" d="M 0 0 
L 0 3.5 
" style="stroke: #000000; stroke-width: 0.8"/>
      </defs>
      <g>
       <use xlink:href="#m2ba4e7a289" x="38.905" y="332.12" style="stroke: #000000; stroke-width: 0.8"/>
      </g>
     </g>
     <g id="text_1">
      <!-- 2022-01 -->
      <g transform="translate(18.013594 346.718437) scale(0.1 -0.1)">
       <defs>
        <path id="DejaVuSans-32" d="M 1228 531 
L 3431 531 
L 3431 0 
L 469 0 
L 469 531 
Q 828 903 1448 1529 
Q 2069 2156 2228 2338 
Q 2531 2678 2651 2914 
Q 2772 3150 2772 3378 
Q 2772 3750 2511 3984 
Q 2250 4219 1831 4219 
Q 1534 4219 1204 4116 
Q 875 4013 500 3803 
L 500 4441 
Q 881 4594 1212 4672 
Q 1544 4750 1819 4750 
Q 2544 4750 2975 4387 
Q 3406 4025 3406 3419 
Q 3406 3131 3298 2873 
Q 3191 2616 2906 2266 
Q 2828 2175 2409 1742 
Q 1991 1309 1228 531 
z
" transform="scale(0.015625)"/>
        <path id="DejaVuSans-30" d="M 2034 4250 
Q 1547 4250 1301 3770 
Q 1056 3291 1056 2328 
Q 1056 1369 1301 889 
Q 1547 409 2034 409 
Q 2525 409 2770 889 
Q 3016 1369 3016 2328 
Q 3016 3291 2770 3770 
Q 2525 4250 2034 4250 
z
M 2034 4750 
Q 2819 4750 3233 4129 
Q 3647 3509 3647 2328 
Q 3647 1150 3233 529 
Q 2819 -91 2034 -91 
Q 1250 -91 836 529 
Q 422 1150 422 2328 
Q 422 3509 836 4129 
Q 1250 4750 2034 4750 
z
" transform="scale(0.015625)"/>
        <path id="DejaVuSans-2d" d="M 313 2009 
L 1997 2009 
L 1997 1497 
L 313 1497 
L 313 2009 
z
" transform="scale(0.015625)"/>
        <path id="DejaVuSans-31" d="M 794 531 
L 1825 531 
L 1825 4091 
L 703 3866 
L 703 4441 
L 1819 4666 
L 2450 4666 
L 2450 531 
L 3481 531 
L 3481 0 
L 794 0 
L 794 531 
z
" transform="scale(0.015625)"/>
       </defs>
       <use xlink:href="#DejaVuSans-32"/>
       <use xlink:href="#DejaVuSans-30" transform="translate(63.623047 0)"/>
       <use xlink:href="#DejaVuSans-32" transform="translate(127.246094 0)"/>
       <use xlink:href="#DejaVuSans-32" transform="translate(190.869141 0)"/>
       <use xlink:href="#DejaVuSans-2d" transform="translate(254.492188 0)"/>
       <use xlink:href="#DejaVuSans-30" transform="translate(290.576172 0)"/>
       <use xlink:href="#DejaVuSans-31" transform="translate(354.199219 0)"/>
      </g>
     </g>
    </g>
    <g id="xtick_2">
     <g id="line2d_2">
      <g>
       <use xlink:href="#m2ba4e7a289" x="163.959151" y="332.12" style="stroke: #000000; stroke-width: 0.8"/>
      </g>
     </g>
     <g id="text_2">
      <!-- 2022-07 -->
      <g transform="translate(143.067745 346.718437) scale(0.1 -0.1)">
       <defs>
        <path id="DejaVuSans-37" d="M 525 4666 
L 3525 4666 
L 3525 4397 
L 1831 0 
L 1172 0 
L 2766 4134 
L 525 4134 
L 525 4666 
z
" transform="scale(0.015625)"/>
       </defs>
       <use xlink:href="#DejaVuSans-32"/>
       <use xlink:href="#DejaVuSans-30" transform="translate(63.623047 0)"/>
       <use xlink:href="#DejaVuSans-32" transform="translate(127.246094 0)"/>
       <use xlink:href="#DejaVuSans-32" transform="translate(190.869141 0)"/>
       <use xlink:href="#DejaVuSans-2d" transform="translate(254.492188 0)"/>
       <use xlink:href="#DejaVuSans-30" transform="translate(290.576172 0)"/>
       <use xlink:href="#DejaVuSans-37" transform="translate(354.199219 0)"/>
      </g>
     </g>
    </g>
    <g id="xtick_3">
     <g id="line2d_3">
      <g>
       <use xlink:href="#m2ba4e7a289" x="291.086023" y="332.12" style="stroke: #000000; stroke-width: 0.8"/>
      </g>
     </g>
     <g id="text_3">
      <!-- 2023-01 -->
      <g transform="translate(270.194617 346.718437) scale(0.1 -0.1)">
       <defs>
        <path id="DejaVuSans-33" d="M 2597 2516 
Q 3050 2419 3304 2112 
Q 3559 1806 3559 1356 
Q 3559 666 3084 287 
Q 2609 -91 1734 -91 
Q 1441 -91 1130 -33 
Q 819 25 488 141 
L 488 750 
Q 750 597 1062 519 
Q 1375 441 1716 441 
Q 2309 441 2620 675 
Q 2931 909 2931 1356 
Q 2931 1769 2642 2001 
Q 2353 2234 1838 2234 
L 1294 2234 
L 1294 2753 
L 1863 2753 
Q 2328 2753 2575 2939 
Q 2822 3125 2822 3475 
Q 2822 3834 2567 4026 
Q 2313 4219 1838 4219 
Q 1578 4219 1281 4162 
Q 984 4106 628 3988 
L 628 4550 
Q 988 4650 1302 4700 
Q 1616 4750 1894 4750 
Q 2613 4750 3031 4423 
Q 3450 4097 3450 3541 
Q 3450 3153 3228 2886 
Q 3006 2619 2597 2516 
z
" transform="scale(0.015625)"/>
       </defs>
       <use xlink:href="#DejaVuSans-32"/>
       <use xlink:href="#DejaVuSans-30" transform="translate(63.623047 0)"/>
       <use xlink:href="#DejaVuSans-32" transform="translate(127.246094 0)"/>
       <use xlink:href="#DejaVuSans-33" transform="translate(190.869141 0)"/>
       <use xlink:href="#DejaVuSans-2d" transform="translate(254.492188 0)"/>
       <use xlink:href="#DejaVuSans-30" transform="translate(290.576172 0)"/>
       <use xlink:href="#DejaVuSans-31" transform="translate(354.199219 0)"/>
      </g>
     </g>
    </g>
    <g id="xtick_4">
     <g id="line2d_4">
      <g>
       <use xlink:href="#m2ba4e7a289" x="416.140175" y="332.12" style="stroke: #000000; stroke-width: 0.8"/>
      </g>
     </g>
     <g id="text_4">
      <!-- 2023-07 -->
      <g transform="translate(395.248768 346.718437) scale(0.1 -0.1)">
       <use xlink:href="#DejaVuSans-32"/>
       <use xlink:href="#DejaVuSans-30" transform="translate(63.623047 0)"/>
       <use xlink:href="#DejaVuSans-32" transform="translate(127.246094 0)"/>
       <use xlink:href="#DejaVuSans-33" transform="translate(190.869141 0)"/>
       <use xlink:href="#DejaVuSans-2d" transform="translate(254.492188 0)"/>
       <use xlink:href="#DejaVuSans-30" transform="translate(290.576172 0)"/>
       <use xlink:href="#DejaVuSans-37" transform="translate(354.199219 0)"/>
      </g>
     </g>
    </g>
    <g id="xtick_5">
     <g id="line2d_5">
      <g>
       <use xlink:href="#m2ba4e7a289" x="543.267047" y="332.12" style="stroke: #000000; stroke-width: 0.8"/>
      </g>
     </g>
     <g id="text_5">
      <!-- 2024-01 -->
      <g transform="translate(522.37564 346.718437) scale(0.1 -0.1)">
       <defs>
        <path id="DejaVuSans-34" d="M 2419 4116 
L 825 1625 
L 2419 1625 
L 2419 4116 
z
M 2253 4666 
L 3047 4666 
L 3047 1625 
L 3713 1625 
L 3713 1100 
L 3047 1100 
L 3047 0 
L 2419 0 
L 2419 1100 
L 313 1100 
L 313 1709 
L 2253 4666 
z
" transform="scale(0.015625)"/>
       </defs>
       <use xlink:href="#DejaVuSans-32"/>
       <use xlink:href="#DejaVuSans-30" transform="translate(63.623047 0)"/>
       <use xlink:href="#DejaVuSans-32" transform="translate(127.246094 0)"/>
       <use xlink:href="#DejaVuSans-34" transform="translate(190.869141 0)"/>
       <use xlink:href="#DejaVuSans-2d" transform="translate(254.492188 0)"/>
       <use xlink:href="#DejaVuSans-30" transform="translate(290.576172 0)"/>
       <use xlink:href="#DejaVuSans-31" transform="translate(354.199219 0)"/>
      </g>
     </g>
    </g>
    <g id="xtick_6">
     <g id="line2d_6">
      <g>
       <use xlink:href="#m2ba4e7a289" x="669.012105" y="332.12" style="stroke: #000000; stroke-width: 0.8"/>
      </g>
     </g>
     <g id="text_6">
      <!-- 2024-07 -->
      <g transform="translate(648.120698 346.718437) scale(0.1 -0.1)">
       <use xlink:href="#DejaVuSans-32"/>
       <use xlink:href="#DejaVuSans-30" transform="translate(63.623047 0)"/>
       <use xlink:href="#DejaVuSans-32" transform="translate(127.246094 0)"/>
       <use xlink:href="#DejaVuSans-34" transform="translate(190.869141 0)"/>
       <use xlink:href="#DejaVuSans-2d" transform="translate(254.492188 0)"/>
       <use xlink:href="#DejaVuSans-30" transform="translate(290.576172 0)"/>
       <use xlink:href="#DejaVuSans-37" transform="translate(354.199219 0)"/>
      </g>
     </g>
    </g>
    <g id="xtick_7">
     <g id="line2d_7">
      <g>
       <use xlink:href="#m2ba4e7a289" x="796.138977" y="332.12" style="stroke: #000000; stroke-width: 0.8"/>
      </g>
     </g>
     <g id="text_7">
      <!-- 2025-01 -->
      <g transform="translate(775.24757 346.718437) scale(0.1 -0.1)">
       <defs>
        <path id="DejaVuSans-35" d="M 691 4666 
L 3169 4666 
L 3169 4134 
L 1269 4134 
L 1269 2991 
Q 1406 3038 1543 3061 
Q 1681 3084 1819 3084 
Q 2600 3084 3056 2656 
Q 3513 2228 3513 1497 
Q 3513 744 3044 326 
Q 2575 -91 1722 -91 
Q 1428 -91 1123 -41 
Q 819 9 494 109 
L 494 744 
Q 775 591 1075 516 
Q 1375 441 1709 441 
Q 2250 441 2565 725 
Q 2881 1009 2881 1497 
Q 2881 1984 2565 2268 
Q 2250 2553 1709 2553 
Q 1456 2553 1204 2497 
Q 953 2441 691 2322 
L 691 4666 
z
" transform="scale(0.015625)"/>
       </defs>
       <use xlink:href="#DejaVuSans-32"/>
       <use xlink:href="#DejaVuSans-30" transform="translate(63.623047 0)"/>
       <use xlink:href="#DejaVuSans-32" transform="translate(127.246094 0)"/>
       <use xlink:href="#DejaVuSans-35" transform="translate(190.869141 0)"/>
       <use xlink:href="#DejaVuSans-2d" transform="translate(254.492188 0)"/>
       <use xlink:href="#DejaVuSans-30" transform="translate(290.576172 0)"/>
       <use xlink:href="#DejaVuSans-31" transform="translate(354.199219 0)"/>
      </g>
     </g>
    </g>
    <g id="xtick_8">
     <g id="line2d_8">
      <g>
       <use xlink:href="#m2ba4e7a289" x="921.193128" y="332.12" style="stroke: #000000; stroke-width: 0.8"/>
      </g>
     </g>
     <g id="text_8">
      <!-- 2025-07 -->
      <g transform="translate(900.301722 346.718437) scale(0.1 -0.1)">
       <use xlink:href="#DejaVuSans-32"/>
       <use xlink:href="#DejaVuSans-30" transform="translate(63.623047 0)"/>
       <use xlink:href="#DejaVuSans-32" transform="translate(127.246094 0)"/>
       <use xlink:href="#DejaVuSans-35" transform="translate(190.869141 0)"/>
       <use xlink:href="#DejaVuSans-2d" transform="translate(254.492188 0)"/>
       <use xlink:href="#DejaVuSans-30" transform="translate(290.576172 0)"/>
       <use xlink:href="#DejaVuSans-37" transform="translate(354.199219 0)"/>
      </g>
     </g>
    </g>
    <g id="xtick_9">
     <g id="line2d_9">
      <g>
       <use xlink:href="#m2ba4e7a289" x="1048.32" y="332.12" style="stroke: #000000; stroke-width: 0.8"/>
      </g>
     </g>
     <g id="text_9">
      <!-- 2026-01 -->
      <g transform="translate(1027.428594 346.718437) scale(0.1 -0.1)">
       <defs>
        <path id="DejaVuSans-36" d="M 2113 2584 
Q 1688 2584 1439 2293 
Q 1191 2003 1191 1497 
Q 1191 994 1439 701 
Q 1688 409 2113 409 
Q 2538 409 2786 701 
Q 3034 994 3034 1497 
Q 3034 2003 2786 2293 
Q 2538 2584 2113 2584 
z
M 3366 4563 
L 3366 3988 
Q 3128 4100 2886 4159 
Q 2644 4219 2406 4219 
Q 1781 4219 1451 3797 
Q 1122 3375 1075 2522 
Q 1259 2794 1537 2939 
Q 1816 3084 2150 3084 
Q 2853 3084 3261 2657 
Q 3669 2231 3669 1497 
Q 3669 778 3244 343 
Q 2819 -91 2113 -91 
Q 1303 -91 875 529 
Q 447 1150 447 2328 
Q 447 3434 972 4092 
Q 1497 4750 2381 4750 
Q 2619 4750 2861 4703 
Q 3103 4656 3366 4563 
z
" transform="scale(0.015625)"/>
       </defs>
       <use xlink:href="#DejaVuSans-32"/>
       <use xlink:href="#DejaVuSans-30" transform="translate(63.623047 0)"/>
       <use xlink:href="#DejaVuSans-32" transform="translate(127.246094 0)"/>
       <use xlink:href="#DejaVuSans-36" transform="translate(190.869141 0)"/>
       <use xlink:href="#DejaVuSans-2d" transform="translate(254.492188 0)"/>
       <use xlink:href="#DejaVuSans-30" transform="translate(290.576172 0)"/>
       <use xlink:href="#DejaVuSans-31" transform="translate(354.199219 0)"/>
      </g>
     </g>
    </g>
   </g>
   <g id="matplotlib.axis_2">
    <g id="ytick_1">
     <g id="line2d_10">
      <defs>
       <path id="mcb07b08443" d="M 0 0 
L -3.5 0 
" style="stroke: #000000; stroke-width: 0.8"/>
      </defs>
      <g>
       <use xlink:href="#mcb07b08443" x="38.905" y="332.12" style="stroke: #000000; stroke-width: 0.8"/>
      </g>
     </g>
     <g id="text_10">
      <!-- −60 -->
      <g transform="translate(10.800313 335.919219) scale(0.1 -0.1)">
       <defs>
        <path id="DejaVuSans-2212" d="M 678 2272 
L 4684 2272 
L 4684 1741 
L 678 1741 
L 678 2272 
z
" transform="scale(0.015625)"/>
       </defs>
       <use xlink:href="#DejaVuSans-2212"/>
       <use xlink:href="#DejaVuSans-36" transform="translate(83.789062 0)"/>
       <use xlink:href="#DejaVuSans-30" transform="translate(147.412109 0)"/>
      </g>
     </g>
    </g>
    <g id="ytick_2">
     <g id="line2d_11">
      <g>
       <use xlink:href="#mcb07b08443" x="38.905" y="279.226667" style="stroke: #000000; stroke-width: 0.8"/>
      </g>
     </g>
     <g id="text_11">
      <!-- −40 -->
      <g transform="translate(10.800313 283.025885) scale(0.1 -0.1)">
       <use xlink:href="#DejaVuSans-2212"/>
       <use xlink:href="#DejaVuSans-34" transform="translate(83.789062 0)"/>
       <use xlink:href="#DejaVuSans-30" transform="translate(147.412109 0)"/>
      </g>
     </g>
    </g>
    <g id="ytick_3">
     <g id="line2d_12">
      <g>
       <use xlink:href="#mcb07b08443" x="38.905" y="226.333333" style="stroke: #000000; stroke-width: 0.8"/>
      </g>
     </g>
     <g id="text_12">
      <!-- −20 -->
      <g transform="translate(10.800313 230.132552) scale(0.1 -0.1)">
       <use xlink:href="#DejaVuSans-2212"/>
       <use xlink:href="#DejaVuSans-32" transform="translate(83.789062 0)"/>
       <use xlink:href="#DejaVuSans-30" transform="translate(147.412109 0)"/>
      </g>
     </g>
    </g>
    <g id="ytick_4">
     <g id="line2d_13">
      <g>
       <use xlink:href="#mcb07b08443" x="38.905" y="173.44" style="stroke: #000000; stroke-width: 0.8"/>
      </g>
     </g>
     <g id="text_13">
      <!-- 0 -->
      <g transform="translate(25.5425 177.239219) scale(0.1 -0.1)">
       <use xlink:href="#DejaVuSans-30"/>
      </g>
     </g>
    </g>
    <g id="ytick_5">
     <g id="line2d_14">
      <g>
       <use xlink:href="#mcb07b08443" x="38.905" y="120.546667" style="stroke: #000000; stroke-width: 0.8"/>
      </g>
     </g>
     <g id="text_14">
      <!-- 20 -->
      <g transform="translate(19.18 124.345885) scale(0.1 -0.1)">
       <use xlink:href="#DejaVuSans-32"/>
       <use xlink:href="#DejaVuSans-30" transform="translate(63.623047 0)"/>
      </g>
     </g>
    </g>
    <g id="ytick_6">
     <g id="line2d_15">
      <g>
       <use xlink:href="#mcb07b08443" x="38.905" y="67.653333" style="stroke: #000000; stroke-width: 0.8"/>
      </g>
     </g>
     <g id="text_15">
      <!-- 40 -->
      <g transform="translate(19.18 71.452552) scale(0.1 -0.1)">
       <use xlink:href="#DejaVuSans-34"/>
       <use xlink:href="#DejaVuSans-30" transform="translate(63.623047 0)"/>
      </g>
     </g>
    </g>
    <g id="ytick_7">
     <g id="line2d_16">
      <g>
       <use xlink:href="#mcb07b08443" x="38.905" y="14.76" style="stroke: #000000; stroke-width: 0.8"/>
      </g>
     </g>
     <g id="text_16">
      <!-- 60 -->
      <g transform="translate(19.18 18.559219) scale(0.1 -0.1)">
       <use xlink:href="#DejaVuSans-36"/>
       <use xlink:href="#DejaVuSans-30" transform="translate(63.623047 0)"/>
      </g>
     </g>
    </g>
   </g>
   <g id="line2d_17">
    <path d="M 78.286694 156.09754 
L 83.123042 164.03154 
L 87.959391 153.452873 
L 92.795739 166.676206 
L 97.632088 169.320873 
L 102.468436 171.96554 
L 107.304784 171.96554 
L 112.141133 171.96554 
L 116.977481 174.610206 
L 121.81383 166.676206 
L 126.650178 161.386873 
L 131.486526 174.610206 
L 136.322875 169.320873 
L 141.159223 166.676206 
L 145.995572 169.320873 
L 150.83192 169.320873 
L 155.668268 166.676206 
L 160.504617 174.610206 
L 165.340965 169.320873 
L 170.177313 174.610206 
L 175.013662 174.610206 
L 179.85001 171.96554 
L 184.686359 169.320873 
L 189.522707 177.254873 
L 194.359055 174.610206 
L 199.195404 182.544206 
L 204.031752 179.89954 
L 208.868101 174.610206 
L 213.704449 179.89954 
L 218.540797 182.544206 
L 223.377146 182.544206 
L 228.213494 193.122873 
L 233.049843 182.544206 
L 237.886191 182.544206 
L 242.722539 182.544206 
L 247.558888 179.89954 
L 252.395236 161.386873 
L 257.231585 182.544206 
L 262.067933 190.478206 
L 266.904281 190.478206 
L 271.74063 182.544206 
L 276.576978 179.89954 
L 281.413326 166.676206 
L 286.249675 153.452873 
L 291.086023 158.742206 
L 295.922372 174.610206 
L 300.75872 174.610206 
L 305.595068 179.89954 
L 310.431417 179.89954 
L 315.267765 179.89954 
L 320.104114 164.03154 
L 324.940462 169.320873 
L 329.77681 171.96554 
L 334.613159 164.03154 
L 339.449507 150.808206 
L 344.285856 164.03154 
L 349.122204 169.320873 
L 353.958552 171.96554 
L 358.794901 177.254873 
L 363.631249 174.610206 
L 368.467598 177.254873 
L 373.303946 179.89954 
L 378.140294 177.254873 
L 382.976643 164.03154 
L 387.812991 174.610206 
L 392.649339 174.610206 
L 397.485688 174.610206 
L 402.322036 174.610206 
L 407.158385 169.320873 
L 411.994733 174.610206 
L 416.831081 169.320873 
L 421.66743 171.96554 
L 426.503778 171.96554 
L 431.340127 171.96554 
L 436.176475 174.610206 
L 441.012823 171.96554 
L 445.849172 177.254873 
L 450.68552 185.188873 
L 455.521869 187.83354 
L 460.358217 179.89954 
L 465.194565 193.122873 
L 470.030914 182.544206 
L 474.867262 177.254873 
L 479.703611 171.96554 
L 484.539959 164.03154 
L 489.376307 164.03154 
L 494.212656 166.676206 
L 499.049004 177.254873 
L 503.885352 158.742206 
L 508.721701 177.254873 
L 513.558049 187.83354 
L 518.394398 190.478206 
L 523.230746 182.544206 
L 528.067094 185.188873 
L 532.903443 174.610206 
L 537.739791 174.610206 
L 542.57614 164.03154 
L 547.412488 185.188873 
L 552.248836 177.254873 
L 557.085185 171.96554 
L 561.921533 179.89954 
L 566.757882 179.89954 
L 571.59423 171.96554 
L 576.430578 164.03154 
L 581.266927 169.320873 
L 586.103275 169.320873 
L 590.939624 158.742206 
L 595.775972 169.320873 
L 600.61232 164.03154 
L 605.448669 161.386873 
L 610.285017 177.254873 
L 615.121366 171.96554 
L 619.957714 166.676206 
" clip-path="url(#p1a15a7f383)" style="fill: none; stroke: #ff0000; stroke-width: 1.5; stroke-linecap: square"/>
   </g>
   <g id="line2d_18">
    <path d="M 78.286694 148.023115 
L 83.123042 158.601782 
L 87.959391 140.089115 
L 92.795739 158.601782 
L 97.632088 161.246448 
L 102.468436 158.601782 
L 107.304784 158.601782 
L 112.141133 163.891115 
L 116.977481 174.469782 
L 121.81383 169.180448 
L 126.650178 161.246448 
L 131.486526 179.759115 
L 136.322875 171.825115 
L 141.159223 163.891115 
L 145.995572 171.825115 
L 150.83192 177.114448 
L 155.668268 155.957115 
L 160.504617 174.469782 
L 165.340965 155.957115 
L 170.177313 169.180448 
L 175.013662 155.957115 
L 179.85001 169.180448 
L 184.686359 171.825115 
L 189.522707 171.825115 
L 194.359055 179.759115 
L 199.195404 187.693115 
L 204.031752 179.759115 
L 208.868101 145.378448 
L 213.704449 171.825115 
L 218.540797 155.957115 
L 223.377146 174.469782 
L 228.213494 190.337782 
L 233.049843 174.469782 
L 237.886191 174.469782 
L 242.722539 179.759115 
L 247.558888 185.048448 
L 252.395236 158.601782 
L 257.231585 192.982448 
L 262.067933 182.403782 
L 266.904281 198.271782 
L 271.74063 187.693115 
L 276.576978 185.048448 
L 281.413326 179.759115 
L 286.249675 148.023115 
L 291.086023 171.825115 
L 295.922372 166.535782 
L 300.75872 145.378448 
L 305.595068 163.891115 
L 310.431417 158.601782 
L 315.267765 169.180448 
L 320.104114 153.312448 
L 324.940462 171.825115 
L 329.77681 177.114448 
L 334.613159 182.403782 
L 339.449507 174.469782 
L 344.285856 185.048448 
L 349.122204 192.982448 
L 353.958552 187.693115 
L 358.794901 190.337782 
L 363.631249 190.337782 
L 368.467598 192.982448 
L 373.303946 203.561115 
L 378.140294 198.271782 
L 382.976643 179.759115 
L 387.812991 185.048448 
L 392.649339 174.469782 
L 397.485688 171.825115 
L 402.322036 179.759115 
L 407.158385 179.759115 
L 411.994733 182.403782 
L 416.831081 177.114448 
L 421.66743 190.337782 
L 426.503778 187.693115 
L 431.340127 192.982448 
L 436.176475 195.627115 
L 441.012823 182.403782 
L 445.849172 134.799782 
L 450.68552 155.957115 
L 455.521869 171.825115 
L 460.358217 177.114448 
L 465.194565 187.693115 
L 470.030914 185.048448 
L 474.867262 195.627115 
L 479.703611 129.510448 
L 484.539959 103.063782 
L 489.376307 148.023115 
L 494.212656 169.180448 
L 499.049004 182.403782 
L 503.885352 166.535782 
L 508.721701 190.337782 
L 513.558049 187.693115 
L 518.394398 198.271782 
L 523.230746 198.271782 
L 528.067094 198.271782 
L 532.903443 187.693115 
L 537.739791 161.246448 
L 542.57614 177.114448 
L 547.412488 182.403782 
L 552.248836 142.733782 
L 557.085185 129.510448 
L 561.921533 171.825115 
L 566.757882 179.759115 
L 571.59423 174.469782 
L 576.430578 169.180448 
L 581.266927 177.114448 
L 586.103275 169.180448 
L 590.939624 182.403782 
L 595.775972 179.759115 
L 600.61232 171.825115 
L 605.448669 177.114448 
L 610.285017 185.048448 
L 615.121366 185.048448 
L 619.957714 187.693115 
" clip-path="url(#p1a15a7f383)" style="fill: none; stroke: #4c72b0; stroke-width: 1.5; stroke-linecap: square"/>
   </g>
   <g id="line2d_19">
    <path d="M 78.286694 164.406006 
L 83.123042 164.406006 
L 87.959391 161.761339 
L 92.795739 164.406006 
L 97.632088 167.050673 
L 102.468436 167.050673 
L 107.304784 167.050673 
L 112.141133 169.695339 
L 116.977481 167.050673 
L 121.81383 164.406006 
L 126.650178 164.406006 
L 131.486526 169.695339 
L 136.322875 169.695339 
L 141.159223 169.695339 
L 145.995572 169.695339 
L 150.83192 169.695339 
L 155.668268 167.050673 
L 160.504617 169.695339 
L 165.340965 167.050673 
L 170.177313 167.050673 
L 175.013662 167.050673 
L 179.85001 169.695339 
L 184.686359 169.695339 
L 189.522707 172.340006 
L 194.359055 169.695339 
L 199.195404 172.340006 
L 204.031752 172.340006 
L 208.868101 172.340006 
L 213.704449 172.340006 
L 218.540797 174.984673 
L 223.377146 174.984673 
L 228.213494 177.629339 
L 233.049843 174.984673 
L 237.886191 169.695339 
L 242.722539 174.984673 
L 247.558888 180.274006 
L 252.395236 174.984673 
L 257.231585 177.629339 
L 262.067933 177.629339 
L 266.904281 180.274006 
L 271.74063 174.984673 
L 276.576978 177.629339 
L 281.413326 177.629339 
L 286.249675 164.406006 
L 291.086023 174.984673 
L 295.922372 177.629339 
L 300.75872 174.984673 
L 305.595068 177.629339 
L 310.431417 174.984673 
L 315.267765 174.984673 
L 320.104114 169.695339 
L 324.940462 172.340006 
L 329.77681 174.984673 
L 334.613159 172.340006 
L 339.449507 172.340006 
L 344.285856 172.340006 
L 349.122204 174.984673 
L 353.958552 172.340006 
L 358.794901 172.340006 
L 363.631249 172.340006 
L 368.467598 172.340006 
L 373.303946 169.695339 
L 378.140294 172.340006 
L 382.976643 169.695339 
L 387.812991 174.984673 
L 392.649339 172.340006 
L 397.485688 172.340006 
L 402.322036 172.340006 
L 407.158385 169.695339 
L 411.994733 167.050673 
L 416.831081 169.695339 
L 421.66743 172.340006 
L 426.503778 172.340006 
L 431.340127 169.695339 
L 436.176475 172.340006 
L 441.012823 177.629339 
L 445.849172 174.984673 
L 450.68552 177.629339 
L 455.521869 177.629339 
L 460.358217 177.629339 
L 465.194565 177.629339 
L 470.030914 177.629339 
L 474.867262 177.629339 
L 479.703611 177.629339 
L 484.539959 177.629339 
L 489.376307 174.984673 
L 494.212656 177.629339 
L 499.049004 177.629339 
L 503.885352 177.629339 
L 508.721701 177.629339 
L 513.558049 177.629339 
L 518.394398 180.274006 
L 523.230746 177.629339 
L 528.067094 177.629339 
L 532.903443 177.629339 
L 537.739791 169.695339 
L 542.57614 151.182673 
L 547.412488 180.274006 
L 552.248836 180.274006 
L 557.085185 180.274006 
L 561.921533 180.274006 
L 566.757882 180.274006 
L 571.59423 177.629339 
L 576.430578 174.984673 
L 581.266927 177.629339 
L 586.103275 177.629339 
L 590.939624 177.629339 
L 595.775972 177.629339 
L 600.61232 180.274006 
L 605.448669 180.274006 
L 610.285017 180.274006 
L 615.121366 180.274006 
L 619.957714 180.274006 
" clip-path="url(#p1a15a7f383)" style="fill: none; stroke: #55a868; stroke-width: 1.5; stroke-linecap: square"/>
   </g>
   <g id="line2d_20">
    <path d="M 78.286694 157.150726 
L 83.123042 162.440059 
L 87.959391 157.150726 
L 92.795739 154.506059 
L 97.632088 165.084726 
L 102.468436 165.084726 
L 107.304784 162.440059 
L 112.141133 167.729392 
L 116.977481 167.729392 
L 121.81383 157.150726 
L 126.650178 141.282726 
L 131.486526 173.018726 
L 136.322875 173.018726 
L 141.159223 173.018726 
L 145.995572 173.018726 
L 150.83192 167.729392 
L 155.668268 151.861392 
L 160.504617 170.374059 
L 165.340965 162.440059 
L 170.177313 167.729392 
L 175.013662 162.440059 
L 179.85001 165.084726 
L 184.686359 170.374059 
L 189.522707 170.374059 
L 194.359055 170.374059 
L 199.195404 173.018726 
L 204.031752 175.663392 
L 208.868101 173.018726 
L 213.704449 186.242059 
L 218.540797 178.308059 
L 223.377146 180.952726 
L 228.213494 191.531392 
L 233.049843 180.952726 
L 237.886191 178.308059 
L 242.722539 183.597392 
L 247.558888 186.242059 
L 252.395236 180.952726 
L 257.231585 183.597392 
L 262.067933 186.242059 
L 266.904281 191.531392 
L 271.74063 183.597392 
L 276.576978 173.018726 
L 281.413326 157.150726 
L 286.249675 141.282726 
L 291.086023 154.506059 
L 295.922372 165.084726 
L 300.75872 162.440059 
L 305.595068 170.374059 
L 310.431417 173.018726 
L 315.267765 165.084726 
L 320.104114 141.282726 
L 324.940462 173.018726 
L 329.77681 175.663392 
L 334.613159 173.018726 
L 339.449507 167.729392 
L 344.285856 170.374059 
L 349.122204 175.663392 
L 353.958552 178.308059 
L 358.794901 180.952726 
L 363.631249 178.308059 
L 368.467598 178.308059 
L 373.303946 180.952726 
L 378.140294 170.374059 
L 382.976643 162.440059 
L 387.812991 183.597392 
L 392.649339 180.952726 
L 397.485688 183.597392 
L 402.322036 173.018726 
L 407.158385 162.440059 
L 411.994733 180.952726 
L 416.831081 175.663392 
L 421.66743 180.952726 
L 426.503778 183.597392 
L 431.340127 178.308059 
L 436.176475 178.308059 
L 441.012823 180.952726 
L 445.849172 178.308059 
L 450.68552 183.597392 
L 455.521869 191.531392 
L 460.358217 186.242059 
L 465.194565 188.886726 
L 470.030914 191.531392 
L 474.867262 194.176059 
L 479.703611 194.176059 
L 484.539959 191.531392 
L 489.376307 186.242059 
L 494.212656 188.886726 
L 499.049004 188.886726 
L 503.885352 178.308059 
L 508.721701 183.597392 
L 513.558049 191.531392 
L 518.394398 191.531392 
L 523.230746 178.308059 
L 528.067094 175.663392 
L 532.903443 157.150726 
L 537.739791 149.216726 
L 542.57614 157.150726 
L 547.412488 173.018726 
L 552.248836 170.374059 
L 557.085185 178.308059 
L 561.921533 183.597392 
L 566.757882 170.374059 
L 571.59423 149.216726 
L 576.430578 157.150726 
L 581.266927 146.572059 
L 586.103275 165.084726 
L 590.939624 165.084726 
L 595.775972 178.308059 
L 600.61232 180.952726 
L 605.448669 180.952726 
L 610.285017 183.597392 
L 615.121366 178.308059 
L 619.957714 178.308059 
" clip-path="url(#p1a15a7f383)" style="fill: none; stroke: #c44e52; stroke-width: 1.5; stroke-linecap: square"/>
   </g>
   <g id="line2d_21">
    <path d="M 78.286694 162.346442 
L 83.123042 164.991109 
L 87.959391 162.346442 
L 92.795739 162.346442 
L 97.632088 162.346442 
L 102.468436 167.635776 
L 107.304784 167.635776 
L 112.141133 167.635776 
L 116.977481 164.991109 
L 121.81383 167.635776 
L 126.650178 164.991109 
L 131.486526 170.280442 
L 136.322875 164.991109 
L 141.159223 162.346442 
L 145.995572 167.635776 
L 150.83192 162.346442 
L 155.668268 162.346442 
L 160.504617 164.991109 
L 165.340965 162.346442 
L 170.177313 164.991109 
L 175.013662 164.991109 
L 179.85001 162.346442 
L 184.686359 167.635776 
L 189.522707 167.635776 
L 194.359055 172.925109 
L 199.195404 172.925109 
L 204.031752 170.280442 
L 208.868101 170.280442 
L 213.704449 172.925109 
L 218.540797 175.569776 
L 223.377146 172.925109 
L 228.213494 178.214442 
L 233.049843 175.569776 
L 237.886191 172.925109 
L 242.722539 175.569776 
L 247.558888 172.925109 
L 252.395236 164.991109 
L 257.231585 172.925109 
L 262.067933 172.925109 
L 266.904281 178.214442 
L 271.74063 175.569776 
L 276.576978 172.925109 
L 281.413326 167.635776 
L 286.249675 157.057109 
L 291.086023 170.280442 
L 295.922372 172.925109 
L 300.75872 170.280442 
L 305.595068 175.569776 
L 310.431417 175.569776 
L 315.267765 175.569776 
L 320.104114 175.569776 
L 324.940462 170.280442 
L 329.77681 170.280442 
L 334.613159 172.925109 
L 339.449507 170.280442 
L 344.285856 172.925109 
L 349.122204 170.280442 
L 353.958552 172.925109 
L 358.794901 175.569776 
L 363.631249 175.569776 
L 368.467598 178.214442 
L 373.303946 178.214442 
L 378.140294 178.214442 
L 382.976643 178.214442 
L 387.812991 180.859109 
L 392.649339 175.569776 
L 397.485688 175.569776 
L 402.322036 175.569776 
L 407.158385 172.925109 
L 411.994733 175.569776 
L 416.831081 172.925109 
L 421.66743 175.569776 
L 426.503778 175.569776 
L 431.340127 175.569776 
L 436.176475 175.569776 
L 441.012823 178.214442 
L 445.849172 178.214442 
L 450.68552 178.214442 
L 455.521869 180.859109 
L 460.358217 180.859109 
L 465.194565 183.503776 
L 470.030914 178.214442 
L 474.867262 180.859109 
L 479.703611 180.859109 
L 484.539959 180.859109 
L 489.376307 180.859109 
L 494.212656 183.503776 
L 499.049004 180.859109 
L 503.885352 172.925109 
L 508.721701 180.859109 
L 513.558049 180.859109 
L 518.394398 183.503776 
L 523.230746 180.859109 
L 528.067094 178.214442 
L 532.903443 172.925109 
L 537.739791 172.925109 
L 542.57614 172.925109 
L 547.412488 180.859109 
L 552.248836 180.859109 
L 557.085185 178.214442 
L 561.921533 180.859109 
L 566.757882 180.859109 
L 571.59423 175.569776 
L 576.430578 172.925109 
L 581.266927 178.214442 
L 586.103275 175.569776 
L 590.939624 175.569776 
L 595.775972 172.925109 
L 600.61232 175.569776 
L 605.448669 178.214442 
L 610.285017 180.859109 
L 615.121366 178.214442 
L 619.957714 175.569776 
" clip-path="url(#p1a15a7f383)" style="fill: none; stroke: #8172b2; stroke-width: 1.5; stroke-linecap: square"/>
   </g>
   <g id="LineCollection_1">
    <path d="M 38.905 173.44 
L 1048.32 173.44 
" clip-path="url(#p1a15a7f383)" style="fill: none; stroke-dasharray: 1.85,0.8; stroke-dashoffset: 0; stroke: #000000; stroke-width: 0.5"/>
   </g>
   <g id="patch_3">
    <path d="M 38.905 332.12 
L 38.905 14.76 
" style="fill: none; stroke: #000000; stroke-width: 0.8; stroke-linejoin: miter; stroke-linecap: square"/>
   </g>
   <g id="patch_4">
    <path d="M 1048.32 332.12 
L 1048.32 14.76 
" style="fill: none; stroke: #000000; stroke-width: 0.8; stroke-linejoin: miter; stroke-linecap: square"/>
   </g>
   <g id="patch_5">
    <path d="M 38.905 332.12 
L 1048.32 332.12 
" style="fill: none; stroke: #000000; stroke-width: 0.8; stroke-linejoin: miter; stroke-linecap: square"/>
   </g>
   <g id="patch_6">
    <path d="M 38.905 14.76 
L 1048.32 14.76 
" style="fill: none; stroke: #000000; stroke-width: 0.8; stroke-linejoin: miter; stroke-linecap: square"/>
   </g>
   <g id="legend_1">
    <g id="patch_7">
     <path d="M 979.7075 37.438125 
L 1041.32 37.438125 
Q 1043.32 37.438125 1043.32 35.438125 
L 1043.32 21.76 
Q 1043.32 19.76 1041.32 19.76 
L 979.7075 19.76 
Q 977.7075 19.76 977.7075 21.76 
L 977.7075 35.438125 
Q 977.7075 37.438125 979.7075 37.438125 
z
" style="fill: #ffffff; opacity: 0.8; stroke: #cccccc; stroke-linejoin: miter"/>
    </g>
    <g id="line2d_22">
     <path d="M 981.7075 27.858438 
L 991.7075 27.858438 
L 1001.7075 27.858438 
" style="fill: none; stroke: #ff0000; stroke-width: 1.5; stroke-linecap: square"/>
    </g>
    <g id="text_17">
     <!-- Chili's -->
     <g transform="translate(1009.7075 31.358438) scale(0.1 -0.1)">
      <defs>
       <path id="DejaVuSans-43" d="M 4122 4306 
L 4122 3641 
Q 3803 3938 3442 4084 
Q 3081 4231 2675 4231 
Q 1875 4231 1450 3742 
Q 1025 3253 1025 2328 
Q 1025 1406 1450 917 
Q 1875 428 2675 428 
Q 3081 428 3442 575 
Q 3803 722 4122 1019 
L 4122 359 
Q 3791 134 3420 21 
Q 3050 -91 2638 -91 
Q 1578 -91 968 557 
Q 359 1206 359 2328 
Q 359 3453 968 4101 
Q 1578 4750 2638 4750 
Q 3056 4750 3426 4639 
Q 3797 4528 4122 4306 
z
" transform="scale(0.015625)"/>
       <path id="DejaVuSans-68" d="M 3513 2113 
L 3513 0 
L 2938 0 
L 2938 2094 
Q 2938 2591 2744 2837 
Q 2550 3084 2163 3084 
Q 1697 3084 1428 2787 
Q 1159 2491 1159 1978 
L 1159 0 
L 581 0 
L 581 4863 
L 1159 4863 
L 1159 2956 
Q 1366 3272 1645 3428 
Q 1925 3584 2291 3584 
Q 2894 3584 3203 3211 
Q 3513 2838 3513 2113 
z
" transform="scale(0.015625)"/>
       <path id="DejaVuSans-69" d="M 603 3500 
L 1178 3500 
L 1178 0 
L 603 0 
L 603 3500 
z
M 603 4863 
L 1178 4863 
L 1178 4134 
L 603 4134 
L 603 4863 
z
" transform="scale(0.015625)"/>
       <path id="DejaVuSans-6c" d="M 603 4863 
L 1178 4863 
L 1178 0 
L 603 0 
L 603 4863 
z
" transform="scale(0.015625)"/>
       <path id="DejaVuSans-27" d="M 1147 4666 
L 1147 2931 
L 616 2931 
L 616 4666 
L 1147 4666 
z
" transform="scale(0.015625)"/>
       <path id="DejaVuSans-73" d="M 2834 3397 
L 2834 2853 
Q 2591 2978 2328 3040 
Q 2066 3103 1784 3103 
Q 1356 3103 1142 2972 
Q 928 2841 928 2578 
Q 928 2378 1081 2264 
Q 1234 2150 1697 2047 
L 1894 2003 
Q 2506 1872 2764 1633 
Q 3022 1394 3022 966 
Q 3022 478 2636 193 
Q 2250 -91 1575 -91 
Q 1294 -91 989 -36 
Q 684 19 347 128 
L 347 722 
Q 666 556 975 473 
Q 1284 391 1588 391 
Q 1994 391 2212 530 
Q 2431 669 2431 922 
Q 2431 1156 2273 1281 
Q 2116 1406 1581 1522 
L 1381 1569 
Q 847 1681 609 1914 
Q 372 2147 372 2553 
Q 372 3047 722 3315 
Q 1072 3584 1716 3584 
Q 2034 3584 2315 3537 
Q 2597 3491 2834 3397 
z
" transform="scale(0.015625)"/>
      </defs>
      <use xlink:href="#DejaVuSans-43"/>
      <use xlink:href="#DejaVuSans-68" transform="translate(69.824219 0)"/>
      <use xlink:href="#DejaVuSans-69" transform="translate(133.203125 0)"/>
      <use xlink:href="#DejaVuSans-6c" transform="translate(160.986328 0)"/>
      <use xlink:href="#DejaVuSans-69" transform="translate(188.769531 0)"/>
      <use xlink:href="#DejaVuSans-27" transform="translate(216.552734 0)"/>
      <use xlink:href="#DejaVuSans-73" transform="translate(244.042969 0)"/>
     </g>
    </g>
   </g>
  </g>
 </g>
 <defs>
  <clipPath id="p1a15a7f383">
   <rect x="38.905" y="14.76" width="1009.415" height="317.36"/>
  </clipPath>
 </defs>
</svg>
