<?xml version="1.0" encoding="utf-8" standalone="no"?>
<!DOCTYPE svg PUBLIC "-//W3C//DTD SVG 1.1//EN"
  "http://www.w3.org/Graphics/SVG/1.1/DTD/svg11.dtd">
<svg xmlns:xlink="http://www.w3.org/1999/xlink" width="1080pt" height="360pt" viewBox="0 0 1080 360" xmlns="http://www.w3.org/2000/svg" version="1.1">
 <metadata>
  <rdf:RDF xmlns:dc="http://purl.org/dc/elements/1.1/" xmlns:cc="http://creativecommons.org/ns#" xmlns:rdf="http://www.w3.org/1999/02/22-rdf-syntax-ns#">
   <cc:Work>
    <dc:type rdf:resource="http://purl.org/dc/dcmitype/StillImage"/>
    <dc:date>2026-03-26T19:02:25.281825</dc:date>
    <dc:format>image/svg+xml</dc:format>
    <dc:creator>
     <cc:Agent>
      <dc:title>Matplotlib v3.10.0, https://matplotlib.org/</dc:title>
     </cc:Agent>
    </dc:creator>
   </cc:Work>
  </rdf:RDF>
 </metadata>
 <defs>
  <style type="text/css">*{stroke-linejoin: round; stroke-linecap: butt}</style>
 </defs>
 <g id="figure_1">
  <g id="patch_1">
   <path d="M 0 360 
L 1080 360 
L 1080 0 
L 0 0 
z
" style="fill: #ffffff"/>
  </g>
  <g id="axes_1">
   <g id="patch_2">
    <path d="M 53.03 318.04 
L 1069.2 318.04 
L 1069.2 14.76 
L 53.03 14.76 
z
" style="fill: #ffffff"/>
   </g>
   <g id="matplotlib.axis_1">
    <g id="xtick_1">
     <g id="line2d_1">
      <defs>
       <path id="md4ecea3814" d="M 0 0 
L 0 3.5 
" style="stroke: #000000; stroke-width: 0.8"/>
      </defs>
      <g>
       <use xlink:href="#md4ecea3814" x="53.03" y="318.04" style="stroke: #000000; stroke-width: 0.8"/>
      </g>
     </g>
     <g id="text_1">
      <!-- 2022-01 -->
      <g transform="translate(32.138594 332.638438) scale(0.1 -0.1)">
       <defs>
        <path id="DejaVuSans-32" d="M 1228 531 
L 3431 531 
L 3431 0 
L 469 0 
L 469 531 
Q 828 903 1448 1529 
Q 2069 2156 2228 2338 
Q 2531 2678 2651 2914 
Q 2772 3150 2772 3378 
Q 2772 3750 2511 3984 
Q 2250 4219 1831 4219 
Q 1534 4219 1204 4116 
Q 875 4013 500 3803 
L 500 4441 
Q 881 4594 1212 4672 
Q 1544 4750 1819 4750 
Q 2544 4750 2975 4387 
Q 3406 4025 3406 3419 
Q 3406 3131 3298 2873 
Q 3191 2616 2906 2266 
Q 2828 2175 2409 1742 
Q 1991 1309 1228 531 
z
" transform="scale(0.015625)"/>
        <path id="DejaVuSans-30" d="M 2034 4250 
Q 1547 4250 1301 3770 
Q 1056 3291 1056 2328 
Q 1056 1369 1301 889 
Q 1547 409 2034 409 
Q 2525 409 2770 889 
Q 3016 1369 3016 2328 
Q 3016 3291 2770 3770 
Q 2525 4250 2034 4250 
z
M 2034 4750 
Q 2819 4750 3233 4129 
Q 3647 3509 3647 2328 
Q 3647 1150 3233 529 
Q 2819 -91 2034 -91 
Q 1250 -91 836 529 
Q 422 1150 422 2328 
Q 422 3509 836 4129 
Q 1250 4750 2034 4750 
z
" transform="scale(0.015625)"/>
        <path id="DejaVuSans-2d" d="M 313 2009 
L 1997 2009 
L 1997 1497 
L 313 1497 
L 313 2009 
z
" transform="scale(0.015625)"/>
        <path id="DejaVuSans-31" d="M 794 531 
L 1825 531 
L 1825 4091 
L 703 3866 
L 703 4441 
L 1819 4666 
L 2450 4666 
L 2450 531 
L 3481 531 
L 3481 0 
L 794 0 
L 794 531 
z
" transform="scale(0.015625)"/>
       </defs>
       <use xlink:href="#DejaVuSans-32"/>
       <use xlink:href="#DejaVuSans-30" transform="translate(63.623047 0)"/>
       <use xlink:href="#DejaVuSans-32" transform="translate(127.246094 0)"/>
       <use xlink:href="#DejaVuSans-32" transform="translate(190.869141 0)"/>
       <use xlink:href="#DejaVuSans-2d" transform="translate(254.492188 0)"/>
       <use xlink:href="#DejaVuSans-30" transform="translate(290.576172 0)"/>
       <use xlink:href="#DejaVuSans-31" transform="translate(354.199219 0)"/>
      </g>
     </g>
    </g>
    <g id="xtick_2">
     <g id="line2d_2">
      <g>
       <use xlink:href="#md4ecea3814" x="172.385464" y="318.04" style="stroke: #000000; stroke-width: 0.8"/>
      </g>
     </g>
     <g id="text_2">
      <!-- 2022-07 -->
      <g transform="translate(151.494058 332.638438) scale(0.1 -0.1)">
       <defs>
        <path id="DejaVuSans-37" d="M 525 4666 
L 3525 4666 
L 3525 4397 
L 1831 0 
L 1172 0 
L 2766 4134 
L 525 4134 
L 525 4666 
z
" transform="scale(0.015625)"/>
       </defs>
       <use xlink:href="#DejaVuSans-32"/>
       <use xlink:href="#DejaVuSans-30" transform="translate(63.623047 0)"/>
       <use xlink:href="#DejaVuSans-32" transform="translate(127.246094 0)"/>
       <use xlink:href="#DejaVuSans-32" transform="translate(190.869141 0)"/>
       <use xlink:href="#DejaVuSans-2d" transform="translate(254.492188 0)"/>
       <use xlink:href="#DejaVuSans-30" transform="translate(290.576172 0)"/>
       <use xlink:href="#DejaVuSans-37" transform="translate(354.199219 0)"/>
      </g>
     </g>
    </g>
    <g id="xtick_3">
     <g id="line2d_3">
      <g>
       <use xlink:href="#md4ecea3814" x="293.719195" y="318.04" style="stroke: #000000; stroke-width: 0.8"/>
      </g>
     </g>
     <g id="text_3">
      <!-- 2023-01 -->
      <g transform="translate(272.827789 332.638438) scale(0.1 -0.1)">
       <defs>
        <path id="DejaVuSans-33" d="M 2597 2516 
Q 3050 2419 3304 2112 
Q 3559 1806 3559 1356 
Q 3559 666 3084 287 
Q 2609 -91 1734 -91 
Q 1441 -91 1130 -33 
Q 819 25 488 141 
L 488 750 
Q 750 597 1062 519 
Q 1375 441 1716 441 
Q 2309 441 2620 675 
Q 2931 909 2931 1356 
Q 2931 1769 2642 2001 
Q 2353 2234 1838 2234 
L 1294 2234 
L 1294 2753 
L 1863 2753 
Q 2328 2753 2575 2939 
Q 2822 3125 2822 3475 
Q 2822 3834 2567 4026 
Q 2313 4219 1838 4219 
Q 1578 4219 1281 4162 
Q 984 4106 628 3988 
L 628 4550 
Q 988 4650 1302 4700 
Q 1616 4750 1894 4750 
Q 2613 4750 3031 4423 
Q 3450 4097 3450 3541 
Q 3450 3153 3228 2886 
Q 3006 2619 2597 2516 
z
" transform="scale(0.015625)"/>
       </defs>
       <use xlink:href="#DejaVuSans-32"/>
       <use xlink:href="#DejaVuSans-30" transform="translate(63.623047 0)"/>
       <use xlink:href="#DejaVuSans-32" transform="translate(127.246094 0)"/>
       <use xlink:href="#DejaVuSans-33" transform="translate(190.869141 0)"/>
       <use xlink:href="#DejaVuSans-2d" transform="translate(254.492188 0)"/>
       <use xlink:href="#DejaVuSans-30" transform="translate(290.576172 0)"/>
       <use xlink:href="#DejaVuSans-31" transform="translate(354.199219 0)"/>
      </g>
     </g>
    </g>
    <g id="xtick_4">
     <g id="line2d_4">
      <g>
       <use xlink:href="#md4ecea3814" x="413.074659" y="318.04" style="stroke: #000000; stroke-width: 0.8"/>
      </g>
     </g>
     <g id="text_4">
      <!-- 2023-07 -->
      <g transform="translate(392.183253 332.638438) scale(0.1 -0.1)">
       <use xlink:href="#DejaVuSans-32"/>
       <use xlink:href="#DejaVuSans-30" transform="translate(63.623047 0)"/>
       <use xlink:href="#DejaVuSans-32" transform="translate(127.246094 0)"/>
       <use xlink:href="#DejaVuSans-33" transform="translate(190.869141 0)"/>
       <use xlink:href="#DejaVuSans-2d" transform="translate(254.492188 0)"/>
       <use xlink:href="#DejaVuSans-30" transform="translate(290.576172 0)"/>
       <use xlink:href="#DejaVuSans-37" transform="translate(354.199219 0)"/>
      </g>
     </g>
    </g>
    <g id="xtick_5">
     <g id="line2d_5">
      <g>
       <use xlink:href="#md4ecea3814" x="534.408391" y="318.04" style="stroke: #000000; stroke-width: 0.8"/>
      </g>
     </g>
     <g id="text_5">
      <!-- 2024-01 -->
      <g transform="translate(513.516984 332.638438) scale(0.1 -0.1)">
       <defs>
        <path id="DejaVuSans-34" d="M 2419 4116 
L 825 1625 
L 2419 1625 
L 2419 4116 
z
M 2253 4666 
L 3047 4666 
L 3047 1625 
L 3713 1625 
L 3713 1100 
L 3047 1100 
L 3047 0 
L 2419 0 
L 2419 1100 
L 313 1100 
L 313 1709 
L 2253 4666 
z
" transform="scale(0.015625)"/>
       </defs>
       <use xlink:href="#DejaVuSans-32"/>
       <use xlink:href="#DejaVuSans-30" transform="translate(63.623047 0)"/>
       <use xlink:href="#DejaVuSans-32" transform="translate(127.246094 0)"/>
       <use xlink:href="#DejaVuSans-34" transform="translate(190.869141 0)"/>
       <use xlink:href="#DejaVuSans-2d" transform="translate(254.492188 0)"/>
       <use xlink:href="#DejaVuSans-30" transform="translate(290.576172 0)"/>
       <use xlink:href="#DejaVuSans-31" transform="translate(354.199219 0)"/>
      </g>
     </g>
    </g>
    <g id="xtick_6">
     <g id="line2d_6">
      <g>
       <use xlink:href="#md4ecea3814" x="654.423277" y="318.04" style="stroke: #000000; stroke-width: 0.8"/>
      </g>
     </g>
     <g id="text_6">
      <!-- 2024-07 -->
      <g transform="translate(633.531871 332.638438) scale(0.1 -0.1)">
       <use xlink:href="#DejaVuSans-32"/>
       <use xlink:href="#DejaVuSans-30" transform="translate(63.623047 0)"/>
       <use xlink:href="#DejaVuSans-32" transform="translate(127.246094 0)"/>
       <use xlink:href="#DejaVuSans-34" transform="translate(190.869141 0)"/>
       <use xlink:href="#DejaVuSans-2d" transform="translate(254.492188 0)"/>
       <use xlink:href="#DejaVuSans-30" transform="translate(290.576172 0)"/>
       <use xlink:href="#DejaVuSans-37" transform="translate(354.199219 0)"/>
      </g>
     </g>
    </g>
    <g id="xtick_7">
     <g id="line2d_7">
      <g>
       <use xlink:href="#md4ecea3814" x="775.757008" y="318.04" style="stroke: #000000; stroke-width: 0.8"/>
      </g>
     </g>
     <g id="text_7">
      <!-- 2025-01 -->
      <g transform="translate(754.865602 332.638438) scale(0.1 -0.1)">
       <defs>
        <path id="DejaVuSans-35" d="M 691 4666 
L 3169 4666 
L 3169 4134 
L 1269 4134 
L 1269 2991 
Q 1406 3038 1543 3061 
Q 1681 3084 1819 3084 
Q 2600 3084 3056 2656 
Q 3513 2228 3513 1497 
Q 3513 744 3044 326 
Q 2575 -91 1722 -91 
Q 1428 -91 1123 -41 
Q 819 9 494 109 
L 494 744 
Q 775 591 1075 516 
Q 1375 441 1709 441 
Q 2250 441 2565 725 
Q 2881 1009 2881 1497 
Q 2881 1984 2565 2268 
Q 2250 2553 1709 2553 
Q 1456 2553 1204 2497 
Q 953 2441 691 2322 
L 691 4666 
z
" transform="scale(0.015625)"/>
       </defs>
       <use xlink:href="#DejaVuSans-32"/>
       <use xlink:href="#DejaVuSans-30" transform="translate(63.623047 0)"/>
       <use xlink:href="#DejaVuSans-32" transform="translate(127.246094 0)"/>
       <use xlink:href="#DejaVuSans-35" transform="translate(190.869141 0)"/>
       <use xlink:href="#DejaVuSans-2d" transform="translate(254.492188 0)"/>
       <use xlink:href="#DejaVuSans-30" transform="translate(290.576172 0)"/>
       <use xlink:href="#DejaVuSans-31" transform="translate(354.199219 0)"/>
      </g>
     </g>
    </g>
    <g id="xtick_8">
     <g id="line2d_8">
      <g>
       <use xlink:href="#md4ecea3814" x="895.112472" y="318.04" style="stroke: #000000; stroke-width: 0.8"/>
      </g>
     </g>
     <g id="text_8">
      <!-- 2025-07 -->
      <g transform="translate(874.221066 332.638438) scale(0.1 -0.1)">
       <use xlink:href="#DejaVuSans-32"/>
       <use xlink:href="#DejaVuSans-30" transform="translate(63.623047 0)"/>
       <use xlink:href="#DejaVuSans-32" transform="translate(127.246094 0)"/>
       <use xlink:href="#DejaVuSans-35" transform="translate(190.869141 0)"/>
       <use xlink:href="#DejaVuSans-2d" transform="translate(254.492188 0)"/>
       <use xlink:href="#DejaVuSans-30" transform="translate(290.576172 0)"/>
       <use xlink:href="#DejaVuSans-37" transform="translate(354.199219 0)"/>
      </g>
     </g>
    </g>
    <g id="xtick_9">
     <g id="line2d_9">
      <g>
       <use xlink:href="#md4ecea3814" x="1016.446204" y="318.04" style="stroke: #000000; stroke-width: 0.8"/>
      </g>
     </g>
     <g id="text_9">
      <!-- 2026-01 -->
      <g transform="translate(995.554798 332.638438) scale(0.1 -0.1)">
       <defs>
        <path id="DejaVuSans-36" d="M 2113 2584 
Q 1688 2584 1439 2293 
Q 1191 2003 1191 1497 
Q 1191 994 1439 701 
Q 1688 409 2113 409 
Q 2538 409 2786 701 
Q 3034 994 3034 1497 
Q 3034 2003 2786 2293 
Q 2538 2584 2113 2584 
z
M 3366 4563 
L 3366 3988 
Q 3128 4100 2886 4159 
Q 2644 4219 2406 4219 
Q 1781 4219 1451 3797 
Q 1122 3375 1075 2522 
Q 1259 2794 1537 2939 
Q 1816 3084 2150 3084 
Q 2853 3084 3261 2657 
Q 3669 2231 3669 1497 
Q 3669 778 3244 343 
Q 2819 -91 2113 -91 
Q 1303 -91 875 529 
Q 447 1150 447 2328 
Q 447 3434 972 4092 
Q 1497 4750 2381 4750 
Q 2619 4750 2861 4703 
Q 3103 4656 3366 4563 
z
" transform="scale(0.015625)"/>
       </defs>
       <use xlink:href="#DejaVuSans-32"/>
       <use xlink:href="#DejaVuSans-30" transform="translate(63.623047 0)"/>
       <use xlink:href="#DejaVuSans-32" transform="translate(127.246094 0)"/>
       <use xlink:href="#DejaVuSans-36" transform="translate(190.869141 0)"/>
       <use xlink:href="#DejaVuSans-2d" transform="translate(254.492188 0)"/>
       <use xlink:href="#DejaVuSans-30" transform="translate(290.576172 0)"/>
       <use xlink:href="#DejaVuSans-31" transform="translate(354.199219 0)"/>
      </g>
     </g>
    </g>
    <g id="text_10">
     <!-- Weeks -->
     <g transform="translate(544.811875 346.316563) scale(0.1 -0.1)">
      <defs>
       <path id="DejaVuSans-57" d="M 213 4666 
L 850 4666 
L 1831 722 
L 2809 4666 
L 3519 4666 
L 4500 722 
L 5478 4666 
L 6119 4666 
L 4947 0 
L 4153 0 
L 3169 4050 
L 2175 0 
L 1381 0 
L 213 4666 
z
" transform="scale(0.015625)"/>
       <path id="DejaVuSans-65" d="M 3597 1894 
L 3597 1613 
L 953 1613 
Q 991 1019 1311 708 
Q 1631 397 2203 397 
Q 2534 397 2845 478 
Q 3156 559 3463 722 
L 3463 178 
Q 3153 47 2828 -22 
Q 2503 -91 2169 -91 
Q 1331 -91 842 396 
Q 353 884 353 1716 
Q 353 2575 817 3079 
Q 1281 3584 2069 3584 
Q 2775 3584 3186 3129 
Q 3597 2675 3597 1894 
z
M 3022 2063 
Q 3016 2534 2758 2815 
Q 2500 3097 2075 3097 
Q 1594 3097 1305 2825 
Q 1016 2553 972 2059 
L 3022 2063 
z
" transform="scale(0.015625)"/>
       <path id="DejaVuSans-6b" d="M 581 4863 
L 1159 4863 
L 1159 1991 
L 2875 3500 
L 3609 3500 
L 1753 1863 
L 3688 0 
L 2938 0 
L 1159 1709 
L 1159 0 
L 581 0 
L 581 4863 
z
" transform="scale(0.015625)"/>
       <path id="DejaVuSans-73" d="M 2834 3397 
L 2834 2853 
Q 2591 2978 2328 3040 
Q 2066 3103 1784 3103 
Q 1356 3103 1142 2972 
Q 928 2841 928 2578 
Q 928 2378 1081 2264 
Q 1234 2150 1697 2047 
L 1894 2003 
Q 2506 1872 2764 1633 
Q 3022 1394 3022 966 
Q 3022 478 2636 193 
Q 2250 -91 1575 -91 
Q 1294 -91 989 -36 
Q 684 19 347 128 
L 347 722 
Q 666 556 975 473 
Q 1284 391 1588 391 
Q 1994 391 2212 530 
Q 2431 669 2431 922 
Q 2431 1156 2273 1281 
Q 2116 1406 1581 1522 
L 1381 1569 
Q 847 1681 609 1914 
Q 372 2147 372 2553 
Q 372 3047 722 3315 
Q 1072 3584 1716 3584 
Q 2034 3584 2315 3537 
Q 2597 3491 2834 3397 
z
" transform="scale(0.015625)"/>
      </defs>
      <use xlink:href="#DejaVuSans-57"/>
      <use xlink:href="#DejaVuSans-65" transform="translate(93.001953 0)"/>
      <use xlink:href="#DejaVuSans-65" transform="translate(154.525391 0)"/>
      <use xlink:href="#DejaVuSans-6b" transform="translate(216.048828 0)"/>
      <use xlink:href="#DejaVuSans-73" transform="translate(273.958984 0)"/>
     </g>
    </g>
   </g>
   <g id="matplotlib.axis_2">
    <g id="ytick_1">
     <g id="line2d_10">
      <defs>
       <path id="m36e941def4" d="M 0 0 
L -3.5 0 
" style="stroke: #000000; stroke-width: 0.8"/>
      </defs>
      <g>
       <use xlink:href="#m36e941def4" x="53.03" y="318.04" style="stroke: #000000; stroke-width: 0.8"/>
      </g>
     </g>
     <g id="text_11">
      <!-- −30 -->
      <g transform="translate(24.925312 321.839219) scale(0.1 -0.1)">
       <defs>
        <path id="DejaVuSans-2212" d="M 678 2272 
L 4684 2272 
L 4684 1741 
L 678 1741 
L 678 2272 
z
" transform="scale(0.015625)"/>
       </defs>
       <use xlink:href="#DejaVuSans-2212"/>
       <use xlink:href="#DejaVuSans-33" transform="translate(83.789062 0)"/>
       <use xlink:href="#DejaVuSans-30" transform="translate(147.412109 0)"/>
      </g>
     </g>
    </g>
    <g id="ytick_2">
     <g id="line2d_11">
      <g>
       <use xlink:href="#m36e941def4" x="53.03" y="284.342222" style="stroke: #000000; stroke-width: 0.8"/>
      </g>
     </g>
     <g id="text_12">
      <!-- −20 -->
      <g transform="translate(24.925312 288.141441) scale(0.1 -0.1)">
       <use xlink:href="#DejaVuSans-2212"/>
       <use xlink:href="#DejaVuSans-32" transform="translate(83.789062 0)"/>
       <use xlink:href="#DejaVuSans-30" transform="translate(147.412109 0)"/>
      </g>
     </g>
    </g>
    <g id="ytick_3">
     <g id="line2d_12">
      <g>
       <use xlink:href="#m36e941def4" x="53.03" y="250.644444" style="stroke: #000000; stroke-width: 0.8"/>
      </g>
     </g>
     <g id="text_13">
      <!-- −10 -->
      <g transform="translate(24.925312 254.443663) scale(0.1 -0.1)">
       <use xlink:href="#DejaVuSans-2212"/>
       <use xlink:href="#DejaVuSans-31" transform="translate(83.789062 0)"/>
       <use xlink:href="#DejaVuSans-30" transform="translate(147.412109 0)"/>
      </g>
     </g>
    </g>
    <g id="ytick_4">
     <g id="line2d_13">
      <g>
       <use xlink:href="#m36e941def4" x="53.03" y="216.946667" style="stroke: #000000; stroke-width: 0.8"/>
      </g>
     </g>
     <g id="text_14">
      <!-- 0 -->
      <g transform="translate(39.6675 220.745885) scale(0.1 -0.1)">
       <use xlink:href="#DejaVuSans-30"/>
      </g>
     </g>
    </g>
    <g id="ytick_5">
     <g id="line2d_14">
      <g>
       <use xlink:href="#m36e941def4" x="53.03" y="183.248889" style="stroke: #000000; stroke-width: 0.8"/>
      </g>
     </g>
     <g id="text_15">
      <!-- 10 -->
      <g transform="translate(33.305 187.048108) scale(0.1 -0.1)">
       <use xlink:href="#DejaVuSans-31"/>
       <use xlink:href="#DejaVuSans-30" transform="translate(63.623047 0)"/>
      </g>
     </g>
    </g>
    <g id="ytick_6">
     <g id="line2d_15">
      <g>
       <use xlink:href="#m36e941def4" x="53.03" y="149.551111" style="stroke: #000000; stroke-width: 0.8"/>
      </g>
     </g>
     <g id="text_16">
      <!-- 20 -->
      <g transform="translate(33.305 153.35033) scale(0.1 -0.1)">
       <use xlink:href="#DejaVuSans-32"/>
       <use xlink:href="#DejaVuSans-30" transform="translate(63.623047 0)"/>
      </g>
     </g>
    </g>
    <g id="ytick_7">
     <g id="line2d_16">
      <g>
       <use xlink:href="#m36e941def4" x="53.03" y="115.853333" style="stroke: #000000; stroke-width: 0.8"/>
      </g>
     </g>
     <g id="text_17">
      <!-- 30 -->
      <g transform="translate(33.305 119.652552) scale(0.1 -0.1)">
       <use xlink:href="#DejaVuSans-33"/>
       <use xlink:href="#DejaVuSans-30" transform="translate(63.623047 0)"/>
      </g>
     </g>
    </g>
    <g id="ytick_8">
     <g id="line2d_17">
      <g>
       <use xlink:href="#m36e941def4" x="53.03" y="82.155556" style="stroke: #000000; stroke-width: 0.8"/>
      </g>
     </g>
     <g id="text_18">
      <!-- 40 -->
      <g transform="translate(33.305 85.954774) scale(0.1 -0.1)">
       <use xlink:href="#DejaVuSans-34"/>
       <use xlink:href="#DejaVuSans-30" transform="translate(63.623047 0)"/>
      </g>
     </g>
    </g>
    <g id="ytick_9">
     <g id="line2d_18">
      <g>
       <use xlink:href="#m36e941def4" x="53.03" y="48.457778" style="stroke: #000000; stroke-width: 0.8"/>
      </g>
     </g>
     <g id="text_19">
      <!-- 50 -->
      <g transform="translate(33.305 52.256997) scale(0.1 -0.1)">
       <use xlink:href="#DejaVuSans-35"/>
       <use xlink:href="#DejaVuSans-30" transform="translate(63.623047 0)"/>
      </g>
     </g>
    </g>
    <g id="ytick_10">
     <g id="line2d_19">
      <g>
       <use xlink:href="#m36e941def4" x="53.03" y="14.76" style="stroke: #000000; stroke-width: 0.8"/>
      </g>
     </g>
     <g id="text_20">
      <!-- 60 -->
      <g transform="translate(33.305 18.559219) scale(0.1 -0.1)">
       <use xlink:href="#DejaVuSans-36"/>
       <use xlink:href="#DejaVuSans-30" transform="translate(63.623047 0)"/>
      </g>
     </g>
    </g>
    <g id="text_21">
     <!-- Search Interest Deviations from Pre-viral Mean -->
     <g transform="translate(18.845625 283.039844) rotate(-90) scale(0.1 -0.1)">
      <defs>
       <path id="DejaVuSans-53" d="M 3425 4513 
L 3425 3897 
Q 3066 4069 2747 4153 
Q 2428 4238 2131 4238 
Q 1616 4238 1336 4038 
Q 1056 3838 1056 3469 
Q 1056 3159 1242 3001 
Q 1428 2844 1947 2747 
L 2328 2669 
Q 3034 2534 3370 2195 
Q 3706 1856 3706 1288 
Q 3706 609 3251 259 
Q 2797 -91 1919 -91 
Q 1588 -91 1214 -16 
Q 841 59 441 206 
L 441 856 
Q 825 641 1194 531 
Q 1563 422 1919 422 
Q 2459 422 2753 634 
Q 3047 847 3047 1241 
Q 3047 1584 2836 1778 
Q 2625 1972 2144 2069 
L 1759 2144 
Q 1053 2284 737 2584 
Q 422 2884 422 3419 
Q 422 4038 858 4394 
Q 1294 4750 2059 4750 
Q 2388 4750 2728 4690 
Q 3069 4631 3425 4513 
z
" transform="scale(0.015625)"/>
       <path id="DejaVuSans-61" d="M 2194 1759 
Q 1497 1759 1228 1600 
Q 959 1441 959 1056 
Q 959 750 1161 570 
Q 1363 391 1709 391 
Q 2188 391 2477 730 
Q 2766 1069 2766 1631 
L 2766 1759 
L 2194 1759 
z
M 3341 1997 
L 3341 0 
L 2766 0 
L 2766 531 
Q 2569 213 2275 61 
Q 1981 -91 1556 -91 
Q 1019 -91 701 211 
Q 384 513 384 1019 
Q 384 1609 779 1909 
Q 1175 2209 1959 2209 
L 2766 2209 
L 2766 2266 
Q 2766 2663 2505 2880 
Q 2244 3097 1772 3097 
Q 1472 3097 1187 3025 
Q 903 2953 641 2809 
L 641 3341 
Q 956 3463 1253 3523 
Q 1550 3584 1831 3584 
Q 2591 3584 2966 3190 
Q 3341 2797 3341 1997 
z
" transform="scale(0.015625)"/>
       <path id="DejaVuSans-72" d="M 2631 2963 
Q 2534 3019 2420 3045 
Q 2306 3072 2169 3072 
Q 1681 3072 1420 2755 
Q 1159 2438 1159 1844 
L 1159 0 
L 581 0 
L 581 3500 
L 1159 3500 
L 1159 2956 
Q 1341 3275 1631 3429 
Q 1922 3584 2338 3584 
Q 2397 3584 2469 3576 
Q 2541 3569 2628 3553 
L 2631 2963 
z
" transform="scale(0.015625)"/>
       <path id="DejaVuSans-63" d="M 3122 3366 
L 3122 2828 
Q 2878 2963 2633 3030 
Q 2388 3097 2138 3097 
Q 1578 3097 1268 2742 
Q 959 2388 959 1747 
Q 959 1106 1268 751 
Q 1578 397 2138 397 
Q 2388 397 2633 464 
Q 2878 531 3122 666 
L 3122 134 
Q 2881 22 2623 -34 
Q 2366 -91 2075 -91 
Q 1284 -91 818 406 
Q 353 903 353 1747 
Q 353 2603 823 3093 
Q 1294 3584 2113 3584 
Q 2378 3584 2631 3529 
Q 2884 3475 3122 3366 
z
" transform="scale(0.015625)"/>
       <path id="DejaVuSans-68" d="M 3513 2113 
L 3513 0 
L 2938 0 
L 2938 2094 
Q 2938 2591 2744 2837 
Q 2550 3084 2163 3084 
Q 1697 3084 1428 2787 
Q 1159 2491 1159 1978 
L 1159 0 
L 581 0 
L 581 4863 
L 1159 4863 
L 1159 2956 
Q 1366 3272 1645 3428 
Q 1925 3584 2291 3584 
Q 2894 3584 3203 3211 
Q 3513 2838 3513 2113 
z
" transform="scale(0.015625)"/>
       <path id="DejaVuSans-20" transform="scale(0.015625)"/>
       <path id="DejaVuSans-49" d="M 628 4666 
L 1259 4666 
L 1259 0 
L 628 0 
L 628 4666 
z
" transform="scale(0.015625)"/>
       <path id="DejaVuSans-6e" d="M 3513 2113 
L 3513 0 
L 2938 0 
L 2938 2094 
Q 2938 2591 2744 2837 
Q 2550 3084 2163 3084 
Q 1697 3084 1428 2787 
Q 1159 2491 1159 1978 
L 1159 0 
L 581 0 
L 581 3500 
L 1159 3500 
L 1159 2956 
Q 1366 3272 1645 3428 
Q 1925 3584 2291 3584 
Q 2894 3584 3203 3211 
Q 3513 2838 3513 2113 
z
" transform="scale(0.015625)"/>
       <path id="DejaVuSans-74" d="M 1172 4494 
L 1172 3500 
L 2356 3500 
L 2356 3053 
L 1172 3053 
L 1172 1153 
Q 1172 725 1289 603 
Q 1406 481 1766 481 
L 2356 481 
L 2356 0 
L 1766 0 
Q 1100 0 847 248 
Q 594 497 594 1153 
L 594 3053 
L 172 3053 
L 172 3500 
L 594 3500 
L 594 4494 
L 1172 4494 
z
" transform="scale(0.015625)"/>
       <path id="DejaVuSans-44" d="M 1259 4147 
L 1259 519 
L 2022 519 
Q 2988 519 3436 956 
Q 3884 1394 3884 2338 
Q 3884 3275 3436 3711 
Q 2988 4147 2022 4147 
L 1259 4147 
z
M 628 4666 
L 1925 4666 
Q 3281 4666 3915 4102 
Q 4550 3538 4550 2338 
Q 4550 1131 3912 565 
Q 3275 0 1925 0 
L 628 0 
L 628 4666 
z
" transform="scale(0.015625)"/>
       <path id="DejaVuSans-76" d="M 191 3500 
L 800 3500 
L 1894 563 
L 2988 3500 
L 3597 3500 
L 2284 0 
L 1503 0 
L 191 3500 
z
" transform="scale(0.015625)"/>
       <path id="DejaVuSans-69" d="M 603 3500 
L 1178 3500 
L 1178 0 
L 603 0 
L 603 3500 
z
M 603 4863 
L 1178 4863 
L 1178 4134 
L 603 4134 
L 603 4863 
z
" transform="scale(0.015625)"/>
       <path id="DejaVuSans-6f" d="M 1959 3097 
Q 1497 3097 1228 2736 
Q 959 2375 959 1747 
Q 959 1119 1226 758 
Q 1494 397 1959 397 
Q 2419 397 2687 759 
Q 2956 1122 2956 1747 
Q 2956 2369 2687 2733 
Q 2419 3097 1959 3097 
z
M 1959 3584 
Q 2709 3584 3137 3096 
Q 3566 2609 3566 1747 
Q 3566 888 3137 398 
Q 2709 -91 1959 -91 
Q 1206 -91 779 398 
Q 353 888 353 1747 
Q 353 2609 779 3096 
Q 1206 3584 1959 3584 
z
" transform="scale(0.015625)"/>
       <path id="DejaVuSans-66" d="M 2375 4863 
L 2375 4384 
L 1825 4384 
Q 1516 4384 1395 4259 
Q 1275 4134 1275 3809 
L 1275 3500 
L 2222 3500 
L 2222 3053 
L 1275 3053 
L 1275 0 
L 697 0 
L 697 3053 
L 147 3053 
L 147 3500 
L 697 3500 
L 697 3744 
Q 697 4328 969 4595 
Q 1241 4863 1831 4863 
L 2375 4863 
z
" transform="scale(0.015625)"/>
       <path id="DejaVuSans-6d" d="M 3328 2828 
Q 3544 3216 3844 3400 
Q 4144 3584 4550 3584 
Q 5097 3584 5394 3201 
Q 5691 2819 5691 2113 
L 5691 0 
L 5113 0 
L 5113 2094 
Q 5113 2597 4934 2840 
Q 4756 3084 4391 3084 
Q 3944 3084 3684 2787 
Q 3425 2491 3425 1978 
L 3425 0 
L 2847 0 
L 2847 2094 
Q 2847 2600 2669 2842 
Q 2491 3084 2119 3084 
Q 1678 3084 1418 2786 
Q 1159 2488 1159 1978 
L 1159 0 
L 581 0 
L 581 3500 
L 1159 3500 
L 1159 2956 
Q 1356 3278 1631 3431 
Q 1906 3584 2284 3584 
Q 2666 3584 2933 3390 
Q 3200 3197 3328 2828 
z
" transform="scale(0.015625)"/>
       <path id="DejaVuSans-50" d="M 1259 4147 
L 1259 2394 
L 2053 2394 
Q 2494 2394 2734 2622 
Q 2975 2850 2975 3272 
Q 2975 3691 2734 3919 
Q 2494 4147 2053 4147 
L 1259 4147 
z
M 628 4666 
L 2053 4666 
Q 2838 4666 3239 4311 
Q 3641 3956 3641 3272 
Q 3641 2581 3239 2228 
Q 2838 1875 2053 1875 
L 1259 1875 
L 1259 0 
L 628 0 
L 628 4666 
z
" transform="scale(0.015625)"/>
       <path id="DejaVuSans-6c" d="M 603 4863 
L 1178 4863 
L 1178 0 
L 603 0 
L 603 4863 
z
" transform="scale(0.015625)"/>
       <path id="DejaVuSans-4d" d="M 628 4666 
L 1569 4666 
L 2759 1491 
L 3956 4666 
L 4897 4666 
L 4897 0 
L 4281 0 
L 4281 4097 
L 3078 897 
L 2444 897 
L 1241 4097 
L 1241 0 
L 628 0 
L 628 4666 
z
" transform="scale(0.015625)"/>
      </defs>
      <use xlink:href="#DejaVuSans-53"/>
      <use xlink:href="#DejaVuSans-65" transform="translate(63.476562 0)"/>
      <use xlink:href="#DejaVuSans-61" transform="translate(125 0)"/>
      <use xlink:href="#DejaVuSans-72" transform="translate(186.279297 0)"/>
      <use xlink:href="#DejaVuSans-63" transform="translate(225.142578 0)"/>
      <use xlink:href="#DejaVuSans-68" transform="translate(280.123047 0)"/>
      <use xlink:href="#DejaVuSans-20" transform="translate(343.501953 0)"/>
      <use xlink:href="#DejaVuSans-49" transform="translate(375.289062 0)"/>
      <use xlink:href="#DejaVuSans-6e" transform="translate(404.78125 0)"/>
      <use xlink:href="#DejaVuSans-74" transform="translate(468.160156 0)"/>
      <use xlink:href="#DejaVuSans-65" transform="translate(507.369141 0)"/>
      <use xlink:href="#DejaVuSans-72" transform="translate(568.892578 0)"/>
      <use xlink:href="#DejaVuSans-65" transform="translate(607.755859 0)"/>
      <use xlink:href="#DejaVuSans-73" transform="translate(669.279297 0)"/>
      <use xlink:href="#DejaVuSans-74" transform="translate(721.378906 0)"/>
      <use xlink:href="#DejaVuSans-20" transform="translate(760.587891 0)"/>
      <use xlink:href="#DejaVuSans-44" transform="translate(792.375 0)"/>
      <use xlink:href="#DejaVuSans-65" transform="translate(869.376953 0)"/>
      <use xlink:href="#DejaVuSans-76" transform="translate(930.900391 0)"/>
      <use xlink:href="#DejaVuSans-69" transform="translate(990.080078 0)"/>
      <use xlink:href="#DejaVuSans-61" transform="translate(1017.863281 0)"/>
      <use xlink:href="#DejaVuSans-74" transform="translate(1079.142578 0)"/>
      <use xlink:href="#DejaVuSans-69" transform="translate(1118.351562 0)"/>
      <use xlink:href="#DejaVuSans-6f" transform="translate(1146.134766 0)"/>
      <use xlink:href="#DejaVuSans-6e" transform="translate(1207.316406 0)"/>
      <use xlink:href="#DejaVuSans-73" transform="translate(1270.695312 0)"/>
      <use xlink:href="#DejaVuSans-20" transform="translate(1322.794922 0)"/>
      <use xlink:href="#DejaVuSans-66" transform="translate(1354.582031 0)"/>
      <use xlink:href="#DejaVuSans-72" transform="translate(1389.787109 0)"/>
      <use xlink:href="#DejaVuSans-6f" transform="translate(1428.650391 0)"/>
      <use xlink:href="#DejaVuSans-6d" transform="translate(1489.832031 0)"/>
      <use xlink:href="#DejaVuSans-20" transform="translate(1587.244141 0)"/>
      <use xlink:href="#DejaVuSans-50" transform="translate(1619.03125 0)"/>
      <use xlink:href="#DejaVuSans-72" transform="translate(1677.583984 0)"/>
      <use xlink:href="#DejaVuSans-65" transform="translate(1716.447266 0)"/>
      <use xlink:href="#DejaVuSans-2d" transform="translate(1777.970703 0)"/>
      <use xlink:href="#DejaVuSans-76" transform="translate(1811.429688 0)"/>
      <use xlink:href="#DejaVuSans-69" transform="translate(1870.609375 0)"/>
      <use xlink:href="#DejaVuSans-72" transform="translate(1898.392578 0)"/>
      <use xlink:href="#DejaVuSans-61" transform="translate(1939.505859 0)"/>
      <use xlink:href="#DejaVuSans-6c" transform="translate(2000.785156 0)"/>
      <use xlink:href="#DejaVuSans-20" transform="translate(2028.568359 0)"/>
      <use xlink:href="#DejaVuSans-4d" transform="translate(2060.355469 0)"/>
      <use xlink:href="#DejaVuSans-65" transform="translate(2146.634766 0)"/>
      <use xlink:href="#DejaVuSans-61" transform="translate(2208.158203 0)"/>
      <use xlink:href="#DejaVuSans-6e" transform="translate(2269.4375 0)"/>
     </g>
    </g>
   </g>
   <g id="line2d_20">
    <path d="M 90.61708 194.772325 
L 95.233037 204.881659 
L 99.848994 191.402548 
L 104.464951 208.251437 
L 109.080909 211.621214 
L 113.696866 214.990992 
L 118.312823 214.990992 
L 122.92878 214.990992 
L 127.544737 218.36077 
L 132.160694 208.251437 
L 136.776652 201.511881 
L 141.392609 218.36077 
L 146.008566 211.621214 
L 150.624523 208.251437 
L 155.24048 211.621214 
L 159.856437 211.621214 
L 164.472395 208.251437 
L 169.088352 218.36077 
L 173.704309 211.621214 
L 178.320266 218.36077 
L 182.936223 218.36077 
L 187.55218 214.990992 
L 192.168138 211.621214 
L 196.784095 221.730548 
L 201.400052 218.36077 
L 206.016009 228.470103 
L 210.631966 225.100325 
L 215.247923 218.36077 
L 219.863881 225.100325 
L 224.479838 228.470103 
L 229.095795 228.470103 
L 233.711752 241.949214 
L 238.327709 228.470103 
L 242.943666 228.470103 
L 247.559624 228.470103 
L 252.175581 225.100325 
L 256.791538 201.511881 
L 261.407495 228.470103 
L 266.023452 238.579437 
L 270.639409 238.579437 
L 275.255367 228.470103 
L 279.871324 225.100325 
L 284.487281 208.251437 
L 289.103238 191.402548 
L 293.719195 198.142103 
L 298.335152 218.36077 
L 302.95111 218.36077 
L 307.567067 225.100325 
L 312.183024 225.100325 
L 316.798981 225.100325 
L 321.414938 204.881659 
L 326.030896 211.621214 
L 330.646853 214.990992 
L 335.26281 204.881659 
L 339.878767 188.03277 
L 344.494724 204.881659 
L 349.110681 211.621214 
L 353.726639 214.990992 
L 358.342596 221.730548 
L 362.958553 218.36077 
L 367.57451 221.730548 
L 372.190467 225.100325 
L 376.806424 221.730548 
L 381.422382 204.881659 
L 386.038339 218.36077 
L 390.654296 218.36077 
L 395.270253 218.36077 
L 399.88621 218.36077 
L 404.502167 211.621214 
L 409.118125 218.36077 
L 413.734082 211.621214 
L 418.350039 214.990992 
L 422.965996 214.990992 
L 427.581953 214.990992 
L 432.19791 218.36077 
L 436.813868 214.990992 
L 441.429825 221.730548 
L 446.045782 231.839881 
L 450.661739 235.209659 
L 455.277696 225.100325 
L 459.893653 241.949214 
L 464.509611 228.470103 
L 469.125568 221.730548 
L 473.741525 214.990992 
L 478.357482 204.881659 
L 482.973439 204.881659 
L 487.589396 208.251437 
L 492.205354 221.730548 
L 496.821311 198.142103 
L 501.437268 221.730548 
L 506.053225 235.209659 
L 510.669182 238.579437 
L 515.28514 228.470103 
L 519.901097 231.839881 
L 524.517054 218.36077 
L 529.133011 218.36077 
L 533.748968 204.881659 
L 538.364925 231.839881 
L 542.980883 221.730548 
L 547.59684 214.990992 
L 552.212797 225.100325 
L 556.828754 225.100325 
L 561.444711 214.990992 
L 566.060668 204.881659 
L 570.676626 211.621214 
L 575.292583 211.621214 
L 579.90854 198.142103 
L 584.524497 211.621214 
L 589.140454 204.881659 
L 593.756411 201.511881 
L 598.372369 221.730548 
L 602.988326 214.990992 
" clip-path="url(#p8efae37d26)" style="fill: none; stroke-dasharray: 1.5,2.475; stroke-dashoffset: 0; stroke: #ff0000; stroke-width: 1.5"/>
   </g>
   <g id="line2d_21">
    <path d="M 635.300026 188.03277 
L 639.915983 201.511881 
L 644.53194 204.881659 
L 649.147897 208.251437 
L 653.763855 201.511881 
L 658.379812 201.511881 
L 662.995769 201.511881 
L 667.611726 194.772325 
L 672.227683 198.142103 
L 676.84364 201.511881 
L 681.459598 177.923437 
L 686.075555 177.923437 
L 690.691512 194.772325 
L 695.307469 198.142103 
L 699.923426 211.621214 
L 704.539384 181.293214 
L 709.155341 184.662992 
L 713.771298 167.814103 
L 718.387255 154.334992 
L 723.003212 147.595437 
L 727.619169 157.70477 
L 732.235127 161.074548 
L 736.851084 157.70477 
L 741.467041 127.37677 
L 746.082998 161.074548 
L 750.698955 177.923437 
L 755.314912 181.293214 
L 759.93087 177.923437 
L 764.546827 157.70477 
L 769.162784 140.855881 
L 773.778741 124.006992 
L 778.394698 174.553659 
L 783.010655 171.183881 
L 787.626613 167.814103 
L 792.24257 161.074548 
L 796.858527 181.293214 
L 801.474484 171.183881 
L 806.090441 154.334992 
L 810.706398 154.334992 
L 815.322356 164.444325 
L 819.938313 147.595437 
L 824.55427 154.334992 
L 829.170227 167.814103 
L 833.786184 171.183881 
L 838.402141 171.183881 
L 843.018099 177.923437 
L 847.634056 171.183881 
L 852.250013 181.293214 
L 856.86597 181.293214 
L 861.481927 161.074548 
L 866.097884 161.074548 
L 870.713842 154.334992 
L 875.329799 157.70477 
L 879.945756 177.923437 
L 884.561713 174.553659 
L 889.17767 177.923437 
L 893.793628 171.183881 
L 898.409585 174.553659 
L 903.025542 171.183881 
L 907.641499 161.074548 
L 912.257456 157.70477 
L 916.873413 167.814103 
L 921.489371 177.923437 
L 926.105328 174.553659 
L 930.721285 198.142103 
L 935.337242 191.402548 
L 939.953199 208.251437 
L 944.569156 194.772325 
L 949.185114 181.293214 
L 953.801071 181.293214 
L 958.417028 171.183881 
L 963.032985 174.553659 
L 967.648942 181.293214 
L 972.264899 177.923437 
L 976.880857 154.334992 
L 981.496814 93.678992 
L 986.112771 124.006992 
L 990.728728 147.595437 
L 995.344685 191.402548 
L 999.960642 174.553659 
L 1004.5766 184.662992 
L 1009.192557 157.70477 
L 1013.808514 100.418548 
L 1018.424471 177.923437 
L 1023.040428 177.923437 
L 1027.656385 177.923437 
L 1032.272343 167.814103 
L 1036.8883 167.814103 
L 1041.504257 174.553659 
L 1046.120214 164.444325 
L 1050.736171 161.074548 
L 1055.352128 161.074548 
L 1059.968086 164.444325 
L 1064.584043 164.444325 
" clip-path="url(#p8efae37d26)" style="fill: none; stroke-dasharray: 1.5,2.475; stroke-dashoffset: 0; stroke: #ff0000; stroke-width: 1.5"/>
   </g>
   <g id="line2d_22">
    <path d="M 607.604283 208.251437 
L 612.22024 174.553659 
L 616.836197 157.70477 
L 621.452154 12.804325 
L 626.068112 120.637214 
L 630.684069 171.183881 
" clip-path="url(#p8efae37d26)" style="fill: none; stroke-dasharray: 5.55,2.4; stroke-dashoffset: 0; stroke: #ff0000; stroke-width: 1.5"/>
   </g>
   <g id="line2d_23">
    <path d="M 90.61708 184.723167 
L 95.233037 198.202278 
L 99.848994 174.613833 
L 104.464951 198.202278 
L 109.080909 201.572056 
L 113.696866 198.202278 
L 118.312823 198.202278 
L 122.92878 204.941833 
L 127.544737 218.420944 
L 132.160694 211.681389 
L 136.776652 201.572056 
L 141.392609 225.1605 
L 146.008566 215.051167 
L 150.624523 204.941833 
L 155.24048 215.051167 
L 159.856437 221.790722 
L 164.472395 194.8325 
L 169.088352 218.420944 
L 173.704309 194.8325 
L 178.320266 211.681389 
L 182.936223 194.8325 
L 187.55218 211.681389 
L 192.168138 215.051167 
L 196.784095 215.051167 
L 201.400052 225.1605 
L 206.016009 235.269833 
L 210.631966 225.1605 
L 215.247923 181.353389 
L 219.863881 215.051167 
L 224.479838 194.8325 
L 229.095795 218.420944 
L 233.711752 238.639611 
L 238.327709 218.420944 
L 242.943666 218.420944 
L 247.559624 225.1605 
L 252.175581 231.900056 
L 256.791538 198.202278 
L 261.407495 242.009389 
L 266.023452 228.530278 
L 270.639409 248.748944 
L 275.255367 235.269833 
L 279.871324 231.900056 
L 284.487281 225.1605 
L 289.103238 184.723167 
L 293.719195 215.051167 
L 298.335152 208.311611 
L 302.95111 181.353389 
L 307.567067 204.941833 
L 312.183024 198.202278 
L 316.798981 211.681389 
L 321.414938 191.462722 
L 326.030896 215.051167 
L 330.646853 221.790722 
L 335.26281 228.530278 
L 339.878767 218.420944 
L 344.494724 231.900056 
L 349.110681 242.009389 
L 353.726639 235.269833 
L 358.342596 238.639611 
L 362.958553 238.639611 
L 367.57451 242.009389 
L 372.190467 255.4885 
L 376.806424 248.748944 
L 381.422382 225.1605 
L 386.038339 231.900056 
L 390.654296 218.420944 
L 395.270253 215.051167 
L 399.88621 225.1605 
L 404.502167 225.1605 
L 409.118125 228.530278 
L 413.734082 221.790722 
L 418.350039 238.639611 
L 422.965996 235.269833 
L 427.581953 242.009389 
L 432.19791 245.379167 
L 436.813868 228.530278 
L 441.429825 167.874278 
L 446.045782 194.8325 
L 450.661739 215.051167 
L 455.277696 221.790722 
L 459.893653 235.269833 
L 464.509611 231.900056 
L 469.125568 245.379167 
L 473.741525 161.134722 
L 478.357482 127.436944 
L 482.973439 184.723167 
L 487.589396 211.681389 
L 492.205354 228.530278 
L 496.821311 208.311611 
L 501.437268 238.639611 
L 506.053225 235.269833 
L 510.669182 248.748944 
L 515.28514 248.748944 
L 519.901097 248.748944 
L 524.517054 235.269833 
L 529.133011 201.572056 
L 533.748968 221.790722 
L 538.364925 228.530278 
L 542.980883 177.983611 
L 547.59684 161.134722 
L 552.212797 215.051167 
L 556.828754 225.1605 
L 561.444711 218.420944 
L 566.060668 211.681389 
L 570.676626 221.790722 
L 575.292583 211.681389 
L 579.90854 228.530278 
L 584.524497 225.1605 
L 589.140454 215.051167 
L 593.756411 221.790722 
L 598.372369 231.900056 
L 602.988326 231.900056 
" clip-path="url(#p8efae37d26)" style="fill: none; stroke-dasharray: 1.5,2.475; stroke-dashoffset: 0; stroke: #1f77b4; stroke-width: 1.5"/>
   </g>
   <g id="line2d_24">
    <path d="M 635.300026 252.118722 
L 639.915983 252.118722 
L 644.53194 252.118722 
L 649.147897 255.4885 
L 653.763855 245.379167 
L 658.379812 265.597833 
L 662.995769 255.4885 
L 667.611726 255.4885 
L 672.227683 231.900056 
L 676.84364 228.530278 
L 681.459598 235.269833 
L 686.075555 238.639611 
L 690.691512 255.4885 
L 695.307469 248.748944 
L 699.923426 265.597833 
L 704.539384 252.118722 
L 709.155341 255.4885 
L 713.771298 242.009389 
L 718.387255 215.051167 
L 723.003212 231.900056 
L 727.619169 252.118722 
L 732.235127 252.118722 
L 736.851084 279.076944 
L 741.467041 231.900056 
L 746.082998 268.967611 
L 750.698955 262.228056 
L 755.314912 279.076944 
L 759.93087 275.707167 
L 764.546827 262.228056 
L 769.162784 218.420944 
L 773.778741 221.790722 
L 778.394698 268.967611 
L 783.010655 262.228056 
L 787.626613 262.228056 
L 792.24257 265.597833 
L 796.858527 265.597833 
L 801.474484 262.228056 
L 806.090441 252.118722 
L 810.706398 238.639611 
L 815.322356 255.4885 
L 819.938313 252.118722 
L 824.55427 245.379167 
L 829.170227 262.228056 
L 833.786184 255.4885 
L 838.402141 245.379167 
L 843.018099 252.118722 
L 847.634056 252.118722 
L 852.250013 255.4885 
L 856.86597 258.858278 
L 861.481927 262.228056 
L 866.097884 245.379167 
L 870.713842 231.900056 
L 875.329799 252.118722 
L 879.945756 255.4885 
L 884.561713 262.228056 
L 889.17767 262.228056 
L 893.793628 262.228056 
L 898.409585 262.228056 
L 903.025542 255.4885 
L 907.641499 255.4885 
L 912.257456 248.748944 
L 916.873413 262.228056 
L 921.489371 265.597833 
L 926.105328 272.337389 
L 930.721285 275.707167 
L 935.337242 272.337389 
L 939.953199 289.186278 
L 944.569156 285.8165 
L 949.185114 279.076944 
L 953.801071 279.076944 
L 958.417028 272.337389 
L 963.032985 268.967611 
L 967.648942 275.707167 
L 972.264899 272.337389 
L 976.880857 272.337389 
L 981.496814 231.900056 
L 986.112771 275.707167 
L 990.728728 272.337389 
L 995.344685 285.8165 
L 999.960642 279.076944 
L 1004.5766 275.707167 
L 1009.192557 228.530278 
L 1013.808514 238.639611 
L 1018.424471 255.4885 
L 1023.040428 238.639611 
L 1027.656385 255.4885 
L 1032.272343 255.4885 
L 1036.8883 258.858278 
L 1041.504257 262.228056 
L 1046.120214 255.4885 
L 1050.736171 242.009389 
L 1055.352128 255.4885 
L 1059.968086 258.858278 
L 1064.584043 248.748944 
" clip-path="url(#p8efae37d26)" style="fill: none; stroke-dasharray: 1.5,2.475; stroke-dashoffset: 0; stroke: #1f77b4; stroke-width: 1.5"/>
   </g>
   <g id="line2d_25">
    <path d="M 90.61708 205.513492 
L 95.233037 205.513492 
L 99.848994 202.143714 
L 104.464951 205.513492 
L 109.080909 208.88327 
L 113.696866 208.88327 
L 118.312823 208.88327 
L 122.92878 212.253048 
L 127.544737 208.88327 
L 132.160694 205.513492 
L 136.776652 205.513492 
L 141.392609 212.253048 
L 146.008566 212.253048 
L 150.624523 212.253048 
L 155.24048 212.253048 
L 159.856437 212.253048 
L 164.472395 208.88327 
L 169.088352 212.253048 
L 173.704309 208.88327 
L 178.320266 208.88327 
L 182.936223 208.88327 
L 187.55218 212.253048 
L 192.168138 212.253048 
L 196.784095 215.622825 
L 201.400052 212.253048 
L 206.016009 215.622825 
L 210.631966 215.622825 
L 215.247923 215.622825 
L 219.863881 215.622825 
L 224.479838 218.992603 
L 229.095795 218.992603 
L 233.711752 222.362381 
L 238.327709 218.992603 
L 242.943666 212.253048 
L 247.559624 218.992603 
L 252.175581 225.732159 
L 256.791538 218.992603 
L 261.407495 222.362381 
L 266.023452 222.362381 
L 270.639409 225.732159 
L 275.255367 218.992603 
L 279.871324 222.362381 
L 284.487281 222.362381 
L 289.103238 205.513492 
L 293.719195 218.992603 
L 298.335152 222.362381 
L 302.95111 218.992603 
L 307.567067 222.362381 
L 312.183024 218.992603 
L 316.798981 218.992603 
L 321.414938 212.253048 
L 326.030896 215.622825 
L 330.646853 218.992603 
L 335.26281 215.622825 
L 339.878767 215.622825 
L 344.494724 215.622825 
L 349.110681 218.992603 
L 353.726639 215.622825 
L 358.342596 215.622825 
L 362.958553 215.622825 
L 367.57451 215.622825 
L 372.190467 212.253048 
L 376.806424 215.622825 
L 381.422382 212.253048 
L 386.038339 218.992603 
L 390.654296 215.622825 
L 395.270253 215.622825 
L 399.88621 215.622825 
L 404.502167 212.253048 
L 409.118125 208.88327 
L 413.734082 212.253048 
L 418.350039 215.622825 
L 422.965996 215.622825 
L 427.581953 212.253048 
L 432.19791 215.622825 
L 436.813868 222.362381 
L 441.429825 218.992603 
L 446.045782 222.362381 
L 450.661739 222.362381 
L 455.277696 222.362381 
L 459.893653 222.362381 
L 464.509611 222.362381 
L 469.125568 222.362381 
L 473.741525 222.362381 
L 478.357482 222.362381 
L 482.973439 218.992603 
L 487.589396 222.362381 
L 492.205354 222.362381 
L 496.821311 222.362381 
L 501.437268 222.362381 
L 506.053225 222.362381 
L 510.669182 225.732159 
L 515.28514 222.362381 
L 519.901097 222.362381 
L 524.517054 222.362381 
L 529.133011 212.253048 
L 533.748968 188.664603 
L 538.364925 225.732159 
L 542.980883 225.732159 
L 547.59684 225.732159 
L 552.212797 225.732159 
L 556.828754 225.732159 
L 561.444711 222.362381 
L 566.060668 218.992603 
L 570.676626 222.362381 
L 575.292583 222.362381 
L 579.90854 222.362381 
L 584.524497 222.362381 
L 589.140454 225.732159 
L 593.756411 225.732159 
L 598.372369 225.732159 
L 602.988326 225.732159 
" clip-path="url(#p8efae37d26)" style="fill: none; stroke-dasharray: 1.5,2.475; stroke-dashoffset: 0; stroke: #2ca02c; stroke-width: 1.5"/>
   </g>
   <g id="line2d_26">
    <path d="M 635.300026 222.362381 
L 639.915983 225.732159 
L 644.53194 222.362381 
L 649.147897 225.732159 
L 653.763855 225.732159 
L 658.379812 225.732159 
L 662.995769 229.101937 
L 667.611726 225.732159 
L 672.227683 225.732159 
L 676.84364 229.101937 
L 681.459598 225.732159 
L 686.075555 225.732159 
L 690.691512 229.101937 
L 695.307469 225.732159 
L 699.923426 229.101937 
L 704.539384 229.101937 
L 709.155341 229.101937 
L 713.771298 229.101937 
L 718.387255 229.101937 
L 723.003212 229.101937 
L 727.619169 222.362381 
L 732.235127 218.992603 
L 736.851084 218.992603 
L 741.467041 222.362381 
L 746.082998 229.101937 
L 750.698955 232.471714 
L 755.314912 232.471714 
L 759.93087 232.471714 
L 764.546827 232.471714 
L 769.162784 225.732159 
L 773.778741 229.101937 
L 778.394698 232.471714 
L 783.010655 235.841492 
L 787.626613 232.471714 
L 792.24257 232.471714 
L 796.858527 229.101937 
L 801.474484 229.101937 
L 806.090441 232.471714 
L 810.706398 229.101937 
L 815.322356 232.471714 
L 819.938313 232.471714 
L 824.55427 229.101937 
L 829.170227 232.471714 
L 833.786184 232.471714 
L 838.402141 232.471714 
L 843.018099 229.101937 
L 847.634056 232.471714 
L 852.250013 232.471714 
L 856.86597 232.471714 
L 861.481927 232.471714 
L 866.097884 235.841492 
L 870.713842 232.471714 
L 875.329799 232.471714 
L 879.945756 235.841492 
L 884.561713 235.841492 
L 889.17767 235.841492 
L 893.793628 235.841492 
L 898.409585 232.471714 
L 903.025542 232.471714 
L 907.641499 232.471714 
L 912.257456 232.471714 
L 916.873413 232.471714 
L 921.489371 232.471714 
L 926.105328 232.471714 
L 930.721285 235.841492 
L 935.337242 232.471714 
L 939.953199 235.841492 
L 944.569156 235.841492 
L 949.185114 235.841492 
L 953.801071 235.841492 
L 958.417028 235.841492 
L 963.032985 232.471714 
L 967.648942 235.841492 
L 972.264899 235.841492 
L 976.880857 235.841492 
L 981.496814 232.471714 
L 986.112771 235.841492 
L 990.728728 235.841492 
L 995.344685 239.21127 
L 999.960642 235.841492 
L 1004.5766 235.841492 
L 1009.192557 235.841492 
L 1013.808514 235.841492 
L 1018.424471 235.841492 
L 1023.040428 239.21127 
L 1027.656385 239.21127 
L 1032.272343 239.21127 
L 1036.8883 239.21127 
L 1041.504257 239.21127 
L 1046.120214 235.841492 
L 1050.736171 239.21127 
L 1055.352128 235.841492 
L 1059.968086 235.841492 
L 1064.584043 235.841492 
" clip-path="url(#p8efae37d26)" style="fill: none; stroke-dasharray: 1.5,2.475; stroke-dashoffset: 0; stroke: #2ca02c; stroke-width: 1.5"/>
   </g>
   <g id="line2d_27">
    <path d="M 90.61708 196.246603 
L 95.233037 202.986159 
L 99.848994 196.246603 
L 104.464951 192.876825 
L 109.080909 206.355937 
L 113.696866 206.355937 
L 118.312823 202.986159 
L 122.92878 209.725714 
L 127.544737 209.725714 
L 132.160694 196.246603 
L 136.776652 176.027937 
L 141.392609 216.46527 
L 146.008566 216.46527 
L 150.624523 216.46527 
L 155.24048 216.46527 
L 159.856437 209.725714 
L 164.472395 189.507048 
L 169.088352 213.095492 
L 173.704309 202.986159 
L 178.320266 209.725714 
L 182.936223 202.986159 
L 187.55218 206.355937 
L 192.168138 213.095492 
L 196.784095 213.095492 
L 201.400052 213.095492 
L 206.016009 216.46527 
L 210.631966 219.835048 
L 215.247923 216.46527 
L 219.863881 233.314159 
L 224.479838 223.204825 
L 229.095795 226.574603 
L 233.711752 240.053714 
L 238.327709 226.574603 
L 242.943666 223.204825 
L 247.559624 229.944381 
L 252.175581 233.314159 
L 256.791538 226.574603 
L 261.407495 229.944381 
L 266.023452 233.314159 
L 270.639409 240.053714 
L 275.255367 229.944381 
L 279.871324 216.46527 
L 284.487281 196.246603 
L 289.103238 176.027937 
L 293.719195 192.876825 
L 298.335152 206.355937 
L 302.95111 202.986159 
L 307.567067 213.095492 
L 312.183024 216.46527 
L 316.798981 206.355937 
L 321.414938 176.027937 
L 326.030896 216.46527 
L 330.646853 219.835048 
L 335.26281 216.46527 
L 339.878767 209.725714 
L 344.494724 213.095492 
L 349.110681 219.835048 
L 353.726639 223.204825 
L 358.342596 226.574603 
L 362.958553 223.204825 
L 367.57451 223.204825 
L 372.190467 226.574603 
L 376.806424 213.095492 
L 381.422382 202.986159 
L 386.038339 229.944381 
L 390.654296 226.574603 
L 395.270253 229.944381 
L 399.88621 216.46527 
L 404.502167 202.986159 
L 409.118125 226.574603 
L 413.734082 219.835048 
L 418.350039 226.574603 
L 422.965996 229.944381 
L 427.581953 223.204825 
L 432.19791 223.204825 
L 436.813868 226.574603 
L 441.429825 223.204825 
L 446.045782 229.944381 
L 450.661739 240.053714 
L 455.277696 233.314159 
L 459.893653 236.683937 
L 464.509611 240.053714 
L 469.125568 243.423492 
L 473.741525 243.423492 
L 478.357482 240.053714 
L 482.973439 233.314159 
L 487.589396 236.683937 
L 492.205354 236.683937 
L 496.821311 223.204825 
L 501.437268 229.944381 
L 506.053225 240.053714 
L 510.669182 240.053714 
L 515.28514 223.204825 
L 519.901097 219.835048 
L 524.517054 196.246603 
L 529.133011 186.13727 
L 533.748968 196.246603 
L 538.364925 216.46527 
L 542.980883 213.095492 
L 547.59684 223.204825 
L 552.212797 229.944381 
L 556.828754 213.095492 
L 561.444711 186.13727 
L 566.060668 196.246603 
L 570.676626 182.767492 
L 575.292583 206.355937 
L 579.90854 206.355937 
L 584.524497 223.204825 
L 589.140454 226.574603 
L 593.756411 226.574603 
L 598.372369 229.944381 
L 602.988326 223.204825 
" clip-path="url(#p8efae37d26)" style="fill: none; stroke-dasharray: 1.5,2.475; stroke-dashoffset: 0; stroke: #8c564b; stroke-width: 1.5"/>
   </g>
   <g id="line2d_28">
    <path d="M 635.300026 236.683937 
L 639.915983 229.944381 
L 644.53194 209.725714 
L 649.147897 226.574603 
L 653.763855 229.944381 
L 658.379812 229.944381 
L 662.995769 216.46527 
L 667.611726 219.835048 
L 672.227683 226.574603 
L 676.84364 233.314159 
L 681.459598 226.574603 
L 686.075555 226.574603 
L 690.691512 236.683937 
L 695.307469 240.053714 
L 699.923426 243.423492 
L 704.539384 240.053714 
L 709.155341 243.423492 
L 713.771298 246.79327 
L 718.387255 250.163048 
L 723.003212 246.79327 
L 727.619169 250.163048 
L 732.235127 250.163048 
L 736.851084 253.532825 
L 741.467041 240.053714 
L 746.082998 243.423492 
L 750.698955 246.79327 
L 755.314912 253.532825 
L 759.93087 246.79327 
L 764.546827 236.683937 
L 769.162784 213.095492 
L 773.778741 213.095492 
L 778.394698 240.053714 
L 783.010655 236.683937 
L 787.626613 243.423492 
L 792.24257 236.683937 
L 796.858527 243.423492 
L 801.474484 216.46527 
L 806.090441 233.314159 
L 810.706398 233.314159 
L 815.322356 236.683937 
L 819.938313 236.683937 
L 824.55427 240.053714 
L 829.170227 243.423492 
L 833.786184 246.79327 
L 838.402141 246.79327 
L 843.018099 243.423492 
L 847.634056 243.423492 
L 852.250013 246.79327 
L 856.86597 240.053714 
L 861.481927 229.944381 
L 866.097884 243.423492 
L 870.713842 236.683937 
L 875.329799 246.79327 
L 879.945756 236.683937 
L 884.561713 229.944381 
L 889.17767 250.163048 
L 893.793628 256.902603 
L 898.409585 243.423492 
L 903.025542 240.053714 
L 907.641499 240.053714 
L 912.257456 240.053714 
L 916.873413 240.053714 
L 921.489371 240.053714 
L 926.105328 233.314159 
L 930.721285 250.163048 
L 935.337242 250.163048 
L 939.953199 253.532825 
L 944.569156 243.423492 
L 949.185114 250.163048 
L 953.801071 253.532825 
L 958.417028 253.532825 
L 963.032985 246.79327 
L 967.648942 250.163048 
L 972.264899 250.163048 
L 976.880857 243.423492 
L 981.496814 206.355937 
L 986.112771 246.79327 
L 990.728728 253.532825 
L 995.344685 250.163048 
L 999.960642 240.053714 
L 1004.5766 233.314159 
L 1009.192557 213.095492 
L 1013.808514 202.986159 
L 1018.424471 240.053714 
L 1023.040428 243.423492 
L 1027.656385 246.79327 
L 1032.272343 246.79327 
L 1036.8883 243.423492 
L 1041.504257 219.835048 
L 1046.120214 233.314159 
L 1050.736171 243.423492 
L 1055.352128 243.423492 
L 1059.968086 240.053714 
L 1064.584043 243.423492 
" clip-path="url(#p8efae37d26)" style="fill: none; stroke-dasharray: 1.5,2.475; stroke-dashoffset: 0; stroke: #8c564b; stroke-width: 1.5"/>
   </g>
   <g id="line2d_29">
    <path d="M 90.61708 202.835722 
L 95.233037 206.2055 
L 99.848994 202.835722 
L 104.464951 202.835722 
L 109.080909 202.835722 
L 113.696866 209.575278 
L 118.312823 209.575278 
L 122.92878 209.575278 
L 127.544737 206.2055 
L 132.160694 209.575278 
L 136.776652 206.2055 
L 141.392609 212.945056 
L 146.008566 206.2055 
L 150.624523 202.835722 
L 155.24048 209.575278 
L 159.856437 202.835722 
L 164.472395 202.835722 
L 169.088352 206.2055 
L 173.704309 202.835722 
L 178.320266 206.2055 
L 182.936223 206.2055 
L 187.55218 202.835722 
L 192.168138 209.575278 
L 196.784095 209.575278 
L 201.400052 216.314833 
L 206.016009 216.314833 
L 210.631966 212.945056 
L 215.247923 212.945056 
L 219.863881 216.314833 
L 224.479838 219.684611 
L 229.095795 216.314833 
L 233.711752 223.054389 
L 238.327709 219.684611 
L 242.943666 216.314833 
L 247.559624 219.684611 
L 252.175581 216.314833 
L 256.791538 206.2055 
L 261.407495 216.314833 
L 266.023452 216.314833 
L 270.639409 223.054389 
L 275.255367 219.684611 
L 279.871324 216.314833 
L 284.487281 209.575278 
L 289.103238 196.096167 
L 293.719195 212.945056 
L 298.335152 216.314833 
L 302.95111 212.945056 
L 307.567067 219.684611 
L 312.183024 219.684611 
L 316.798981 219.684611 
L 321.414938 219.684611 
L 326.030896 212.945056 
L 330.646853 212.945056 
L 335.26281 216.314833 
L 339.878767 212.945056 
L 344.494724 216.314833 
L 349.110681 212.945056 
L 353.726639 216.314833 
L 358.342596 219.684611 
L 362.958553 219.684611 
L 367.57451 223.054389 
L 372.190467 223.054389 
L 376.806424 223.054389 
L 381.422382 223.054389 
L 386.038339 226.424167 
L 390.654296 219.684611 
L 395.270253 219.684611 
L 399.88621 219.684611 
L 404.502167 216.314833 
L 409.118125 219.684611 
L 413.734082 216.314833 
L 418.350039 219.684611 
L 422.965996 219.684611 
L 427.581953 219.684611 
L 432.19791 219.684611 
L 436.813868 223.054389 
L 441.429825 223.054389 
L 446.045782 223.054389 
L 450.661739 226.424167 
L 455.277696 226.424167 
L 459.893653 229.793944 
L 464.509611 223.054389 
L 469.125568 226.424167 
L 473.741525 226.424167 
L 478.357482 226.424167 
L 482.973439 226.424167 
L 487.589396 229.793944 
L 492.205354 226.424167 
L 496.821311 216.314833 
L 501.437268 226.424167 
L 506.053225 226.424167 
L 510.669182 229.793944 
L 515.28514 226.424167 
L 519.901097 223.054389 
L 524.517054 216.314833 
L 529.133011 216.314833 
L 533.748968 216.314833 
L 538.364925 226.424167 
L 542.980883 226.424167 
L 547.59684 223.054389 
L 552.212797 226.424167 
L 556.828754 226.424167 
L 561.444711 219.684611 
L 566.060668 216.314833 
L 570.676626 223.054389 
L 575.292583 219.684611 
L 579.90854 219.684611 
L 584.524497 216.314833 
L 589.140454 219.684611 
L 593.756411 223.054389 
L 598.372369 226.424167 
L 602.988326 223.054389 
" clip-path="url(#p8efae37d26)" style="fill: none; stroke-dasharray: 1.5,2.475; stroke-dashoffset: 0; stroke: #9467bd; stroke-width: 1.5"/>
   </g>
   <g id="line2d_30">
    <path d="M 635.300026 223.054389 
L 639.915983 223.054389 
L 644.53194 216.314833 
L 649.147897 223.054389 
L 653.763855 219.684611 
L 658.379812 226.424167 
L 662.995769 223.054389 
L 667.611726 223.054389 
L 672.227683 223.054389 
L 676.84364 226.424167 
L 681.459598 226.424167 
L 686.075555 226.424167 
L 690.691512 229.793944 
L 695.307469 229.793944 
L 699.923426 233.163722 
L 704.539384 226.424167 
L 709.155341 233.163722 
L 713.771298 233.163722 
L 718.387255 236.5335 
L 723.003212 236.5335 
L 727.619169 233.163722 
L 732.235127 233.163722 
L 736.851084 239.903278 
L 741.467041 223.054389 
L 746.082998 236.5335 
L 750.698955 233.163722 
L 755.314912 236.5335 
L 759.93087 236.5335 
L 764.546827 229.793944 
L 769.162784 223.054389 
L 773.778741 219.684611 
L 778.394698 233.163722 
L 783.010655 233.163722 
L 787.626613 236.5335 
L 792.24257 233.163722 
L 796.858527 236.5335 
L 801.474484 229.793944 
L 806.090441 229.793944 
L 810.706398 226.424167 
L 815.322356 223.054389 
L 819.938313 226.424167 
L 824.55427 226.424167 
L 829.170227 229.793944 
L 833.786184 233.163722 
L 838.402141 236.5335 
L 843.018099 175.8775 
L 847.634056 229.793944 
L 852.250013 229.793944 
L 856.86597 233.163722 
L 861.481927 233.163722 
L 866.097884 233.163722 
L 870.713842 229.793944 
L 875.329799 236.5335 
L 879.945756 236.5335 
L 884.561713 236.5335 
L 889.17767 236.5335 
L 893.793628 236.5335 
L 898.409585 239.903278 
L 903.025542 239.903278 
L 907.641499 233.163722 
L 912.257456 236.5335 
L 916.873413 233.163722 
L 921.489371 236.5335 
L 926.105328 236.5335 
L 930.721285 239.903278 
L 935.337242 236.5335 
L 939.953199 243.273056 
L 944.569156 239.903278 
L 949.185114 239.903278 
L 953.801071 239.903278 
L 958.417028 239.903278 
L 963.032985 239.903278 
L 967.648942 243.273056 
L 972.264899 239.903278 
L 976.880857 236.5335 
L 981.496814 219.684611 
L 986.112771 239.903278 
L 990.728728 239.903278 
L 995.344685 239.903278 
L 999.960642 236.5335 
L 1004.5766 236.5335 
L 1009.192557 226.424167 
L 1013.808514 216.314833 
L 1018.424471 233.163722 
L 1023.040428 236.5335 
L 1027.656385 236.5335 
L 1032.272343 226.424167 
L 1036.8883 233.163722 
L 1041.504257 236.5335 
L 1046.120214 233.163722 
L 1050.736171 229.793944 
L 1055.352128 233.163722 
L 1059.968086 226.424167 
L 1064.584043 233.163722 
" clip-path="url(#p8efae37d26)" style="fill: none; stroke-dasharray: 1.5,2.475; stroke-dashoffset: 0; stroke: #9467bd; stroke-width: 1.5"/>
   </g>
   <g id="line2d_31">
    <path d="M 90.61708 215.367679 
L 95.233037 215.394501 
L 99.848994 215.421323 
L 104.464951 215.448145 
L 109.080909 215.474967 
L 113.696866 215.50179 
L 118.312823 215.528612 
L 122.92878 215.555434 
L 127.544737 215.582256 
L 132.160694 215.609078 
L 136.776652 215.6359 
L 141.392609 215.662722 
L 146.008566 215.689544 
L 150.624523 215.716366 
L 155.24048 215.743189 
L 159.856437 215.770011 
L 164.472395 215.796833 
L 169.088352 215.823655 
L 173.704309 215.850477 
L 178.320266 215.877299 
L 182.936223 215.904121 
L 187.55218 215.930943 
L 192.168138 215.957766 
L 196.784095 215.984588 
L 201.400052 216.01141 
L 206.016009 216.038232 
L 210.631966 216.065054 
L 215.247923 216.091876 
L 219.863881 216.118698 
L 224.479838 216.14552 
L 229.095795 216.172343 
L 233.711752 216.199165 
L 238.327709 216.225987 
L 242.943666 216.252809 
L 247.559624 216.279631 
L 252.175581 216.306453 
L 256.791538 216.333275 
L 261.407495 216.360097 
L 266.023452 216.38692 
L 270.639409 216.413742 
L 275.255367 216.440564 
L 279.871324 216.467386 
L 284.487281 216.494208 
L 289.103238 216.52103 
L 293.719195 216.547852 
L 298.335152 216.574674 
L 302.95111 216.601497 
L 307.567067 216.628319 
L 312.183024 216.655141 
L 316.798981 216.681963 
L 321.414938 216.708785 
L 326.030896 216.735607 
L 330.646853 216.762429 
L 335.26281 216.789251 
L 339.878767 216.816073 
L 344.494724 216.842896 
L 349.110681 216.869718 
L 353.726639 216.89654 
L 358.342596 216.923362 
L 362.958553 216.950184 
L 367.57451 216.977006 
L 372.190467 217.003828 
L 376.806424 217.03065 
L 381.422382 217.057473 
L 386.038339 217.084295 
L 390.654296 217.111117 
L 395.270253 217.137939 
L 399.88621 217.164761 
L 404.502167 217.191583 
L 409.118125 217.218405 
L 413.734082 217.245227 
L 418.350039 217.27205 
L 422.965996 217.298872 
L 427.581953 217.325694 
L 432.19791 217.352516 
L 436.813868 217.379338 
L 441.429825 217.40616 
L 446.045782 217.432982 
L 450.661739 217.459804 
L 455.277696 217.486627 
L 459.893653 217.513449 
L 464.509611 217.540271 
L 469.125568 217.567093 
L 473.741525 217.593915 
L 478.357482 217.620737 
L 482.973439 217.647559 
L 487.589396 217.674381 
L 492.205354 217.701203 
L 496.821311 217.728026 
L 501.437268 217.754848 
L 506.053225 217.78167 
L 510.669182 217.808492 
L 515.28514 217.835314 
L 519.901097 217.862136 
L 524.517054 217.888958 
L 529.133011 217.91578 
L 533.748968 217.942603 
L 538.364925 217.969425 
L 542.980883 217.996247 
L 547.59684 218.023069 
L 552.212797 218.049891 
L 556.828754 218.076713 
L 561.444711 218.103535 
L 566.060668 218.130357 
L 570.676626 218.15718 
L 575.292583 218.184002 
L 579.90854 218.210824 
L 584.524497 218.237646 
L 589.140454 218.264468 
L 593.756411 218.29129 
L 598.372369 218.318112 
L 602.988326 218.344934 
" clip-path="url(#p8efae37d26)" style="fill: none; stroke: #008000; stroke-width: 2.5; stroke-linecap: square"/>
   </g>
   <g id="line2d_32">
    <path d="M 635.300026 182.339996 
L 639.915983 182.105476 
L 644.53194 181.870957 
L 649.147897 181.636437 
L 653.763855 181.401917 
L 658.379812 181.167397 
L 662.995769 180.932877 
L 667.611726 180.698357 
L 672.227683 180.463837 
L 676.84364 180.229317 
L 681.459598 179.994798 
L 686.075555 179.760278 
L 690.691512 179.525758 
L 695.307469 179.291238 
L 699.923426 179.056718 
L 704.539384 178.822198 
L 709.155341 178.587678 
L 713.771298 178.353158 
L 718.387255 178.118638 
L 723.003212 177.884119 
L 727.619169 177.649599 
L 732.235127 177.415079 
L 736.851084 177.180559 
L 741.467041 176.946039 
L 746.082998 176.711519 
L 750.698955 176.476999 
L 755.314912 176.242479 
L 759.93087 176.00796 
L 764.546827 175.77344 
L 769.162784 175.53892 
L 773.778741 175.3044 
L 778.394698 175.06988 
L 783.010655 174.83536 
L 787.626613 174.60084 
L 792.24257 174.36632 
L 796.858527 174.1318 
L 801.474484 173.897281 
L 806.090441 173.662761 
L 810.706398 173.428241 
L 815.322356 173.193721 
L 819.938313 172.959201 
L 824.55427 172.724681 
L 829.170227 172.490161 
L 833.786184 172.255641 
L 838.402141 172.021122 
L 843.018099 171.786602 
L 847.634056 171.552082 
L 852.250013 171.317562 
L 856.86597 171.083042 
L 861.481927 170.848522 
L 866.097884 170.614002 
L 870.713842 170.379482 
L 875.329799 170.144963 
L 879.945756 169.910443 
L 884.561713 169.675923 
L 889.17767 169.441403 
L 893.793628 169.206883 
L 898.409585 168.972363 
L 903.025542 168.737843 
L 907.641499 168.503323 
L 912.257456 168.268803 
L 916.873413 168.034284 
L 921.489371 167.799764 
L 926.105328 167.565244 
L 930.721285 167.330724 
L 935.337242 167.096204 
L 939.953199 166.861684 
L 944.569156 166.627164 
L 949.185114 166.392644 
L 953.801071 166.158125 
L 958.417028 165.923605 
L 963.032985 165.689085 
L 967.648942 165.454565 
L 972.264899 165.220045 
L 976.880857 164.985525 
L 981.496814 164.751005 
L 986.112771 164.516485 
L 990.728728 164.281965 
L 995.344685 164.047446 
L 999.960642 163.812926 
L 1004.5766 163.578406 
L 1009.192557 163.343886 
L 1013.808514 163.109366 
L 1018.424471 162.874846 
L 1023.040428 162.640326 
L 1027.656385 162.405806 
L 1032.272343 162.171287 
L 1036.8883 161.936767 
L 1041.504257 161.702247 
L 1046.120214 161.467727 
L 1050.736171 161.233207 
L 1055.352128 160.998687 
L 1059.968086 160.764167 
L 1064.584043 160.529647 
" clip-path="url(#p8efae37d26)" style="fill: none; stroke: #008000; stroke-width: 2.5; stroke-linecap: square"/>
   </g>
   <g id="line2d_33">
    <path d="M 90.61708 209.103172 
L 95.233037 209.244661 
L 99.848994 209.38615 
L 104.464951 209.527638 
L 109.080909 209.669127 
L 113.696866 209.810616 
L 118.312823 209.952105 
L 122.92878 210.093594 
L 127.544737 210.235082 
L 132.160694 210.376571 
L 136.776652 210.51806 
L 141.392609 210.659549 
L 146.008566 210.801038 
L 150.624523 210.942526 
L 155.24048 211.084015 
L 159.856437 211.225504 
L 164.472395 211.366993 
L 169.088352 211.508481 
L 173.704309 211.64997 
L 178.320266 211.791459 
L 182.936223 211.932948 
L 187.55218 212.074437 
L 192.168138 212.215925 
L 196.784095 212.357414 
L 201.400052 212.498903 
L 206.016009 212.640392 
L 210.631966 212.781881 
L 215.247923 212.923369 
L 219.863881 213.064858 
L 224.479838 213.206347 
L 229.095795 213.347836 
L 233.711752 213.489325 
L 238.327709 213.630813 
L 242.943666 213.772302 
L 247.559624 213.913791 
L 252.175581 214.05528 
L 256.791538 214.196769 
L 261.407495 214.338257 
L 266.023452 214.479746 
L 270.639409 214.621235 
L 275.255367 214.762724 
L 279.871324 214.904213 
L 284.487281 215.045701 
L 289.103238 215.18719 
L 293.719195 215.328679 
L 298.335152 215.470168 
L 302.95111 215.611657 
L 307.567067 215.753145 
L 312.183024 215.894634 
L 316.798981 216.036123 
L 321.414938 216.177612 
L 326.030896 216.3191 
L 330.646853 216.460589 
L 335.26281 216.602078 
L 339.878767 216.743567 
L 344.494724 216.885056 
L 349.110681 217.026544 
L 353.726639 217.168033 
L 358.342596 217.309522 
L 362.958553 217.451011 
L 367.57451 217.5925 
L 372.190467 217.733988 
L 376.806424 217.875477 
L 381.422382 218.016966 
L 386.038339 218.158455 
L 390.654296 218.299944 
L 395.270253 218.441432 
L 399.88621 218.582921 
L 404.502167 218.72441 
L 409.118125 218.865899 
L 413.734082 219.007388 
L 418.350039 219.148876 
L 422.965996 219.290365 
L 427.581953 219.431854 
L 432.19791 219.573343 
L 436.813868 219.714832 
L 441.429825 219.85632 
L 446.045782 219.997809 
L 450.661739 220.139298 
L 455.277696 220.280787 
L 459.893653 220.422276 
L 464.509611 220.563764 
L 469.125568 220.705253 
L 473.741525 220.846742 
L 478.357482 220.988231 
L 482.973439 221.129719 
L 487.589396 221.271208 
L 492.205354 221.412697 
L 496.821311 221.554186 
L 501.437268 221.695675 
L 506.053225 221.837163 
L 510.669182 221.978652 
L 515.28514 222.120141 
L 519.901097 222.26163 
L 524.517054 222.403119 
L 529.133011 222.544607 
L 533.748968 222.686096 
L 538.364925 222.827585 
L 542.980883 222.969074 
L 547.59684 223.110563 
L 552.212797 223.252051 
L 556.828754 223.39354 
L 561.444711 223.535029 
L 566.060668 223.676518 
L 570.676626 223.818007 
L 575.292583 223.959495 
L 579.90854 224.100984 
L 584.524497 224.242473 
L 589.140454 224.383962 
L 593.756411 224.525451 
L 598.372369 224.666939 
L 602.988326 224.808428 
" clip-path="url(#p8efae37d26)" style="fill: none; stroke: #ff7f0e; stroke-width: 2.5; stroke-linecap: square"/>
   </g>
   <g id="line2d_34">
    <path d="M 635.300026 233.987306 
L 639.915983 234.111571 
L 644.53194 234.235836 
L 649.147897 234.360102 
L 653.763855 234.484367 
L 658.379812 234.608632 
L 662.995769 234.732898 
L 667.611726 234.857163 
L 672.227683 234.981428 
L 676.84364 235.105694 
L 681.459598 235.229959 
L 686.075555 235.354225 
L 690.691512 235.47849 
L 695.307469 235.602755 
L 699.923426 235.727021 
L 704.539384 235.851286 
L 709.155341 235.975551 
L 713.771298 236.099817 
L 718.387255 236.224082 
L 723.003212 236.348347 
L 727.619169 236.472613 
L 732.235127 236.596878 
L 736.851084 236.721143 
L 741.467041 236.845409 
L 746.082998 236.969674 
L 750.698955 237.093939 
L 755.314912 237.218205 
L 759.93087 237.34247 
L 764.546827 237.466735 
L 769.162784 237.591001 
L 773.778741 237.715266 
L 778.394698 237.839531 
L 783.010655 237.963797 
L 787.626613 238.088062 
L 792.24257 238.212328 
L 796.858527 238.336593 
L 801.474484 238.460858 
L 806.090441 238.585124 
L 810.706398 238.709389 
L 815.322356 238.833654 
L 819.938313 238.95792 
L 824.55427 239.082185 
L 829.170227 239.20645 
L 833.786184 239.330716 
L 838.402141 239.454981 
L 843.018099 239.579246 
L 847.634056 239.703512 
L 852.250013 239.827777 
L 856.86597 239.952042 
L 861.481927 240.076308 
L 866.097884 240.200573 
L 870.713842 240.324838 
L 875.329799 240.449104 
L 879.945756 240.573369 
L 884.561713 240.697634 
L 889.17767 240.8219 
L 893.793628 240.946165 
L 898.409585 241.070431 
L 903.025542 241.194696 
L 907.641499 241.318961 
L 912.257456 241.443227 
L 916.873413 241.567492 
L 921.489371 241.691757 
L 926.105328 241.816023 
L 930.721285 241.940288 
L 935.337242 242.064553 
L 939.953199 242.188819 
L 944.569156 242.313084 
L 949.185114 242.437349 
L 953.801071 242.561615 
L 958.417028 242.68588 
L 963.032985 242.810145 
L 967.648942 242.934411 
L 972.264899 243.058676 
L 976.880857 243.182941 
L 981.496814 243.307207 
L 986.112771 243.431472 
L 990.728728 243.555738 
L 995.344685 243.680003 
L 999.960642 243.804268 
L 1004.5766 243.928534 
L 1009.192557 244.052799 
L 1013.808514 244.177064 
L 1018.424471 244.30133 
L 1023.040428 244.425595 
L 1027.656385 244.54986 
L 1032.272343 244.674126 
L 1036.8883 244.798391 
L 1041.504257 244.922656 
L 1046.120214 245.046922 
L 1050.736171 245.171187 
L 1055.352128 245.295452 
L 1059.968086 245.419718 
L 1064.584043 245.543983 
" clip-path="url(#p8efae37d26)" style="fill: none; stroke: #ff7f0e; stroke-width: 2.5; stroke-linecap: square"/>
   </g>
   <g id="patch_3">
    <path d="M 53.03 318.04 
L 53.03 14.76 
" style="fill: none; stroke: #000000; stroke-width: 0.8; stroke-linejoin: miter; stroke-linecap: square"/>
   </g>
   <g id="patch_4">
    <path d="M 1069.2 318.04 
L 1069.2 14.76 
" style="fill: none; stroke: #000000; stroke-width: 0.8; stroke-linejoin: miter; stroke-linecap: square"/>
   </g>
   <g id="patch_5">
    <path d="M 53.03 318.04 
L 1069.2 318.04 
" style="fill: none; stroke: #000000; stroke-width: 0.8; stroke-linejoin: miter; stroke-linecap: square"/>
   </g>
   <g id="patch_6">
    <path d="M 53.03 14.76 
L 1069.2 14.76 
" style="fill: none; stroke: #000000; stroke-width: 0.8; stroke-linejoin: miter; stroke-linecap: square"/>
   </g>
   <g id="legend_1">
    <g id="patch_7">
     <path d="M 60.03 140.185 
L 240.494063 140.185 
Q 242.494063 140.185 242.494063 138.185 
L 242.494063 21.76 
Q 242.494063 19.76 240.494063 19.76 
L 60.03 19.76 
Q 58.03 19.76 58.03 21.76 
L 58.03 138.185 
Q 58.03 140.185 60.03 140.185 
z
" style="fill: #ffffff; opacity: 0.8; stroke: #cccccc; stroke-linejoin: miter"/>
    </g>
    <g id="line2d_35">
     <path d="M 62.03 27.858437 
L 72.03 27.858437 
L 82.03 27.858437 
" style="fill: none; stroke-dasharray: 1.5,2.475; stroke-dashoffset: 0; stroke: #ff0000; stroke-width: 1.5"/>
    </g>
    <g id="text_22">
     <!-- Chili's -->
     <g transform="translate(90.03 31.358437) scale(0.1 -0.1)">
      <defs>
       <path id="DejaVuSans-43" d="M 4122 4306 
L 4122 3641 
Q 3803 3938 3442 4084 
Q 3081 4231 2675 4231 
Q 1875 4231 1450 3742 
Q 1025 3253 1025 2328 
Q 1025 1406 1450 917 
Q 1875 428 2675 428 
Q 3081 428 3442 575 
Q 3803 722 4122 1019 
L 4122 359 
Q 3791 134 3420 21 
Q 3050 -91 2638 -91 
Q 1578 -91 968 557 
Q 359 1206 359 2328 
Q 359 3453 968 4101 
Q 1578 4750 2638 4750 
Q 3056 4750 3426 4639 
Q 3797 4528 4122 4306 
z
" transform="scale(0.015625)"/>
       <path id="DejaVuSans-27" d="M 1147 4666 
L 1147 2931 
L 616 2931 
L 616 4666 
L 1147 4666 
z
" transform="scale(0.015625)"/>
      </defs>
      <use xlink:href="#DejaVuSans-43"/>
      <use xlink:href="#DejaVuSans-68" transform="translate(69.824219 0)"/>
      <use xlink:href="#DejaVuSans-69" transform="translate(133.203125 0)"/>
      <use xlink:href="#DejaVuSans-6c" transform="translate(160.986328 0)"/>
      <use xlink:href="#DejaVuSans-69" transform="translate(188.769531 0)"/>
      <use xlink:href="#DejaVuSans-27" transform="translate(216.552734 0)"/>
      <use xlink:href="#DejaVuSans-73" transform="translate(244.042969 0)"/>
     </g>
    </g>
    <g id="line2d_36">
     <path d="M 62.03 42.536563 
L 72.03 42.536563 
L 82.03 42.536563 
" style="fill: none; stroke-dasharray: 5.55,2.4; stroke-dashoffset: 0; stroke: #ff0000; stroke-width: 1.5"/>
    </g>
    <g id="text_23">
     <!-- Chili's goes viral -->
     <g transform="translate(90.03 46.036563) scale(0.1 -0.1)">
      <defs>
       <path id="DejaVuSans-67" d="M 2906 1791 
Q 2906 2416 2648 2759 
Q 2391 3103 1925 3103 
Q 1463 3103 1205 2759 
Q 947 2416 947 1791 
Q 947 1169 1205 825 
Q 1463 481 1925 481 
Q 2391 481 2648 825 
Q 2906 1169 2906 1791 
z
M 3481 434 
Q 3481 -459 3084 -895 
Q 2688 -1331 1869 -1331 
Q 1566 -1331 1297 -1286 
Q 1028 -1241 775 -1147 
L 775 -588 
Q 1028 -725 1275 -790 
Q 1522 -856 1778 -856 
Q 2344 -856 2625 -561 
Q 2906 -266 2906 331 
L 2906 616 
Q 2728 306 2450 153 
Q 2172 0 1784 0 
Q 1141 0 747 490 
Q 353 981 353 1791 
Q 353 2603 747 3093 
Q 1141 3584 1784 3584 
Q 2172 3584 2450 3431 
Q 2728 3278 2906 2969 
L 2906 3500 
L 3481 3500 
L 3481 434 
z
" transform="scale(0.015625)"/>
      </defs>
      <use xlink:href="#DejaVuSans-43"/>
      <use xlink:href="#DejaVuSans-68" transform="translate(69.824219 0)"/>
      <use xlink:href="#DejaVuSans-69" transform="translate(133.203125 0)"/>
      <use xlink:href="#DejaVuSans-6c" transform="translate(160.986328 0)"/>
      <use xlink:href="#DejaVuSans-69" transform="translate(188.769531 0)"/>
      <use xlink:href="#DejaVuSans-27" transform="translate(216.552734 0)"/>
      <use xlink:href="#DejaVuSans-73" transform="translate(244.042969 0)"/>
      <use xlink:href="#DejaVuSans-20" transform="translate(296.142578 0)"/>
      <use xlink:href="#DejaVuSans-67" transform="translate(327.929688 0)"/>
      <use xlink:href="#DejaVuSans-6f" transform="translate(391.40625 0)"/>
      <use xlink:href="#DejaVuSans-65" transform="translate(452.587891 0)"/>
      <use xlink:href="#DejaVuSans-73" transform="translate(514.111328 0)"/>
      <use xlink:href="#DejaVuSans-20" transform="translate(566.210938 0)"/>
      <use xlink:href="#DejaVuSans-76" transform="translate(597.998047 0)"/>
      <use xlink:href="#DejaVuSans-69" transform="translate(657.177734 0)"/>
      <use xlink:href="#DejaVuSans-72" transform="translate(684.960938 0)"/>
      <use xlink:href="#DejaVuSans-61" transform="translate(726.074219 0)"/>
      <use xlink:href="#DejaVuSans-6c" transform="translate(787.353516 0)"/>
     </g>
    </g>
    <g id="line2d_37">
     <path d="M 62.03 57.214687 
L 72.03 57.214687 
L 82.03 57.214687 
" style="fill: none; stroke-dasharray: 1.5,2.475; stroke-dashoffset: 0; stroke: #1f77b4; stroke-width: 1.5"/>
    </g>
    <g id="text_24">
     <!-- Applebees -->
     <g transform="translate(90.03 60.714687) scale(0.1 -0.1)">
      <defs>
       <path id="DejaVuSans-41" d="M 2188 4044 
L 1331 1722 
L 3047 1722 
L 2188 4044 
z
M 1831 4666 
L 2547 4666 
L 4325 0 
L 3669 0 
L 3244 1197 
L 1141 1197 
L 716 0 
L 50 0 
L 1831 4666 
z
" transform="scale(0.015625)"/>
       <path id="DejaVuSans-70" d="M 1159 525 
L 1159 -1331 
L 581 -1331 
L 581 3500 
L 1159 3500 
L 1159 2969 
Q 1341 3281 1617 3432 
Q 1894 3584 2278 3584 
Q 2916 3584 3314 3078 
Q 3713 2572 3713 1747 
Q 3713 922 3314 415 
Q 2916 -91 2278 -91 
Q 1894 -91 1617 61 
Q 1341 213 1159 525 
z
M 3116 1747 
Q 3116 2381 2855 2742 
Q 2594 3103 2138 3103 
Q 1681 3103 1420 2742 
Q 1159 2381 1159 1747 
Q 1159 1113 1420 752 
Q 1681 391 2138 391 
Q 2594 391 2855 752 
Q 3116 1113 3116 1747 
z
" transform="scale(0.015625)"/>
       <path id="DejaVuSans-62" d="M 3116 1747 
Q 3116 2381 2855 2742 
Q 2594 3103 2138 3103 
Q 1681 3103 1420 2742 
Q 1159 2381 1159 1747 
Q 1159 1113 1420 752 
Q 1681 391 2138 391 
Q 2594 391 2855 752 
Q 3116 1113 3116 1747 
z
M 1159 2969 
Q 1341 3281 1617 3432 
Q 1894 3584 2278 3584 
Q 2916 3584 3314 3078 
Q 3713 2572 3713 1747 
Q 3713 922 3314 415 
Q 2916 -91 2278 -91 
Q 1894 -91 1617 61 
Q 1341 213 1159 525 
L 1159 0 
L 581 0 
L 581 4863 
L 1159 4863 
L 1159 2969 
z
" transform="scale(0.015625)"/>
      </defs>
      <use xlink:href="#DejaVuSans-41"/>
      <use xlink:href="#DejaVuSans-70" transform="translate(68.408203 0)"/>
      <use xlink:href="#DejaVuSans-70" transform="translate(131.884766 0)"/>
      <use xlink:href="#DejaVuSans-6c" transform="translate(195.361328 0)"/>
      <use xlink:href="#DejaVuSans-65" transform="translate(223.144531 0)"/>
      <use xlink:href="#DejaVuSans-62" transform="translate(284.667969 0)"/>
      <use xlink:href="#DejaVuSans-65" transform="translate(348.144531 0)"/>
      <use xlink:href="#DejaVuSans-65" transform="translate(409.667969 0)"/>
      <use xlink:href="#DejaVuSans-73" transform="translate(471.191406 0)"/>
     </g>
    </g>
    <g id="line2d_38">
     <path d="M 62.03 71.892812 
L 72.03 71.892812 
L 82.03 71.892812 
" style="fill: none; stroke-dasharray: 1.5,2.475; stroke-dashoffset: 0; stroke: #2ca02c; stroke-width: 1.5"/>
    </g>
    <g id="text_25">
     <!-- Friday's -->
     <g transform="translate(90.03 75.392812) scale(0.1 -0.1)">
      <defs>
       <path id="DejaVuSans-46" d="M 628 4666 
L 3309 4666 
L 3309 4134 
L 1259 4134 
L 1259 2759 
L 3109 2759 
L 3109 2228 
L 1259 2228 
L 1259 0 
L 628 0 
L 628 4666 
z
" transform="scale(0.015625)"/>
       <path id="DejaVuSans-64" d="M 2906 2969 
L 2906 4863 
L 3481 4863 
L 3481 0 
L 2906 0 
L 2906 525 
Q 2725 213 2448 61 
Q 2172 -91 1784 -91 
Q 1150 -91 751 415 
Q 353 922 353 1747 
Q 353 2572 751 3078 
Q 1150 3584 1784 3584 
Q 2172 3584 2448 3432 
Q 2725 3281 2906 2969 
z
M 947 1747 
Q 947 1113 1208 752 
Q 1469 391 1925 391 
Q 2381 391 2643 752 
Q 2906 1113 2906 1747 
Q 2906 2381 2643 2742 
Q 2381 3103 1925 3103 
Q 1469 3103 1208 2742 
Q 947 2381 947 1747 
z
" transform="scale(0.015625)"/>
       <path id="DejaVuSans-79" d="M 2059 -325 
Q 1816 -950 1584 -1140 
Q 1353 -1331 966 -1331 
L 506 -1331 
L 506 -850 
L 844 -850 
Q 1081 -850 1212 -737 
Q 1344 -625 1503 -206 
L 1606 56 
L 191 3500 
L 800 3500 
L 1894 763 
L 2988 3500 
L 3597 3500 
L 2059 -325 
z
" transform="scale(0.015625)"/>
      </defs>
      <use xlink:href="#DejaVuSans-46"/>
      <use xlink:href="#DejaVuSans-72" transform="translate(50.269531 0)"/>
      <use xlink:href="#DejaVuSans-69" transform="translate(91.382812 0)"/>
      <use xlink:href="#DejaVuSans-64" transform="translate(119.166016 0)"/>
      <use xlink:href="#DejaVuSans-61" transform="translate(182.642578 0)"/>
      <use xlink:href="#DejaVuSans-79" transform="translate(243.921875 0)"/>
      <use xlink:href="#DejaVuSans-27" transform="translate(303.101562 0)"/>
      <use xlink:href="#DejaVuSans-73" transform="translate(330.591797 0)"/>
     </g>
    </g>
    <g id="line2d_39">
     <path d="M 62.03 86.570938 
L 72.03 86.570938 
L 82.03 86.570938 
" style="fill: none; stroke-dasharray: 1.5,2.475; stroke-dashoffset: 0; stroke: #8c564b; stroke-width: 1.5"/>
    </g>
    <g id="text_26">
     <!-- Outback Steakhouse -->
     <g transform="translate(90.03 90.070938) scale(0.1 -0.1)">
      <defs>
       <path id="DejaVuSans-4f" d="M 2522 4238 
Q 1834 4238 1429 3725 
Q 1025 3213 1025 2328 
Q 1025 1447 1429 934 
Q 1834 422 2522 422 
Q 3209 422 3611 934 
Q 4013 1447 4013 2328 
Q 4013 3213 3611 3725 
Q 3209 4238 2522 4238 
z
M 2522 4750 
Q 3503 4750 4090 4092 
Q 4678 3434 4678 2328 
Q 4678 1225 4090 567 
Q 3503 -91 2522 -91 
Q 1538 -91 948 565 
Q 359 1222 359 2328 
Q 359 3434 948 4092 
Q 1538 4750 2522 4750 
z
" transform="scale(0.015625)"/>
       <path id="DejaVuSans-75" d="M 544 1381 
L 544 3500 
L 1119 3500 
L 1119 1403 
Q 1119 906 1312 657 
Q 1506 409 1894 409 
Q 2359 409 2629 706 
Q 2900 1003 2900 1516 
L 2900 3500 
L 3475 3500 
L 3475 0 
L 2900 0 
L 2900 538 
Q 2691 219 2414 64 
Q 2138 -91 1772 -91 
Q 1169 -91 856 284 
Q 544 659 544 1381 
z
M 1991 3584 
L 1991 3584 
z
" transform="scale(0.015625)"/>
      </defs>
      <use xlink:href="#DejaVuSans-4f"/>
      <use xlink:href="#DejaVuSans-75" transform="translate(78.710938 0)"/>
      <use xlink:href="#DejaVuSans-74" transform="translate(142.089844 0)"/>
      <use xlink:href="#DejaVuSans-62" transform="translate(181.298828 0)"/>
      <use xlink:href="#DejaVuSans-61" transform="translate(244.775391 0)"/>
      <use xlink:href="#DejaVuSans-63" transform="translate(306.054688 0)"/>
      <use xlink:href="#DejaVuSans-6b" transform="translate(361.035156 0)"/>
      <use xlink:href="#DejaVuSans-20" transform="translate(418.945312 0)"/>
      <use xlink:href="#DejaVuSans-53" transform="translate(450.732422 0)"/>
      <use xlink:href="#DejaVuSans-74" transform="translate(514.208984 0)"/>
      <use xlink:href="#DejaVuSans-65" transform="translate(553.417969 0)"/>
      <use xlink:href="#DejaVuSans-61" transform="translate(614.941406 0)"/>
      <use xlink:href="#DejaVuSans-6b" transform="translate(676.220703 0)"/>
      <use xlink:href="#DejaVuSans-68" transform="translate(734.130859 0)"/>
      <use xlink:href="#DejaVuSans-6f" transform="translate(797.509766 0)"/>
      <use xlink:href="#DejaVuSans-75" transform="translate(858.691406 0)"/>
      <use xlink:href="#DejaVuSans-73" transform="translate(922.070312 0)"/>
      <use xlink:href="#DejaVuSans-65" transform="translate(974.169922 0)"/>
     </g>
    </g>
    <g id="line2d_40">
     <path d="M 62.03 101.249062 
L 72.03 101.249062 
L 82.03 101.249062 
" style="fill: none; stroke-dasharray: 1.5,2.475; stroke-dashoffset: 0; stroke: #9467bd; stroke-width: 1.5"/>
    </g>
    <g id="text_27">
     <!-- Red Robin -->
     <g transform="translate(90.03 104.749062) scale(0.1 -0.1)">
      <defs>
       <path id="DejaVuSans-52" d="M 2841 2188 
Q 3044 2119 3236 1894 
Q 3428 1669 3622 1275 
L 4263 0 
L 3584 0 
L 2988 1197 
Q 2756 1666 2539 1819 
Q 2322 1972 1947 1972 
L 1259 1972 
L 1259 0 
L 628 0 
L 628 4666 
L 2053 4666 
Q 2853 4666 3247 4331 
Q 3641 3997 3641 3322 
Q 3641 2881 3436 2590 
Q 3231 2300 2841 2188 
z
M 1259 4147 
L 1259 2491 
L 2053 2491 
Q 2509 2491 2742 2702 
Q 2975 2913 2975 3322 
Q 2975 3731 2742 3939 
Q 2509 4147 2053 4147 
L 1259 4147 
z
" transform="scale(0.015625)"/>
      </defs>
      <use xlink:href="#DejaVuSans-52"/>
      <use xlink:href="#DejaVuSans-65" transform="translate(64.982422 0)"/>
      <use xlink:href="#DejaVuSans-64" transform="translate(126.505859 0)"/>
      <use xlink:href="#DejaVuSans-20" transform="translate(189.982422 0)"/>
      <use xlink:href="#DejaVuSans-52" transform="translate(221.769531 0)"/>
      <use xlink:href="#DejaVuSans-6f" transform="translate(286.751953 0)"/>
      <use xlink:href="#DejaVuSans-62" transform="translate(347.933594 0)"/>
      <use xlink:href="#DejaVuSans-69" transform="translate(411.410156 0)"/>
      <use xlink:href="#DejaVuSans-6e" transform="translate(439.193359 0)"/>
     </g>
    </g>
    <g id="line2d_41">
     <path d="M 62.03 115.927187 
L 72.03 115.927187 
L 82.03 115.927187 
" style="fill: none; stroke: #008000; stroke-width: 2.5; stroke-linecap: square"/>
    </g>
    <g id="text_28">
     <!-- Chili's (Best Fit) -->
     <g transform="translate(90.03 119.427187) scale(0.1 -0.1)">
      <defs>
       <path id="DejaVuSans-28" d="M 1984 4856 
Q 1566 4138 1362 3434 
Q 1159 2731 1159 2009 
Q 1159 1288 1364 580 
Q 1569 -128 1984 -844 
L 1484 -844 
Q 1016 -109 783 600 
Q 550 1309 550 2009 
Q 550 2706 781 3412 
Q 1013 4119 1484 4856 
L 1984 4856 
z
" transform="scale(0.015625)"/>
       <path id="DejaVuSans-42" d="M 1259 2228 
L 1259 519 
L 2272 519 
Q 2781 519 3026 730 
Q 3272 941 3272 1375 
Q 3272 1813 3026 2020 
Q 2781 2228 2272 2228 
L 1259 2228 
z
M 1259 4147 
L 1259 2741 
L 2194 2741 
Q 2656 2741 2882 2914 
Q 3109 3088 3109 3444 
Q 3109 3797 2882 3972 
Q 2656 4147 2194 4147 
L 1259 4147 
z
M 628 4666 
L 2241 4666 
Q 2963 4666 3353 4366 
Q 3744 4066 3744 3513 
Q 3744 3084 3544 2831 
Q 3344 2578 2956 2516 
Q 3422 2416 3680 2098 
Q 3938 1781 3938 1306 
Q 3938 681 3513 340 
Q 3088 0 2303 0 
L 628 0 
L 628 4666 
z
" transform="scale(0.015625)"/>
       <path id="DejaVuSans-29" d="M 513 4856 
L 1013 4856 
Q 1481 4119 1714 3412 
Q 1947 2706 1947 2009 
Q 1947 1309 1714 600 
Q 1481 -109 1013 -844 
L 513 -844 
Q 928 -128 1133 580 
Q 1338 1288 1338 2009 
Q 1338 2731 1133 3434 
Q 928 4138 513 4856 
z
" transform="scale(0.015625)"/>
      </defs>
      <use xlink:href="#DejaVuSans-43"/>
      <use xlink:href="#DejaVuSans-68" transform="translate(69.824219 0)"/>
      <use xlink:href="#DejaVuSans-69" transform="translate(133.203125 0)"/>
      <use xlink:href="#DejaVuSans-6c" transform="translate(160.986328 0)"/>
      <use xlink:href="#DejaVuSans-69" transform="translate(188.769531 0)"/>
      <use xlink:href="#DejaVuSans-27" transform="translate(216.552734 0)"/>
      <use xlink:href="#DejaVuSans-73" transform="translate(244.042969 0)"/>
      <use xlink:href="#DejaVuSans-20" transform="translate(296.142578 0)"/>
      <use xlink:href="#DejaVuSans-28" transform="translate(327.929688 0)"/>
      <use xlink:href="#DejaVuSans-42" transform="translate(366.943359 0)"/>
      <use xlink:href="#DejaVuSans-65" transform="translate(435.546875 0)"/>
      <use xlink:href="#DejaVuSans-73" transform="translate(497.070312 0)"/>
      <use xlink:href="#DejaVuSans-74" transform="translate(549.169922 0)"/>
      <use xlink:href="#DejaVuSans-20" transform="translate(588.378906 0)"/>
      <use xlink:href="#DejaVuSans-46" transform="translate(620.166016 0)"/>
      <use xlink:href="#DejaVuSans-69" transform="translate(670.435547 0)"/>
      <use xlink:href="#DejaVuSans-74" transform="translate(698.21875 0)"/>
      <use xlink:href="#DejaVuSans-29" transform="translate(737.427734 0)"/>
     </g>
    </g>
    <g id="line2d_42">
     <path d="M 62.03 130.605312 
L 72.03 130.605312 
L 82.03 130.605312 
" style="fill: none; stroke: #ff7f0e; stroke-width: 2.5; stroke-linecap: square"/>
    </g>
    <g id="text_29">
     <!-- Competitor Average (Best Fit) -->
     <g transform="translate(90.03 134.105312) scale(0.1 -0.1)">
      <use xlink:href="#DejaVuSans-43"/>
      <use xlink:href="#DejaVuSans-6f" transform="translate(69.824219 0)"/>
      <use xlink:href="#DejaVuSans-6d" transform="translate(131.005859 0)"/>
      <use xlink:href="#DejaVuSans-70" transform="translate(228.417969 0)"/>
      <use xlink:href="#DejaVuSans-65" transform="translate(291.894531 0)"/>
      <use xlink:href="#DejaVuSans-74" transform="translate(353.417969 0)"/>
      <use xlink:href="#DejaVuSans-69" transform="translate(392.626953 0)"/>
      <use xlink:href="#DejaVuSans-74" transform="translate(420.410156 0)"/>
      <use xlink:href="#DejaVuSans-6f" transform="translate(459.619141 0)"/>
      <use xlink:href="#DejaVuSans-72" transform="translate(520.800781 0)"/>
      <use xlink:href="#DejaVuSans-20" transform="translate(561.914062 0)"/>
      <use xlink:href="#DejaVuSans-41" transform="translate(593.701172 0)"/>
      <use xlink:href="#DejaVuSans-76" transform="translate(656.234375 0)"/>
      <use xlink:href="#DejaVuSans-65" transform="translate(715.414062 0)"/>
      <use xlink:href="#DejaVuSans-72" transform="translate(776.9375 0)"/>
      <use xlink:href="#DejaVuSans-61" transform="translate(818.050781 0)"/>
      <use xlink:href="#DejaVuSans-67" transform="translate(879.330078 0)"/>
      <use xlink:href="#DejaVuSans-65" transform="translate(942.806641 0)"/>
      <use xlink:href="#DejaVuSans-20" transform="translate(1004.330078 0)"/>
      <use xlink:href="#DejaVuSans-28" transform="translate(1036.117188 0)"/>
      <use xlink:href="#DejaVuSans-42" transform="translate(1075.130859 0)"/>
      <use xlink:href="#DejaVuSans-65" transform="translate(1143.734375 0)"/>
      <use xlink:href="#DejaVuSans-73" transform="translate(1205.257812 0)"/>
      <use xlink:href="#DejaVuSans-74" transform="translate(1257.357422 0)"/>
      <use xlink:href="#DejaVuSans-20" transform="translate(1296.566406 0)"/>
      <use xlink:href="#DejaVuSans-46" transform="translate(1328.353516 0)"/>
      <use xlink:href="#DejaVuSans-69" transform="translate(1378.623047 0)"/>
      <use xlink:href="#DejaVuSans-74" transform="translate(1406.40625 0)"/>
      <use xlink:href="#DejaVuSans-29" transform="translate(1445.615234 0)"/>
     </g>
    </g>
   </g>
  </g>
 </g>
 <defs>
  <clipPath id="p8efae37d26">
   <rect x="53.03" y="14.76" width="1016.17" height="303.28"/>
  </clipPath>
 </defs>
</svg>
