<?xml version="1.0" encoding="utf-8" standalone="no"?>
<!DOCTYPE svg PUBLIC "-//W3C//DTD SVG 1.1//EN"
  "http://www.w3.org/Graphics/SVG/1.1/DTD/svg11.dtd">
<svg xmlns:xlink="http://www.w3.org/1999/xlink" width="1080pt" height="360pt" viewBox="0 0 1080 360" xmlns="http://www.w3.org/2000/svg" version="1.1">
 <metadata>
  <rdf:RDF xmlns:dc="http://purl.org/dc/elements/1.1/" xmlns:cc="http://creativecommons.org/ns#" xmlns:rdf="http://www.w3.org/1999/02/22-rdf-syntax-ns#">
   <cc:Work>
    <dc:type rdf:resource="http://purl.org/dc/dcmitype/StillImage"/>
    <dc:date>2026-03-26T19:02:28.556122</dc:date>
    <dc:format>image/svg+xml</dc:format>
    <dc:creator>
     <cc:Agent>
      <dc:title>Matplotlib v3.10.0, https://matplotlib.org/</dc:title>
     </cc:Agent>
    </dc:creator>
   </cc:Work>
  </rdf:RDF>
 </metadata>
 <defs>
  <style type="text/css">*{stroke-linejoin: round; stroke-linecap: butt}</style>
 </defs>
 <g id="figure_1">
  <g id="patch_1">
   <path d="M 0 360 
L 1080 360 
L 1080 0 
L 0 0 
z
" style="fill: #ffffff"/>
  </g>
  <g id="axes_1">
   <g id="patch_2">
    <path d="M 52.52 319 
L 1069.2 319 
L 1069.2 14.64 
L 52.52 14.64 
z
" style="fill: #ffffff"/>
   </g>
   <g id="matplotlib.axis_1">
    <g id="xtick_1">
     <g id="line2d_1">
      <defs>
       <path id="m9263f0a57b" d="M 0 0 
L 0 3.5 
" style="stroke: #000000; stroke-width: 0.8"/>
      </defs>
      <g>
       <use xlink:href="#m9263f0a57b" x="52.52" y="319" style="stroke: #000000; stroke-width: 0.8"/>
      </g>
     </g>
     <g id="text_1">
      <!-- 2022-01 -->
      <g transform="translate(31.628594 333.598437) scale(0.1 -0.1)">
       <defs>
        <path id="DejaVuSans-32" d="M 1228 531 
L 3431 531 
L 3431 0 
L 469 0 
L 469 531 
Q 828 903 1448 1529 
Q 2069 2156 2228 2338 
Q 2531 2678 2651 2914 
Q 2772 3150 2772 3378 
Q 2772 3750 2511 3984 
Q 2250 4219 1831 4219 
Q 1534 4219 1204 4116 
Q 875 4013 500 3803 
L 500 4441 
Q 881 4594 1212 4672 
Q 1544 4750 1819 4750 
Q 2544 4750 2975 4387 
Q 3406 4025 3406 3419 
Q 3406 3131 3298 2873 
Q 3191 2616 2906 2266 
Q 2828 2175 2409 1742 
Q 1991 1309 1228 531 
z
" transform="scale(0.015625)"/>
        <path id="DejaVuSans-30" d="M 2034 4250 
Q 1547 4250 1301 3770 
Q 1056 3291 1056 2328 
Q 1056 1369 1301 889 
Q 1547 409 2034 409 
Q 2525 409 2770 889 
Q 3016 1369 3016 2328 
Q 3016 3291 2770 3770 
Q 2525 4250 2034 4250 
z
M 2034 4750 
Q 2819 4750 3233 4129 
Q 3647 3509 3647 2328 
Q 3647 1150 3233 529 
Q 2819 -91 2034 -91 
Q 1250 -91 836 529 
Q 422 1150 422 2328 
Q 422 3509 836 4129 
Q 1250 4750 2034 4750 
z
" transform="scale(0.015625)"/>
        <path id="DejaVuSans-2d" d="M 313 2009 
L 1997 2009 
L 1997 1497 
L 313 1497 
L 313 2009 
z
" transform="scale(0.015625)"/>
        <path id="DejaVuSans-31" d="M 794 531 
L 1825 531 
L 1825 4091 
L 703 3866 
L 703 4441 
L 1819 4666 
L 2450 4666 
L 2450 531 
L 3481 531 
L 3481 0 
L 794 0 
L 794 531 
z
" transform="scale(0.015625)"/>
       </defs>
       <use xlink:href="#DejaVuSans-32"/>
       <use xlink:href="#DejaVuSans-30" transform="translate(63.623047 0)"/>
       <use xlink:href="#DejaVuSans-32" transform="translate(127.246094 0)"/>
       <use xlink:href="#DejaVuSans-32" transform="translate(190.869141 0)"/>
       <use xlink:href="#DejaVuSans-2d" transform="translate(254.492188 0)"/>
       <use xlink:href="#DejaVuSans-30" transform="translate(290.576172 0)"/>
       <use xlink:href="#DejaVuSans-31" transform="translate(354.199219 0)"/>
      </g>
     </g>
    </g>
    <g id="xtick_2">
     <g id="line2d_2">
      <g>
       <use xlink:href="#m9263f0a57b" x="171.935367" y="319" style="stroke: #000000; stroke-width: 0.8"/>
      </g>
     </g>
     <g id="text_2">
      <!-- 2022-07 -->
      <g transform="translate(151.04396 333.598437) scale(0.1 -0.1)">
       <defs>
        <path id="DejaVuSans-37" d="M 525 4666 
L 3525 4666 
L 3525 4397 
L 1831 0 
L 1172 0 
L 2766 4134 
L 525 4134 
L 525 4666 
z
" transform="scale(0.015625)"/>
       </defs>
       <use xlink:href="#DejaVuSans-32"/>
       <use xlink:href="#DejaVuSans-30" transform="translate(63.623047 0)"/>
       <use xlink:href="#DejaVuSans-32" transform="translate(127.246094 0)"/>
       <use xlink:href="#DejaVuSans-32" transform="translate(190.869141 0)"/>
       <use xlink:href="#DejaVuSans-2d" transform="translate(254.492188 0)"/>
       <use xlink:href="#DejaVuSans-30" transform="translate(290.576172 0)"/>
       <use xlink:href="#DejaVuSans-37" transform="translate(354.199219 0)"/>
      </g>
     </g>
    </g>
    <g id="xtick_3">
     <g id="line2d_3">
      <g>
       <use xlink:href="#m9263f0a57b" x="293.329994" y="319" style="stroke: #000000; stroke-width: 0.8"/>
      </g>
     </g>
     <g id="text_3">
      <!-- 2023-01 -->
      <g transform="translate(272.438587 333.598437) scale(0.1 -0.1)">
       <defs>
        <path id="DejaVuSans-33" d="M 2597 2516 
Q 3050 2419 3304 2112 
Q 3559 1806 3559 1356 
Q 3559 666 3084 287 
Q 2609 -91 1734 -91 
Q 1441 -91 1130 -33 
Q 819 25 488 141 
L 488 750 
Q 750 597 1062 519 
Q 1375 441 1716 441 
Q 2309 441 2620 675 
Q 2931 909 2931 1356 
Q 2931 1769 2642 2001 
Q 2353 2234 1838 2234 
L 1294 2234 
L 1294 2753 
L 1863 2753 
Q 2328 2753 2575 2939 
Q 2822 3125 2822 3475 
Q 2822 3834 2567 4026 
Q 2313 4219 1838 4219 
Q 1578 4219 1281 4162 
Q 984 4106 628 3988 
L 628 4550 
Q 988 4650 1302 4700 
Q 1616 4750 1894 4750 
Q 2613 4750 3031 4423 
Q 3450 4097 3450 3541 
Q 3450 3153 3228 2886 
Q 3006 2619 2597 2516 
z
" transform="scale(0.015625)"/>
       </defs>
       <use xlink:href="#DejaVuSans-32"/>
       <use xlink:href="#DejaVuSans-30" transform="translate(63.623047 0)"/>
       <use xlink:href="#DejaVuSans-32" transform="translate(127.246094 0)"/>
       <use xlink:href="#DejaVuSans-33" transform="translate(190.869141 0)"/>
       <use xlink:href="#DejaVuSans-2d" transform="translate(254.492188 0)"/>
       <use xlink:href="#DejaVuSans-30" transform="translate(290.576172 0)"/>
       <use xlink:href="#DejaVuSans-31" transform="translate(354.199219 0)"/>
      </g>
     </g>
    </g>
    <g id="xtick_4">
     <g id="line2d_4">
      <g>
       <use xlink:href="#m9263f0a57b" x="412.74536" y="319" style="stroke: #000000; stroke-width: 0.8"/>
      </g>
     </g>
     <g id="text_4">
      <!-- 2023-07 -->
      <g transform="translate(391.853954 333.598437) scale(0.1 -0.1)">
       <use xlink:href="#DejaVuSans-32"/>
       <use xlink:href="#DejaVuSans-30" transform="translate(63.623047 0)"/>
       <use xlink:href="#DejaVuSans-32" transform="translate(127.246094 0)"/>
       <use xlink:href="#DejaVuSans-33" transform="translate(190.869141 0)"/>
       <use xlink:href="#DejaVuSans-2d" transform="translate(254.492188 0)"/>
       <use xlink:href="#DejaVuSans-30" transform="translate(290.576172 0)"/>
       <use xlink:href="#DejaVuSans-37" transform="translate(354.199219 0)"/>
      </g>
     </g>
    </g>
    <g id="xtick_5">
     <g id="line2d_5">
      <g>
       <use xlink:href="#m9263f0a57b" x="534.139987" y="319" style="stroke: #000000; stroke-width: 0.8"/>
      </g>
     </g>
     <g id="text_5">
      <!-- 2024-01 -->
      <g transform="translate(513.248581 333.598437) scale(0.1 -0.1)">
       <defs>
        <path id="DejaVuSans-34" d="M 2419 4116 
L 825 1625 
L 2419 1625 
L 2419 4116 
z
M 2253 4666 
L 3047 4666 
L 3047 1625 
L 3713 1625 
L 3713 1100 
L 3047 1100 
L 3047 0 
L 2419 0 
L 2419 1100 
L 313 1100 
L 313 1709 
L 2253 4666 
z
" transform="scale(0.015625)"/>
       </defs>
       <use xlink:href="#DejaVuSans-32"/>
       <use xlink:href="#DejaVuSans-30" transform="translate(63.623047 0)"/>
       <use xlink:href="#DejaVuSans-32" transform="translate(127.246094 0)"/>
       <use xlink:href="#DejaVuSans-34" transform="translate(190.869141 0)"/>
       <use xlink:href="#DejaVuSans-2d" transform="translate(254.492188 0)"/>
       <use xlink:href="#DejaVuSans-30" transform="translate(290.576172 0)"/>
       <use xlink:href="#DejaVuSans-31" transform="translate(354.199219 0)"/>
      </g>
     </g>
    </g>
    <g id="xtick_6">
     <g id="line2d_6">
      <g>
       <use xlink:href="#m9263f0a57b" x="654.215107" y="319" style="stroke: #000000; stroke-width: 0.8"/>
      </g>
     </g>
     <g id="text_6">
      <!-- 2024-07 -->
      <g transform="translate(633.323701 333.598437) scale(0.1 -0.1)">
       <use xlink:href="#DejaVuSans-32"/>
       <use xlink:href="#DejaVuSans-30" transform="translate(63.623047 0)"/>
       <use xlink:href="#DejaVuSans-32" transform="translate(127.246094 0)"/>
       <use xlink:href="#DejaVuSans-34" transform="translate(190.869141 0)"/>
       <use xlink:href="#DejaVuSans-2d" transform="translate(254.492188 0)"/>
       <use xlink:href="#DejaVuSans-30" transform="translate(290.576172 0)"/>
       <use xlink:href="#DejaVuSans-37" transform="translate(354.199219 0)"/>
      </g>
     </g>
    </g>
    <g id="xtick_7">
     <g id="line2d_7">
      <g>
       <use xlink:href="#m9263f0a57b" x="775.609734" y="319" style="stroke: #000000; stroke-width: 0.8"/>
      </g>
     </g>
     <g id="text_7">
      <!-- 2025-01 -->
      <g transform="translate(754.718328 333.598437) scale(0.1 -0.1)">
       <defs>
        <path id="DejaVuSans-35" d="M 691 4666 
L 3169 4666 
L 3169 4134 
L 1269 4134 
L 1269 2991 
Q 1406 3038 1543 3061 
Q 1681 3084 1819 3084 
Q 2600 3084 3056 2656 
Q 3513 2228 3513 1497 
Q 3513 744 3044 326 
Q 2575 -91 1722 -91 
Q 1428 -91 1123 -41 
Q 819 9 494 109 
L 494 744 
Q 775 591 1075 516 
Q 1375 441 1709 441 
Q 2250 441 2565 725 
Q 2881 1009 2881 1497 
Q 2881 1984 2565 2268 
Q 2250 2553 1709 2553 
Q 1456 2553 1204 2497 
Q 953 2441 691 2322 
L 691 4666 
z
" transform="scale(0.015625)"/>
       </defs>
       <use xlink:href="#DejaVuSans-32"/>
       <use xlink:href="#DejaVuSans-30" transform="translate(63.623047 0)"/>
       <use xlink:href="#DejaVuSans-32" transform="translate(127.246094 0)"/>
       <use xlink:href="#DejaVuSans-35" transform="translate(190.869141 0)"/>
       <use xlink:href="#DejaVuSans-2d" transform="translate(254.492188 0)"/>
       <use xlink:href="#DejaVuSans-30" transform="translate(290.576172 0)"/>
       <use xlink:href="#DejaVuSans-31" transform="translate(354.199219 0)"/>
      </g>
     </g>
    </g>
    <g id="xtick_8">
     <g id="line2d_8">
      <g>
       <use xlink:href="#m9263f0a57b" x="895.025101" y="319" style="stroke: #000000; stroke-width: 0.8"/>
      </g>
     </g>
     <g id="text_8">
      <!-- 2025-07 -->
      <g transform="translate(874.133694 333.598437) scale(0.1 -0.1)">
       <use xlink:href="#DejaVuSans-32"/>
       <use xlink:href="#DejaVuSans-30" transform="translate(63.623047 0)"/>
       <use xlink:href="#DejaVuSans-32" transform="translate(127.246094 0)"/>
       <use xlink:href="#DejaVuSans-35" transform="translate(190.869141 0)"/>
       <use xlink:href="#DejaVuSans-2d" transform="translate(254.492188 0)"/>
       <use xlink:href="#DejaVuSans-30" transform="translate(290.576172 0)"/>
       <use xlink:href="#DejaVuSans-37" transform="translate(354.199219 0)"/>
      </g>
     </g>
    </g>
    <g id="xtick_9">
     <g id="line2d_9">
      <g>
       <use xlink:href="#m9263f0a57b" x="1016.419727" y="319" style="stroke: #000000; stroke-width: 0.8"/>
      </g>
     </g>
     <g id="text_9">
      <!-- 2026-01 -->
      <g transform="translate(995.528321 333.598437) scale(0.1 -0.1)">
       <defs>
        <path id="DejaVuSans-36" d="M 2113 2584 
Q 1688 2584 1439 2293 
Q 1191 2003 1191 1497 
Q 1191 994 1439 701 
Q 1688 409 2113 409 
Q 2538 409 2786 701 
Q 3034 994 3034 1497 
Q 3034 2003 2786 2293 
Q 2538 2584 2113 2584 
z
M 3366 4563 
L 3366 3988 
Q 3128 4100 2886 4159 
Q 2644 4219 2406 4219 
Q 1781 4219 1451 3797 
Q 1122 3375 1075 2522 
Q 1259 2794 1537 2939 
Q 1816 3084 2150 3084 
Q 2853 3084 3261 2657 
Q 3669 2231 3669 1497 
Q 3669 778 3244 343 
Q 2819 -91 2113 -91 
Q 1303 -91 875 529 
Q 447 1150 447 2328 
Q 447 3434 972 4092 
Q 1497 4750 2381 4750 
Q 2619 4750 2861 4703 
Q 3103 4656 3366 4563 
z
" transform="scale(0.015625)"/>
       </defs>
       <use xlink:href="#DejaVuSans-32"/>
       <use xlink:href="#DejaVuSans-30" transform="translate(63.623047 0)"/>
       <use xlink:href="#DejaVuSans-32" transform="translate(127.246094 0)"/>
       <use xlink:href="#DejaVuSans-36" transform="translate(190.869141 0)"/>
       <use xlink:href="#DejaVuSans-2d" transform="translate(254.492188 0)"/>
       <use xlink:href="#DejaVuSans-30" transform="translate(290.576172 0)"/>
       <use xlink:href="#DejaVuSans-31" transform="translate(354.199219 0)"/>
      </g>
     </g>
    </g>
    <g id="text_10">
     <!-- Weeks -->
     <g transform="translate(544.556875 347.276563) scale(0.1 -0.1)">
      <defs>
       <path id="DejaVuSans-57" d="M 213 4666 
L 850 4666 
L 1831 722 
L 2809 4666 
L 3519 4666 
L 4500 722 
L 5478 4666 
L 6119 4666 
L 4947 0 
L 4153 0 
L 3169 4050 
L 2175 0 
L 1381 0 
L 213 4666 
z
" transform="scale(0.015625)"/>
       <path id="DejaVuSans-65" d="M 3597 1894 
L 3597 1613 
L 953 1613 
Q 991 1019 1311 708 
Q 1631 397 2203 397 
Q 2534 397 2845 478 
Q 3156 559 3463 722 
L 3463 178 
Q 3153 47 2828 -22 
Q 2503 -91 2169 -91 
Q 1331 -91 842 396 
Q 353 884 353 1716 
Q 353 2575 817 3079 
Q 1281 3584 2069 3584 
Q 2775 3584 3186 3129 
Q 3597 2675 3597 1894 
z
M 3022 2063 
Q 3016 2534 2758 2815 
Q 2500 3097 2075 3097 
Q 1594 3097 1305 2825 
Q 1016 2553 972 2059 
L 3022 2063 
z
" transform="scale(0.015625)"/>
       <path id="DejaVuSans-6b" d="M 581 4863 
L 1159 4863 
L 1159 1991 
L 2875 3500 
L 3609 3500 
L 1753 1863 
L 3688 0 
L 2938 0 
L 1159 1709 
L 1159 0 
L 581 0 
L 581 4863 
z
" transform="scale(0.015625)"/>
       <path id="DejaVuSans-73" d="M 2834 3397 
L 2834 2853 
Q 2591 2978 2328 3040 
Q 2066 3103 1784 3103 
Q 1356 3103 1142 2972 
Q 928 2841 928 2578 
Q 928 2378 1081 2264 
Q 1234 2150 1697 2047 
L 1894 2003 
Q 2506 1872 2764 1633 
Q 3022 1394 3022 966 
Q 3022 478 2636 193 
Q 2250 -91 1575 -91 
Q 1294 -91 989 -36 
Q 684 19 347 128 
L 347 722 
Q 666 556 975 473 
Q 1284 391 1588 391 
Q 1994 391 2212 530 
Q 2431 669 2431 922 
Q 2431 1156 2273 1281 
Q 2116 1406 1581 1522 
L 1381 1569 
Q 847 1681 609 1914 
Q 372 2147 372 2553 
Q 372 3047 722 3315 
Q 1072 3584 1716 3584 
Q 2034 3584 2315 3537 
Q 2597 3491 2834 3397 
z
" transform="scale(0.015625)"/>
      </defs>
      <use xlink:href="#DejaVuSans-57"/>
      <use xlink:href="#DejaVuSans-65" transform="translate(93.001953 0)"/>
      <use xlink:href="#DejaVuSans-65" transform="translate(154.525391 0)"/>
      <use xlink:href="#DejaVuSans-6b" transform="translate(216.048828 0)"/>
      <use xlink:href="#DejaVuSans-73" transform="translate(273.958984 0)"/>
     </g>
    </g>
   </g>
   <g id="matplotlib.axis_2">
    <g id="ytick_1">
     <g id="line2d_10">
      <defs>
       <path id="m2b12b74519" d="M 0 0 
L -3.5 0 
" style="stroke: #000000; stroke-width: 0.8"/>
      </defs>
      <g>
       <use xlink:href="#m2b12b74519" x="52.52" y="319" style="stroke: #000000; stroke-width: 0.8"/>
      </g>
     </g>
     <g id="text_11">
      <!-- −30 -->
      <g transform="translate(24.415313 322.799219) scale(0.1 -0.1)">
       <defs>
        <path id="DejaVuSans-2212" d="M 678 2272 
L 4684 2272 
L 4684 1741 
L 678 1741 
L 678 2272 
z
" transform="scale(0.015625)"/>
       </defs>
       <use xlink:href="#DejaVuSans-2212"/>
       <use xlink:href="#DejaVuSans-33" transform="translate(83.789062 0)"/>
       <use xlink:href="#DejaVuSans-30" transform="translate(147.412109 0)"/>
      </g>
     </g>
    </g>
    <g id="ytick_2">
     <g id="line2d_11">
      <g>
       <use xlink:href="#m2b12b74519" x="52.52" y="285.182222" style="stroke: #000000; stroke-width: 0.8"/>
      </g>
     </g>
     <g id="text_12">
      <!-- −20 -->
      <g transform="translate(24.415313 288.981441) scale(0.1 -0.1)">
       <use xlink:href="#DejaVuSans-2212"/>
       <use xlink:href="#DejaVuSans-32" transform="translate(83.789062 0)"/>
       <use xlink:href="#DejaVuSans-30" transform="translate(147.412109 0)"/>
      </g>
     </g>
    </g>
    <g id="ytick_3">
     <g id="line2d_12">
      <g>
       <use xlink:href="#m2b12b74519" x="52.52" y="251.364444" style="stroke: #000000; stroke-width: 0.8"/>
      </g>
     </g>
     <g id="text_13">
      <!-- −10 -->
      <g transform="translate(24.415313 255.163663) scale(0.1 -0.1)">
       <use xlink:href="#DejaVuSans-2212"/>
       <use xlink:href="#DejaVuSans-31" transform="translate(83.789062 0)"/>
       <use xlink:href="#DejaVuSans-30" transform="translate(147.412109 0)"/>
      </g>
     </g>
    </g>
    <g id="ytick_4">
     <g id="line2d_13">
      <g>
       <use xlink:href="#m2b12b74519" x="52.52" y="217.546667" style="stroke: #000000; stroke-width: 0.8"/>
      </g>
     </g>
     <g id="text_14">
      <!-- 0 -->
      <g transform="translate(39.1575 221.345885) scale(0.1 -0.1)">
       <use xlink:href="#DejaVuSans-30"/>
      </g>
     </g>
    </g>
    <g id="ytick_5">
     <g id="line2d_14">
      <g>
       <use xlink:href="#m2b12b74519" x="52.52" y="183.728889" style="stroke: #000000; stroke-width: 0.8"/>
      </g>
     </g>
     <g id="text_15">
      <!-- 10 -->
      <g transform="translate(32.795 187.528108) scale(0.1 -0.1)">
       <use xlink:href="#DejaVuSans-31"/>
       <use xlink:href="#DejaVuSans-30" transform="translate(63.623047 0)"/>
      </g>
     </g>
    </g>
    <g id="ytick_6">
     <g id="line2d_15">
      <g>
       <use xlink:href="#m2b12b74519" x="52.52" y="149.911111" style="stroke: #000000; stroke-width: 0.8"/>
      </g>
     </g>
     <g id="text_16">
      <!-- 20 -->
      <g transform="translate(32.795 153.71033) scale(0.1 -0.1)">
       <use xlink:href="#DejaVuSans-32"/>
       <use xlink:href="#DejaVuSans-30" transform="translate(63.623047 0)"/>
      </g>
     </g>
    </g>
    <g id="ytick_7">
     <g id="line2d_16">
      <g>
       <use xlink:href="#m2b12b74519" x="52.52" y="116.093333" style="stroke: #000000; stroke-width: 0.8"/>
      </g>
     </g>
     <g id="text_17">
      <!-- 30 -->
      <g transform="translate(32.795 119.892552) scale(0.1 -0.1)">
       <use xlink:href="#DejaVuSans-33"/>
       <use xlink:href="#DejaVuSans-30" transform="translate(63.623047 0)"/>
      </g>
     </g>
    </g>
    <g id="ytick_8">
     <g id="line2d_17">
      <g>
       <use xlink:href="#m2b12b74519" x="52.52" y="82.275556" style="stroke: #000000; stroke-width: 0.8"/>
      </g>
     </g>
     <g id="text_18">
      <!-- 40 -->
      <g transform="translate(32.795 86.074774) scale(0.1 -0.1)">
       <use xlink:href="#DejaVuSans-34"/>
       <use xlink:href="#DejaVuSans-30" transform="translate(63.623047 0)"/>
      </g>
     </g>
    </g>
    <g id="ytick_9">
     <g id="line2d_18">
      <g>
       <use xlink:href="#m2b12b74519" x="52.52" y="48.457778" style="stroke: #000000; stroke-width: 0.8"/>
      </g>
     </g>
     <g id="text_19">
      <!-- 50 -->
      <g transform="translate(32.795 52.256997) scale(0.1 -0.1)">
       <use xlink:href="#DejaVuSans-35"/>
       <use xlink:href="#DejaVuSans-30" transform="translate(63.623047 0)"/>
      </g>
     </g>
    </g>
    <g id="ytick_10">
     <g id="line2d_19">
      <g>
       <use xlink:href="#m2b12b74519" x="52.52" y="14.64" style="stroke: #000000; stroke-width: 0.8"/>
      </g>
     </g>
     <g id="text_20">
      <!-- 60 -->
      <g transform="translate(32.795 18.439219) scale(0.1 -0.1)">
       <use xlink:href="#DejaVuSans-36"/>
       <use xlink:href="#DejaVuSans-30" transform="translate(63.623047 0)"/>
      </g>
     </g>
    </g>
    <g id="text_21">
     <!-- Search Interest Deviations from Pre-viral Mean -->
     <g transform="translate(18.335625 283.459844) rotate(-90) scale(0.1 -0.1)">
      <defs>
       <path id="DejaVuSans-53" d="M 3425 4513 
L 3425 3897 
Q 3066 4069 2747 4153 
Q 2428 4238 2131 4238 
Q 1616 4238 1336 4038 
Q 1056 3838 1056 3469 
Q 1056 3159 1242 3001 
Q 1428 2844 1947 2747 
L 2328 2669 
Q 3034 2534 3370 2195 
Q 3706 1856 3706 1288 
Q 3706 609 3251 259 
Q 2797 -91 1919 -91 
Q 1588 -91 1214 -16 
Q 841 59 441 206 
L 441 856 
Q 825 641 1194 531 
Q 1563 422 1919 422 
Q 2459 422 2753 634 
Q 3047 847 3047 1241 
Q 3047 1584 2836 1778 
Q 2625 1972 2144 2069 
L 1759 2144 
Q 1053 2284 737 2584 
Q 422 2884 422 3419 
Q 422 4038 858 4394 
Q 1294 4750 2059 4750 
Q 2388 4750 2728 4690 
Q 3069 4631 3425 4513 
z
" transform="scale(0.015625)"/>
       <path id="DejaVuSans-61" d="M 2194 1759 
Q 1497 1759 1228 1600 
Q 959 1441 959 1056 
Q 959 750 1161 570 
Q 1363 391 1709 391 
Q 2188 391 2477 730 
Q 2766 1069 2766 1631 
L 2766 1759 
L 2194 1759 
z
M 3341 1997 
L 3341 0 
L 2766 0 
L 2766 531 
Q 2569 213 2275 61 
Q 1981 -91 1556 -91 
Q 1019 -91 701 211 
Q 384 513 384 1019 
Q 384 1609 779 1909 
Q 1175 2209 1959 2209 
L 2766 2209 
L 2766 2266 
Q 2766 2663 2505 2880 
Q 2244 3097 1772 3097 
Q 1472 3097 1187 3025 
Q 903 2953 641 2809 
L 641 3341 
Q 956 3463 1253 3523 
Q 1550 3584 1831 3584 
Q 2591 3584 2966 3190 
Q 3341 2797 3341 1997 
z
" transform="scale(0.015625)"/>
       <path id="DejaVuSans-72" d="M 2631 2963 
Q 2534 3019 2420 3045 
Q 2306 3072 2169 3072 
Q 1681 3072 1420 2755 
Q 1159 2438 1159 1844 
L 1159 0 
L 581 0 
L 581 3500 
L 1159 3500 
L 1159 2956 
Q 1341 3275 1631 3429 
Q 1922 3584 2338 3584 
Q 2397 3584 2469 3576 
Q 2541 3569 2628 3553 
L 2631 2963 
z
" transform="scale(0.015625)"/>
       <path id="DejaVuSans-63" d="M 3122 3366 
L 3122 2828 
Q 2878 2963 2633 3030 
Q 2388 3097 2138 3097 
Q 1578 3097 1268 2742 
Q 959 2388 959 1747 
Q 959 1106 1268 751 
Q 1578 397 2138 397 
Q 2388 397 2633 464 
Q 2878 531 3122 666 
L 3122 134 
Q 2881 22 2623 -34 
Q 2366 -91 2075 -91 
Q 1284 -91 818 406 
Q 353 903 353 1747 
Q 353 2603 823 3093 
Q 1294 3584 2113 3584 
Q 2378 3584 2631 3529 
Q 2884 3475 3122 3366 
z
" transform="scale(0.015625)"/>
       <path id="DejaVuSans-68" d="M 3513 2113 
L 3513 0 
L 2938 0 
L 2938 2094 
Q 2938 2591 2744 2837 
Q 2550 3084 2163 3084 
Q 1697 3084 1428 2787 
Q 1159 2491 1159 1978 
L 1159 0 
L 581 0 
L 581 4863 
L 1159 4863 
L 1159 2956 
Q 1366 3272 1645 3428 
Q 1925 3584 2291 3584 
Q 2894 3584 3203 3211 
Q 3513 2838 3513 2113 
z
" transform="scale(0.015625)"/>
       <path id="DejaVuSans-20" transform="scale(0.015625)"/>
       <path id="DejaVuSans-49" d="M 628 4666 
L 1259 4666 
L 1259 0 
L 628 0 
L 628 4666 
z
" transform="scale(0.015625)"/>
       <path id="DejaVuSans-6e" d="M 3513 2113 
L 3513 0 
L 2938 0 
L 2938 2094 
Q 2938 2591 2744 2837 
Q 2550 3084 2163 3084 
Q 1697 3084 1428 2787 
Q 1159 2491 1159 1978 
L 1159 0 
L 581 0 
L 581 3500 
L 1159 3500 
L 1159 2956 
Q 1366 3272 1645 3428 
Q 1925 3584 2291 3584 
Q 2894 3584 3203 3211 
Q 3513 2838 3513 2113 
z
" transform="scale(0.015625)"/>
       <path id="DejaVuSans-74" d="M 1172 4494 
L 1172 3500 
L 2356 3500 
L 2356 3053 
L 1172 3053 
L 1172 1153 
Q 1172 725 1289 603 
Q 1406 481 1766 481 
L 2356 481 
L 2356 0 
L 1766 0 
Q 1100 0 847 248 
Q 594 497 594 1153 
L 594 3053 
L 172 3053 
L 172 3500 
L 594 3500 
L 594 4494 
L 1172 4494 
z
" transform="scale(0.015625)"/>
       <path id="DejaVuSans-44" d="M 1259 4147 
L 1259 519 
L 2022 519 
Q 2988 519 3436 956 
Q 3884 1394 3884 2338 
Q 3884 3275 3436 3711 
Q 2988 4147 2022 4147 
L 1259 4147 
z
M 628 4666 
L 1925 4666 
Q 3281 4666 3915 4102 
Q 4550 3538 4550 2338 
Q 4550 1131 3912 565 
Q 3275 0 1925 0 
L 628 0 
L 628 4666 
z
" transform="scale(0.015625)"/>
       <path id="DejaVuSans-76" d="M 191 3500 
L 800 3500 
L 1894 563 
L 2988 3500 
L 3597 3500 
L 2284 0 
L 1503 0 
L 191 3500 
z
" transform="scale(0.015625)"/>
       <path id="DejaVuSans-69" d="M 603 3500 
L 1178 3500 
L 1178 0 
L 603 0 
L 603 3500 
z
M 603 4863 
L 1178 4863 
L 1178 4134 
L 603 4134 
L 603 4863 
z
" transform="scale(0.015625)"/>
       <path id="DejaVuSans-6f" d="M 1959 3097 
Q 1497 3097 1228 2736 
Q 959 2375 959 1747 
Q 959 1119 1226 758 
Q 1494 397 1959 397 
Q 2419 397 2687 759 
Q 2956 1122 2956 1747 
Q 2956 2369 2687 2733 
Q 2419 3097 1959 3097 
z
M 1959 3584 
Q 2709 3584 3137 3096 
Q 3566 2609 3566 1747 
Q 3566 888 3137 398 
Q 2709 -91 1959 -91 
Q 1206 -91 779 398 
Q 353 888 353 1747 
Q 353 2609 779 3096 
Q 1206 3584 1959 3584 
z
" transform="scale(0.015625)"/>
       <path id="DejaVuSans-66" d="M 2375 4863 
L 2375 4384 
L 1825 4384 
Q 1516 4384 1395 4259 
Q 1275 4134 1275 3809 
L 1275 3500 
L 2222 3500 
L 2222 3053 
L 1275 3053 
L 1275 0 
L 697 0 
L 697 3053 
L 147 3053 
L 147 3500 
L 697 3500 
L 697 3744 
Q 697 4328 969 4595 
Q 1241 4863 1831 4863 
L 2375 4863 
z
" transform="scale(0.015625)"/>
       <path id="DejaVuSans-6d" d="M 3328 2828 
Q 3544 3216 3844 3400 
Q 4144 3584 4550 3584 
Q 5097 3584 5394 3201 
Q 5691 2819 5691 2113 
L 5691 0 
L 5113 0 
L 5113 2094 
Q 5113 2597 4934 2840 
Q 4756 3084 4391 3084 
Q 3944 3084 3684 2787 
Q 3425 2491 3425 1978 
L 3425 0 
L 2847 0 
L 2847 2094 
Q 2847 2600 2669 2842 
Q 2491 3084 2119 3084 
Q 1678 3084 1418 2786 
Q 1159 2488 1159 1978 
L 1159 0 
L 581 0 
L 581 3500 
L 1159 3500 
L 1159 2956 
Q 1356 3278 1631 3431 
Q 1906 3584 2284 3584 
Q 2666 3584 2933 3390 
Q 3200 3197 3328 2828 
z
" transform="scale(0.015625)"/>
       <path id="DejaVuSans-50" d="M 1259 4147 
L 1259 2394 
L 2053 2394 
Q 2494 2394 2734 2622 
Q 2975 2850 2975 3272 
Q 2975 3691 2734 3919 
Q 2494 4147 2053 4147 
L 1259 4147 
z
M 628 4666 
L 2053 4666 
Q 2838 4666 3239 4311 
Q 3641 3956 3641 3272 
Q 3641 2581 3239 2228 
Q 2838 1875 2053 1875 
L 1259 1875 
L 1259 0 
L 628 0 
L 628 4666 
z
" transform="scale(0.015625)"/>
       <path id="DejaVuSans-6c" d="M 603 4863 
L 1178 4863 
L 1178 0 
L 603 0 
L 603 4863 
z
" transform="scale(0.015625)"/>
       <path id="DejaVuSans-4d" d="M 628 4666 
L 1569 4666 
L 2759 1491 
L 3956 4666 
L 4897 4666 
L 4897 0 
L 4281 0 
L 4281 4097 
L 3078 897 
L 2444 897 
L 1241 4097 
L 1241 0 
L 628 0 
L 628 4666 
z
" transform="scale(0.015625)"/>
      </defs>
      <use xlink:href="#DejaVuSans-53"/>
      <use xlink:href="#DejaVuSans-65" transform="translate(63.476562 0)"/>
      <use xlink:href="#DejaVuSans-61" transform="translate(125 0)"/>
      <use xlink:href="#DejaVuSans-72" transform="translate(186.279297 0)"/>
      <use xlink:href="#DejaVuSans-63" transform="translate(225.142578 0)"/>
      <use xlink:href="#DejaVuSans-68" transform="translate(280.123047 0)"/>
      <use xlink:href="#DejaVuSans-20" transform="translate(343.501953 0)"/>
      <use xlink:href="#DejaVuSans-49" transform="translate(375.289062 0)"/>
      <use xlink:href="#DejaVuSans-6e" transform="translate(404.78125 0)"/>
      <use xlink:href="#DejaVuSans-74" transform="translate(468.160156 0)"/>
      <use xlink:href="#DejaVuSans-65" transform="translate(507.369141 0)"/>
      <use xlink:href="#DejaVuSans-72" transform="translate(568.892578 0)"/>
      <use xlink:href="#DejaVuSans-65" transform="translate(607.755859 0)"/>
      <use xlink:href="#DejaVuSans-73" transform="translate(669.279297 0)"/>
      <use xlink:href="#DejaVuSans-74" transform="translate(721.378906 0)"/>
      <use xlink:href="#DejaVuSans-20" transform="translate(760.587891 0)"/>
      <use xlink:href="#DejaVuSans-44" transform="translate(792.375 0)"/>
      <use xlink:href="#DejaVuSans-65" transform="translate(869.376953 0)"/>
      <use xlink:href="#DejaVuSans-76" transform="translate(930.900391 0)"/>
      <use xlink:href="#DejaVuSans-69" transform="translate(990.080078 0)"/>
      <use xlink:href="#DejaVuSans-61" transform="translate(1017.863281 0)"/>
      <use xlink:href="#DejaVuSans-74" transform="translate(1079.142578 0)"/>
      <use xlink:href="#DejaVuSans-69" transform="translate(1118.351562 0)"/>
      <use xlink:href="#DejaVuSans-6f" transform="translate(1146.134766 0)"/>
      <use xlink:href="#DejaVuSans-6e" transform="translate(1207.316406 0)"/>
      <use xlink:href="#DejaVuSans-73" transform="translate(1270.695312 0)"/>
      <use xlink:href="#DejaVuSans-20" transform="translate(1322.794922 0)"/>
      <use xlink:href="#DejaVuSans-66" transform="translate(1354.582031 0)"/>
      <use xlink:href="#DejaVuSans-72" transform="translate(1389.787109 0)"/>
      <use xlink:href="#DejaVuSans-6f" transform="translate(1428.650391 0)"/>
      <use xlink:href="#DejaVuSans-6d" transform="translate(1489.832031 0)"/>
      <use xlink:href="#DejaVuSans-20" transform="translate(1587.244141 0)"/>
      <use xlink:href="#DejaVuSans-50" transform="translate(1619.03125 0)"/>
      <use xlink:href="#DejaVuSans-72" transform="translate(1677.583984 0)"/>
      <use xlink:href="#DejaVuSans-65" transform="translate(1716.447266 0)"/>
      <use xlink:href="#DejaVuSans-2d" transform="translate(1777.970703 0)"/>
      <use xlink:href="#DejaVuSans-76" transform="translate(1811.429688 0)"/>
      <use xlink:href="#DejaVuSans-69" transform="translate(1870.609375 0)"/>
      <use xlink:href="#DejaVuSans-72" transform="translate(1898.392578 0)"/>
      <use xlink:href="#DejaVuSans-61" transform="translate(1939.505859 0)"/>
      <use xlink:href="#DejaVuSans-6c" transform="translate(2000.785156 0)"/>
      <use xlink:href="#DejaVuSans-20" transform="translate(2028.568359 0)"/>
      <use xlink:href="#DejaVuSans-4d" transform="translate(2060.355469 0)"/>
      <use xlink:href="#DejaVuSans-65" transform="translate(2146.634766 0)"/>
      <use xlink:href="#DejaVuSans-61" transform="translate(2208.158203 0)"/>
      <use xlink:href="#DejaVuSans-6e" transform="translate(2269.4375 0)"/>
     </g>
    </g>
   </g>
   <g id="line2d_20">
    <path d="M 90.125944 195.293361 
L 94.744218 205.438694 
L 99.362492 191.911583 
L 103.980766 208.820472 
L 108.59904 212.20225 
L 113.217313 215.584028 
L 117.835587 215.584028 
L 122.453861 215.584028 
L 127.072135 218.965806 
L 131.690409 208.820472 
L 136.308683 202.056917 
L 140.926957 218.965806 
L 145.54523 212.20225 
L 150.163504 208.820472 
L 154.781778 212.20225 
L 159.400052 212.20225 
L 164.018326 208.820472 
L 168.6366 218.965806 
L 173.254873 212.20225 
L 177.873147 218.965806 
L 182.491421 218.965806 
L 187.109695 215.584028 
L 191.727969 212.20225 
L 196.346243 222.347583 
L 200.964517 218.965806 
L 205.58279 229.111139 
L 210.201064 225.729361 
L 214.819338 218.965806 
L 219.437612 225.729361 
L 224.055886 229.111139 
L 228.67416 229.111139 
L 233.292433 242.63825 
L 237.910707 229.111139 
L 242.528981 229.111139 
L 247.147255 229.111139 
L 251.765529 225.729361 
L 256.383803 202.056917 
L 261.002077 229.111139 
L 265.62035 239.256472 
L 270.238624 239.256472 
L 274.856898 229.111139 
L 279.475172 225.729361 
L 284.093446 208.820472 
L 288.71172 191.911583 
L 293.329994 198.675139 
L 297.948267 218.965806 
L 302.566541 218.965806 
L 307.184815 225.729361 
L 311.803089 225.729361 
L 316.421363 225.729361 
L 321.039637 205.438694 
L 325.65791 212.20225 
L 330.276184 215.584028 
L 334.894458 205.438694 
L 339.512732 188.529806 
L 344.131006 205.438694 
L 348.74928 212.20225 
L 353.367554 215.584028 
L 357.985827 222.347583 
L 362.604101 218.965806 
L 367.222375 222.347583 
L 371.840649 225.729361 
L 376.458923 222.347583 
L 381.077197 205.438694 
L 385.69547 218.965806 
L 390.313744 218.965806 
L 394.932018 218.965806 
L 399.550292 218.965806 
L 404.168566 212.20225 
L 408.78684 218.965806 
L 413.405114 212.20225 
L 418.023387 215.584028 
L 422.641661 215.584028 
L 427.259935 215.584028 
L 431.878209 218.965806 
L 436.496483 215.584028 
L 441.114757 222.347583 
L 445.73303 232.492917 
L 450.351304 235.874694 
L 454.969578 225.729361 
L 459.587852 242.63825 
L 464.206126 229.111139 
L 468.8244 222.347583 
L 473.442674 215.584028 
L 478.060947 205.438694 
L 482.679221 205.438694 
L 487.297495 208.820472 
L 491.915769 222.347583 
L 496.534043 198.675139 
L 501.152317 222.347583 
L 505.770591 235.874694 
L 510.388864 239.256472 
L 515.007138 229.111139 
L 519.625412 232.492917 
L 524.243686 218.965806 
L 528.86196 218.965806 
L 533.480234 205.438694 
L 538.098507 232.492917 
L 542.716781 222.347583 
L 547.335055 215.584028 
L 551.953329 225.729361 
L 556.571603 225.729361 
L 561.189877 215.584028 
L 565.808151 205.438694 
L 570.426424 212.20225 
L 575.044698 212.20225 
L 579.662972 198.675139 
L 584.281246 212.20225 
L 588.89952 205.438694 
L 593.517794 202.056917 
L 598.136067 222.347583 
L 602.754341 215.584028 
" clip-path="url(#pd587081edb)" style="fill: none; stroke-dasharray: 1.5,2.475; stroke-dashoffset: 0; stroke: #ff0000; stroke-width: 1.5"/>
   </g>
   <g id="line2d_21">
    <path d="M 635.082258 188.529806 
L 639.700532 202.056917 
L 644.318806 205.438694 
L 648.93708 208.820472 
L 653.555354 202.056917 
L 658.173628 202.056917 
L 662.791901 202.056917 
L 667.410175 195.293361 
L 672.028449 198.675139 
L 676.646723 202.056917 
L 681.264997 178.384472 
L 685.883271 178.384472 
L 690.501544 195.293361 
L 695.119818 198.675139 
L 699.738092 212.20225 
L 704.356366 181.76625 
L 708.97464 185.148028 
L 713.592914 168.239139 
L 718.211188 154.712028 
L 722.829461 147.948472 
L 727.447735 158.093806 
L 732.066009 161.475583 
L 736.684283 158.093806 
L 741.302557 127.657806 
L 745.920831 161.475583 
L 750.539104 178.384472 
L 755.157378 181.76625 
L 759.775652 178.384472 
L 764.393926 158.093806 
L 769.0122 141.184917 
L 773.630474 124.276028 
L 778.248748 175.002694 
L 782.867021 171.620917 
L 787.485295 168.239139 
L 792.103569 161.475583 
L 796.721843 181.76625 
L 801.340117 171.620917 
L 805.958391 154.712028 
L 810.576665 154.712028 
L 815.194938 164.857361 
L 819.813212 147.948472 
L 824.431486 154.712028 
L 829.04976 168.239139 
L 833.668034 171.620917 
L 838.286308 171.620917 
L 842.904581 178.384472 
L 847.522855 171.620917 
L 852.141129 181.76625 
L 856.759403 181.76625 
L 861.377677 161.475583 
L 865.995951 161.475583 
L 870.614225 154.712028 
L 875.232498 158.093806 
L 879.850772 178.384472 
L 884.469046 175.002694 
L 889.08732 178.384472 
L 893.705594 171.620917 
L 898.323868 175.002694 
L 902.942141 171.620917 
L 907.560415 161.475583 
L 912.178689 158.093806 
L 916.796963 168.239139 
L 921.415237 178.384472 
L 926.033511 175.002694 
L 930.651785 198.675139 
L 935.270058 191.911583 
L 939.888332 208.820472 
L 944.506606 195.293361 
L 949.12488 181.76625 
L 953.743154 181.76625 
L 958.361428 171.620917 
L 962.979701 175.002694 
L 967.597975 181.76625 
L 972.216249 178.384472 
L 976.834523 154.712028 
L 981.452797 93.840028 
L 986.071071 124.276028 
L 990.689345 147.948472 
L 995.307618 191.911583 
L 999.925892 175.002694 
L 1004.544166 185.148028 
L 1009.16244 158.093806 
L 1013.780714 100.603583 
L 1018.398988 178.384472 
L 1023.017262 178.384472 
L 1027.635535 178.384472 
L 1032.253809 168.239139 
L 1036.872083 168.239139 
L 1041.490357 175.002694 
L 1046.108631 164.857361 
L 1050.726905 161.475583 
L 1055.345178 161.475583 
L 1059.963452 164.857361 
L 1064.581726 164.857361 
" clip-path="url(#pd587081edb)" style="fill: none; stroke-dasharray: 1.5,2.475; stroke-dashoffset: 0; stroke: #ff0000; stroke-width: 1.5"/>
   </g>
   <g id="line2d_22">
    <path d="M 607.372615 208.820472 
L 611.990889 175.002694 
L 616.609163 158.093806 
L 621.227437 12.677361 
L 625.845711 120.89425 
L 630.463984 171.620917 
" clip-path="url(#pd587081edb)" style="fill: none; stroke-dasharray: 5.55,2.4; stroke-dashoffset: 0; stroke: #ff0000; stroke-width: 1.5"/>
   </g>
   <g id="line2d_23">
    <path d="M 90.125944 185.208417 
L 94.744218 198.735528 
L 99.362492 175.063083 
L 103.980766 198.735528 
L 108.59904 202.117306 
L 113.217313 198.735528 
L 117.835587 198.735528 
L 122.453861 205.499083 
L 127.072135 219.026194 
L 131.690409 212.262639 
L 136.308683 202.117306 
L 140.926957 225.78975 
L 145.54523 215.644417 
L 150.163504 205.499083 
L 154.781778 215.644417 
L 159.400052 222.407972 
L 164.018326 195.35375 
L 168.6366 219.026194 
L 173.254873 195.35375 
L 177.873147 212.262639 
L 182.491421 195.35375 
L 187.109695 212.262639 
L 191.727969 215.644417 
L 196.346243 215.644417 
L 200.964517 225.78975 
L 205.58279 235.935083 
L 210.201064 225.78975 
L 214.819338 181.826639 
L 219.437612 215.644417 
L 224.055886 195.35375 
L 228.67416 219.026194 
L 233.292433 239.316861 
L 237.910707 219.026194 
L 242.528981 219.026194 
L 247.147255 225.78975 
L 251.765529 232.553306 
L 256.383803 198.735528 
L 261.002077 242.698639 
L 265.62035 229.171528 
L 270.238624 249.462194 
L 274.856898 235.935083 
L 279.475172 232.553306 
L 284.093446 225.78975 
L 288.71172 185.208417 
L 293.329994 215.644417 
L 297.948267 208.880861 
L 302.566541 181.826639 
L 307.184815 205.499083 
L 311.803089 198.735528 
L 316.421363 212.262639 
L 321.039637 191.971972 
L 325.65791 215.644417 
L 330.276184 222.407972 
L 334.894458 229.171528 
L 339.512732 219.026194 
L 344.131006 232.553306 
L 348.74928 242.698639 
L 353.367554 235.935083 
L 357.985827 239.316861 
L 362.604101 239.316861 
L 367.222375 242.698639 
L 371.840649 256.22575 
L 376.458923 249.462194 
L 381.077197 225.78975 
L 385.69547 232.553306 
L 390.313744 219.026194 
L 394.932018 215.644417 
L 399.550292 225.78975 
L 404.168566 225.78975 
L 408.78684 229.171528 
L 413.405114 222.407972 
L 418.023387 239.316861 
L 422.641661 235.935083 
L 427.259935 242.698639 
L 431.878209 246.080417 
L 436.496483 229.171528 
L 441.114757 168.299528 
L 445.73303 195.35375 
L 450.351304 215.644417 
L 454.969578 222.407972 
L 459.587852 235.935083 
L 464.206126 232.553306 
L 468.8244 246.080417 
L 473.442674 161.535972 
L 478.060947 127.718194 
L 482.679221 185.208417 
L 487.297495 212.262639 
L 491.915769 229.171528 
L 496.534043 208.880861 
L 501.152317 239.316861 
L 505.770591 235.935083 
L 510.388864 249.462194 
L 515.007138 249.462194 
L 519.625412 249.462194 
L 524.243686 235.935083 
L 528.86196 202.117306 
L 533.480234 222.407972 
L 538.098507 229.171528 
L 542.716781 178.444861 
L 547.335055 161.535972 
L 551.953329 215.644417 
L 556.571603 225.78975 
L 561.189877 219.026194 
L 565.808151 212.262639 
L 570.426424 222.407972 
L 575.044698 212.262639 
L 579.662972 229.171528 
L 584.281246 225.78975 
L 588.89952 215.644417 
L 593.517794 222.407972 
L 598.136067 232.553306 
L 602.754341 232.553306 
" clip-path="url(#pd587081edb)" style="fill: none; stroke-dasharray: 1.5,2.475; stroke-dashoffset: 0; stroke: #1f77b4; stroke-width: 1.5"/>
   </g>
   <g id="line2d_24">
    <path d="M 635.082258 252.843972 
L 639.700532 252.843972 
L 644.318806 252.843972 
L 648.93708 256.22575 
L 653.555354 246.080417 
L 658.173628 266.371083 
L 662.791901 256.22575 
L 667.410175 256.22575 
L 672.028449 232.553306 
L 676.646723 229.171528 
L 681.264997 235.935083 
L 685.883271 239.316861 
L 690.501544 256.22575 
L 695.119818 249.462194 
L 699.738092 266.371083 
L 704.356366 252.843972 
L 708.97464 256.22575 
L 713.592914 242.698639 
L 718.211188 215.644417 
L 722.829461 232.553306 
L 727.447735 252.843972 
L 732.066009 252.843972 
L 736.684283 279.898194 
L 741.302557 232.553306 
L 745.920831 269.752861 
L 750.539104 262.989306 
L 755.157378 279.898194 
L 759.775652 276.516417 
L 764.393926 262.989306 
L 769.0122 219.026194 
L 773.630474 222.407972 
L 778.248748 269.752861 
L 782.867021 262.989306 
L 787.485295 262.989306 
L 792.103569 266.371083 
L 796.721843 266.371083 
L 801.340117 262.989306 
L 805.958391 252.843972 
L 810.576665 239.316861 
L 815.194938 256.22575 
L 819.813212 252.843972 
L 824.431486 246.080417 
L 829.04976 262.989306 
L 833.668034 256.22575 
L 838.286308 246.080417 
L 842.904581 252.843972 
L 847.522855 252.843972 
L 852.141129 256.22575 
L 856.759403 259.607528 
L 861.377677 262.989306 
L 865.995951 246.080417 
L 870.614225 232.553306 
L 875.232498 252.843972 
L 879.850772 256.22575 
L 884.469046 262.989306 
L 889.08732 262.989306 
L 893.705594 262.989306 
L 898.323868 262.989306 
L 902.942141 256.22575 
L 907.560415 256.22575 
L 912.178689 249.462194 
L 916.796963 262.989306 
L 921.415237 266.371083 
L 926.033511 273.134639 
L 930.651785 276.516417 
L 935.270058 273.134639 
L 939.888332 290.043528 
L 944.506606 286.66175 
L 949.12488 279.898194 
L 953.743154 279.898194 
L 958.361428 273.134639 
L 962.979701 269.752861 
L 967.597975 276.516417 
L 972.216249 273.134639 
L 976.834523 273.134639 
L 981.452797 232.553306 
L 986.071071 276.516417 
L 990.689345 273.134639 
L 995.307618 286.66175 
L 999.925892 279.898194 
L 1004.544166 276.516417 
L 1009.16244 229.171528 
L 1013.780714 239.316861 
L 1018.398988 256.22575 
L 1023.017262 239.316861 
L 1027.635535 256.22575 
L 1032.253809 256.22575 
L 1036.872083 259.607528 
L 1041.490357 262.989306 
L 1046.108631 256.22575 
L 1050.726905 242.698639 
L 1055.345178 256.22575 
L 1059.963452 259.607528 
L 1064.581726 249.462194 
" clip-path="url(#pd587081edb)" style="fill: none; stroke-dasharray: 1.5,2.475; stroke-dashoffset: 0; stroke: #1f77b4; stroke-width: 1.5"/>
   </g>
   <g id="line2d_25">
    <path d="M 90.125944 206.072778 
L 94.744218 206.072778 
L 99.362492 202.691 
L 103.980766 206.072778 
L 108.59904 209.454556 
L 113.217313 209.454556 
L 117.835587 209.454556 
L 122.453861 212.836333 
L 127.072135 209.454556 
L 131.690409 206.072778 
L 136.308683 206.072778 
L 140.926957 212.836333 
L 145.54523 212.836333 
L 150.163504 212.836333 
L 154.781778 212.836333 
L 159.400052 212.836333 
L 164.018326 209.454556 
L 168.6366 212.836333 
L 173.254873 209.454556 
L 177.873147 209.454556 
L 182.491421 209.454556 
L 187.109695 212.836333 
L 191.727969 212.836333 
L 196.346243 216.218111 
L 200.964517 212.836333 
L 205.58279 216.218111 
L 210.201064 216.218111 
L 214.819338 216.218111 
L 219.437612 216.218111 
L 224.055886 219.599889 
L 228.67416 219.599889 
L 233.292433 222.981667 
L 237.910707 219.599889 
L 242.528981 212.836333 
L 247.147255 219.599889 
L 251.765529 226.363444 
L 256.383803 219.599889 
L 261.002077 222.981667 
L 265.62035 222.981667 
L 270.238624 226.363444 
L 274.856898 219.599889 
L 279.475172 222.981667 
L 284.093446 222.981667 
L 288.71172 206.072778 
L 293.329994 219.599889 
L 297.948267 222.981667 
L 302.566541 219.599889 
L 307.184815 222.981667 
L 311.803089 219.599889 
L 316.421363 219.599889 
L 321.039637 212.836333 
L 325.65791 216.218111 
L 330.276184 219.599889 
L 334.894458 216.218111 
L 339.512732 216.218111 
L 344.131006 216.218111 
L 348.74928 219.599889 
L 353.367554 216.218111 
L 357.985827 216.218111 
L 362.604101 216.218111 
L 367.222375 216.218111 
L 371.840649 212.836333 
L 376.458923 216.218111 
L 381.077197 212.836333 
L 385.69547 219.599889 
L 390.313744 216.218111 
L 394.932018 216.218111 
L 399.550292 216.218111 
L 404.168566 212.836333 
L 408.78684 209.454556 
L 413.405114 212.836333 
L 418.023387 216.218111 
L 422.641661 216.218111 
L 427.259935 212.836333 
L 431.878209 216.218111 
L 436.496483 222.981667 
L 441.114757 219.599889 
L 445.73303 222.981667 
L 450.351304 222.981667 
L 454.969578 222.981667 
L 459.587852 222.981667 
L 464.206126 222.981667 
L 468.8244 222.981667 
L 473.442674 222.981667 
L 478.060947 222.981667 
L 482.679221 219.599889 
L 487.297495 222.981667 
L 491.915769 222.981667 
L 496.534043 222.981667 
L 501.152317 222.981667 
L 505.770591 222.981667 
L 510.388864 226.363444 
L 515.007138 222.981667 
L 519.625412 222.981667 
L 524.243686 222.981667 
L 528.86196 212.836333 
L 533.480234 189.163889 
L 538.098507 226.363444 
L 542.716781 226.363444 
L 547.335055 226.363444 
L 551.953329 226.363444 
L 556.571603 226.363444 
L 561.189877 222.981667 
L 565.808151 219.599889 
L 570.426424 222.981667 
L 575.044698 222.981667 
L 579.662972 222.981667 
L 584.281246 222.981667 
L 588.89952 226.363444 
L 593.517794 226.363444 
L 598.136067 226.363444 
L 602.754341 226.363444 
" clip-path="url(#pd587081edb)" style="fill: none; stroke-dasharray: 1.5,2.475; stroke-dashoffset: 0; stroke: #2ca02c; stroke-width: 1.5"/>
   </g>
   <g id="line2d_26">
    <path d="M 635.082258 222.981667 
L 639.700532 226.363444 
L 644.318806 222.981667 
L 648.93708 226.363444 
L 653.555354 226.363444 
L 658.173628 226.363444 
L 662.791901 229.745222 
L 667.410175 226.363444 
L 672.028449 226.363444 
L 676.646723 229.745222 
L 681.264997 226.363444 
L 685.883271 226.363444 
L 690.501544 229.745222 
L 695.119818 226.363444 
L 699.738092 229.745222 
L 704.356366 229.745222 
L 708.97464 229.745222 
L 713.592914 229.745222 
L 718.211188 229.745222 
L 722.829461 229.745222 
L 727.447735 222.981667 
L 732.066009 219.599889 
L 736.684283 219.599889 
L 741.302557 222.981667 
L 745.920831 229.745222 
L 750.539104 233.127 
L 755.157378 233.127 
L 759.775652 233.127 
L 764.393926 233.127 
L 769.0122 226.363444 
L 773.630474 229.745222 
L 778.248748 233.127 
L 782.867021 236.508778 
L 787.485295 233.127 
L 792.103569 233.127 
L 796.721843 229.745222 
L 801.340117 229.745222 
L 805.958391 233.127 
L 810.576665 229.745222 
L 815.194938 233.127 
L 819.813212 233.127 
L 824.431486 229.745222 
L 829.04976 233.127 
L 833.668034 233.127 
L 838.286308 233.127 
L 842.904581 229.745222 
L 847.522855 233.127 
L 852.141129 233.127 
L 856.759403 233.127 
L 861.377677 233.127 
L 865.995951 236.508778 
L 870.614225 233.127 
L 875.232498 233.127 
L 879.850772 236.508778 
L 884.469046 236.508778 
L 889.08732 236.508778 
L 893.705594 236.508778 
L 898.323868 233.127 
L 902.942141 233.127 
L 907.560415 233.127 
L 912.178689 233.127 
L 916.796963 233.127 
L 921.415237 233.127 
L 926.033511 233.127 
L 930.651785 236.508778 
L 935.270058 233.127 
L 939.888332 236.508778 
L 944.506606 236.508778 
L 949.12488 236.508778 
L 953.743154 236.508778 
L 958.361428 236.508778 
L 962.979701 233.127 
L 967.597975 236.508778 
L 972.216249 236.508778 
L 976.834523 236.508778 
L 981.452797 233.127 
L 986.071071 236.508778 
L 990.689345 236.508778 
L 995.307618 239.890556 
L 999.925892 236.508778 
L 1004.544166 236.508778 
L 1009.16244 236.508778 
L 1013.780714 236.508778 
L 1018.398988 236.508778 
L 1023.017262 239.890556 
L 1027.635535 239.890556 
L 1032.253809 239.890556 
L 1036.872083 239.890556 
L 1041.490357 239.890556 
L 1046.108631 236.508778 
L 1050.726905 239.890556 
L 1055.345178 236.508778 
L 1059.963452 236.508778 
L 1064.581726 236.508778 
" clip-path="url(#pd587081edb)" style="fill: none; stroke-dasharray: 1.5,2.475; stroke-dashoffset: 0; stroke: #2ca02c; stroke-width: 1.5"/>
   </g>
   <g id="line2d_27">
    <path d="M 90.125944 196.772889 
L 94.744218 203.536444 
L 99.362492 196.772889 
L 103.980766 193.391111 
L 108.59904 206.918222 
L 113.217313 206.918222 
L 117.835587 203.536444 
L 122.453861 210.3 
L 127.072135 210.3 
L 131.690409 196.772889 
L 136.308683 176.482222 
L 140.926957 217.063556 
L 145.54523 217.063556 
L 150.163504 217.063556 
L 154.781778 217.063556 
L 159.400052 210.3 
L 164.018326 190.009333 
L 168.6366 213.681778 
L 173.254873 203.536444 
L 177.873147 210.3 
L 182.491421 203.536444 
L 187.109695 206.918222 
L 191.727969 213.681778 
L 196.346243 213.681778 
L 200.964517 213.681778 
L 205.58279 217.063556 
L 210.201064 220.445333 
L 214.819338 217.063556 
L 219.437612 233.972444 
L 224.055886 223.827111 
L 228.67416 227.208889 
L 233.292433 240.736 
L 237.910707 227.208889 
L 242.528981 223.827111 
L 247.147255 230.590667 
L 251.765529 233.972444 
L 256.383803 227.208889 
L 261.002077 230.590667 
L 265.62035 233.972444 
L 270.238624 240.736 
L 274.856898 230.590667 
L 279.475172 217.063556 
L 284.093446 196.772889 
L 288.71172 176.482222 
L 293.329994 193.391111 
L 297.948267 206.918222 
L 302.566541 203.536444 
L 307.184815 213.681778 
L 311.803089 217.063556 
L 316.421363 206.918222 
L 321.039637 176.482222 
L 325.65791 217.063556 
L 330.276184 220.445333 
L 334.894458 217.063556 
L 339.512732 210.3 
L 344.131006 213.681778 
L 348.74928 220.445333 
L 353.367554 223.827111 
L 357.985827 227.208889 
L 362.604101 223.827111 
L 367.222375 223.827111 
L 371.840649 227.208889 
L 376.458923 213.681778 
L 381.077197 203.536444 
L 385.69547 230.590667 
L 390.313744 227.208889 
L 394.932018 230.590667 
L 399.550292 217.063556 
L 404.168566 203.536444 
L 408.78684 227.208889 
L 413.405114 220.445333 
L 418.023387 227.208889 
L 422.641661 230.590667 
L 427.259935 223.827111 
L 431.878209 223.827111 
L 436.496483 227.208889 
L 441.114757 223.827111 
L 445.73303 230.590667 
L 450.351304 240.736 
L 454.969578 233.972444 
L 459.587852 237.354222 
L 464.206126 240.736 
L 468.8244 244.117778 
L 473.442674 244.117778 
L 478.060947 240.736 
L 482.679221 233.972444 
L 487.297495 237.354222 
L 491.915769 237.354222 
L 496.534043 223.827111 
L 501.152317 230.590667 
L 505.770591 240.736 
L 510.388864 240.736 
L 515.007138 223.827111 
L 519.625412 220.445333 
L 524.243686 196.772889 
L 528.86196 186.627556 
L 533.480234 196.772889 
L 538.098507 217.063556 
L 542.716781 213.681778 
L 547.335055 223.827111 
L 551.953329 230.590667 
L 556.571603 213.681778 
L 561.189877 186.627556 
L 565.808151 196.772889 
L 570.426424 183.245778 
L 575.044698 206.918222 
L 579.662972 206.918222 
L 584.281246 223.827111 
L 588.89952 227.208889 
L 593.517794 227.208889 
L 598.136067 230.590667 
L 602.754341 223.827111 
" clip-path="url(#pd587081edb)" style="fill: none; stroke-dasharray: 1.5,2.475; stroke-dashoffset: 0; stroke: #8c564b; stroke-width: 1.5"/>
   </g>
   <g id="line2d_28">
    <path d="M 635.082258 237.354222 
L 639.700532 230.590667 
L 644.318806 210.3 
L 648.93708 227.208889 
L 653.555354 230.590667 
L 658.173628 230.590667 
L 662.791901 217.063556 
L 667.410175 220.445333 
L 672.028449 227.208889 
L 676.646723 233.972444 
L 681.264997 227.208889 
L 685.883271 227.208889 
L 690.501544 237.354222 
L 695.119818 240.736 
L 699.738092 244.117778 
L 704.356366 240.736 
L 708.97464 244.117778 
L 713.592914 247.499556 
L 718.211188 250.881333 
L 722.829461 247.499556 
L 727.447735 250.881333 
L 732.066009 250.881333 
L 736.684283 254.263111 
L 741.302557 240.736 
L 745.920831 244.117778 
L 750.539104 247.499556 
L 755.157378 254.263111 
L 759.775652 247.499556 
L 764.393926 237.354222 
L 769.0122 213.681778 
L 773.630474 213.681778 
L 778.248748 240.736 
L 782.867021 237.354222 
L 787.485295 244.117778 
L 792.103569 237.354222 
L 796.721843 244.117778 
L 801.340117 217.063556 
L 805.958391 233.972444 
L 810.576665 233.972444 
L 815.194938 237.354222 
L 819.813212 237.354222 
L 824.431486 240.736 
L 829.04976 244.117778 
L 833.668034 247.499556 
L 838.286308 247.499556 
L 842.904581 244.117778 
L 847.522855 244.117778 
L 852.141129 247.499556 
L 856.759403 240.736 
L 861.377677 230.590667 
L 865.995951 244.117778 
L 870.614225 237.354222 
L 875.232498 247.499556 
L 879.850772 237.354222 
L 884.469046 230.590667 
L 889.08732 250.881333 
L 893.705594 257.644889 
L 898.323868 244.117778 
L 902.942141 240.736 
L 907.560415 240.736 
L 912.178689 240.736 
L 916.796963 240.736 
L 921.415237 240.736 
L 926.033511 233.972444 
L 930.651785 250.881333 
L 935.270058 250.881333 
L 939.888332 254.263111 
L 944.506606 244.117778 
L 949.12488 250.881333 
L 953.743154 254.263111 
L 958.361428 254.263111 
L 962.979701 247.499556 
L 967.597975 250.881333 
L 972.216249 250.881333 
L 976.834523 244.117778 
L 981.452797 206.918222 
L 986.071071 247.499556 
L 990.689345 254.263111 
L 995.307618 250.881333 
L 999.925892 240.736 
L 1004.544166 233.972444 
L 1009.16244 213.681778 
L 1013.780714 203.536444 
L 1018.398988 240.736 
L 1023.017262 244.117778 
L 1027.635535 247.499556 
L 1032.253809 247.499556 
L 1036.872083 244.117778 
L 1041.490357 220.445333 
L 1046.108631 233.972444 
L 1050.726905 244.117778 
L 1055.345178 244.117778 
L 1059.963452 240.736 
L 1064.581726 244.117778 
" clip-path="url(#pd587081edb)" style="fill: none; stroke-dasharray: 1.5,2.475; stroke-dashoffset: 0; stroke: #8c564b; stroke-width: 1.5"/>
   </g>
   <g id="line2d_29">
    <path d="M 90.125944 203.385472 
L 94.744218 206.76725 
L 99.362492 203.385472 
L 103.980766 203.385472 
L 108.59904 203.385472 
L 113.217313 210.149028 
L 117.835587 210.149028 
L 122.453861 210.149028 
L 127.072135 206.76725 
L 131.690409 210.149028 
L 136.308683 206.76725 
L 140.926957 213.530806 
L 145.54523 206.76725 
L 150.163504 203.385472 
L 154.781778 210.149028 
L 159.400052 203.385472 
L 164.018326 203.385472 
L 168.6366 206.76725 
L 173.254873 203.385472 
L 177.873147 206.76725 
L 182.491421 206.76725 
L 187.109695 203.385472 
L 191.727969 210.149028 
L 196.346243 210.149028 
L 200.964517 216.912583 
L 205.58279 216.912583 
L 210.201064 213.530806 
L 214.819338 213.530806 
L 219.437612 216.912583 
L 224.055886 220.294361 
L 228.67416 216.912583 
L 233.292433 223.676139 
L 237.910707 220.294361 
L 242.528981 216.912583 
L 247.147255 220.294361 
L 251.765529 216.912583 
L 256.383803 206.76725 
L 261.002077 216.912583 
L 265.62035 216.912583 
L 270.238624 223.676139 
L 274.856898 220.294361 
L 279.475172 216.912583 
L 284.093446 210.149028 
L 288.71172 196.621917 
L 293.329994 213.530806 
L 297.948267 216.912583 
L 302.566541 213.530806 
L 307.184815 220.294361 
L 311.803089 220.294361 
L 316.421363 220.294361 
L 321.039637 220.294361 
L 325.65791 213.530806 
L 330.276184 213.530806 
L 334.894458 216.912583 
L 339.512732 213.530806 
L 344.131006 216.912583 
L 348.74928 213.530806 
L 353.367554 216.912583 
L 357.985827 220.294361 
L 362.604101 220.294361 
L 367.222375 223.676139 
L 371.840649 223.676139 
L 376.458923 223.676139 
L 381.077197 223.676139 
L 385.69547 227.057917 
L 390.313744 220.294361 
L 394.932018 220.294361 
L 399.550292 220.294361 
L 404.168566 216.912583 
L 408.78684 220.294361 
L 413.405114 216.912583 
L 418.023387 220.294361 
L 422.641661 220.294361 
L 427.259935 220.294361 
L 431.878209 220.294361 
L 436.496483 223.676139 
L 441.114757 223.676139 
L 445.73303 223.676139 
L 450.351304 227.057917 
L 454.969578 227.057917 
L 459.587852 230.439694 
L 464.206126 223.676139 
L 468.8244 227.057917 
L 473.442674 227.057917 
L 478.060947 227.057917 
L 482.679221 227.057917 
L 487.297495 230.439694 
L 491.915769 227.057917 
L 496.534043 216.912583 
L 501.152317 227.057917 
L 505.770591 227.057917 
L 510.388864 230.439694 
L 515.007138 227.057917 
L 519.625412 223.676139 
L 524.243686 216.912583 
L 528.86196 216.912583 
L 533.480234 216.912583 
L 538.098507 227.057917 
L 542.716781 227.057917 
L 547.335055 223.676139 
L 551.953329 227.057917 
L 556.571603 227.057917 
L 561.189877 220.294361 
L 565.808151 216.912583 
L 570.426424 223.676139 
L 575.044698 220.294361 
L 579.662972 220.294361 
L 584.281246 216.912583 
L 588.89952 220.294361 
L 593.517794 223.676139 
L 598.136067 227.057917 
L 602.754341 223.676139 
" clip-path="url(#pd587081edb)" style="fill: none; stroke-dasharray: 1.5,2.475; stroke-dashoffset: 0; stroke: #9467bd; stroke-width: 1.5"/>
   </g>
   <g id="line2d_30">
    <path d="M 635.082258 223.676139 
L 639.700532 223.676139 
L 644.318806 216.912583 
L 648.93708 223.676139 
L 653.555354 220.294361 
L 658.173628 227.057917 
L 662.791901 223.676139 
L 667.410175 223.676139 
L 672.028449 223.676139 
L 676.646723 227.057917 
L 681.264997 227.057917 
L 685.883271 227.057917 
L 690.501544 230.439694 
L 695.119818 230.439694 
L 699.738092 233.821472 
L 704.356366 227.057917 
L 708.97464 233.821472 
L 713.592914 233.821472 
L 718.211188 237.20325 
L 722.829461 237.20325 
L 727.447735 233.821472 
L 732.066009 233.821472 
L 736.684283 240.585028 
L 741.302557 223.676139 
L 745.920831 237.20325 
L 750.539104 233.821472 
L 755.157378 237.20325 
L 759.775652 237.20325 
L 764.393926 230.439694 
L 769.0122 223.676139 
L 773.630474 220.294361 
L 778.248748 233.821472 
L 782.867021 233.821472 
L 787.485295 237.20325 
L 792.103569 233.821472 
L 796.721843 237.20325 
L 801.340117 230.439694 
L 805.958391 230.439694 
L 810.576665 227.057917 
L 815.194938 223.676139 
L 819.813212 227.057917 
L 824.431486 227.057917 
L 829.04976 230.439694 
L 833.668034 233.821472 
L 838.286308 237.20325 
L 842.904581 176.33125 
L 847.522855 230.439694 
L 852.141129 230.439694 
L 856.759403 233.821472 
L 861.377677 233.821472 
L 865.995951 233.821472 
L 870.614225 230.439694 
L 875.232498 237.20325 
L 879.850772 237.20325 
L 884.469046 237.20325 
L 889.08732 237.20325 
L 893.705594 237.20325 
L 898.323868 240.585028 
L 902.942141 240.585028 
L 907.560415 233.821472 
L 912.178689 237.20325 
L 916.796963 233.821472 
L 921.415237 237.20325 
L 926.033511 237.20325 
L 930.651785 240.585028 
L 935.270058 237.20325 
L 939.888332 243.966806 
L 944.506606 240.585028 
L 949.12488 240.585028 
L 953.743154 240.585028 
L 958.361428 240.585028 
L 962.979701 240.585028 
L 967.597975 243.966806 
L 972.216249 240.585028 
L 976.834523 237.20325 
L 981.452797 220.294361 
L 986.071071 240.585028 
L 990.689345 240.585028 
L 995.307618 240.585028 
L 999.925892 237.20325 
L 1004.544166 237.20325 
L 1009.16244 227.057917 
L 1013.780714 216.912583 
L 1018.398988 233.821472 
L 1023.017262 237.20325 
L 1027.635535 237.20325 
L 1032.253809 227.057917 
L 1036.872083 233.821472 
L 1041.490357 237.20325 
L 1046.108631 233.821472 
L 1050.726905 230.439694 
L 1055.345178 233.821472 
L 1059.963452 227.057917 
L 1064.581726 233.821472 
" clip-path="url(#pd587081edb)" style="fill: none; stroke-dasharray: 1.5,2.475; stroke-dashoffset: 0; stroke: #9467bd; stroke-width: 1.5"/>
   </g>
   <g id="line2d_31">
    <path d="M 90.125944 209.429495 
L 94.744218 209.806371 
L 99.362492 210.176942 
L 103.980766 210.541207 
L 108.59904 210.899167 
L 113.217313 211.250821 
L 117.835587 211.596169 
L 122.453861 211.935212 
L 127.072135 212.267949 
L 131.690409 212.594381 
L 136.308683 212.914507 
L 140.926957 213.228328 
L 145.54523 213.535843 
L 150.163504 213.837053 
L 154.781778 214.131957 
L 159.400052 214.420555 
L 164.018326 214.702848 
L 168.6366 214.978835 
L 173.254873 215.248517 
L 177.873147 215.511893 
L 182.491421 215.768964 
L 187.109695 216.019729 
L 191.727969 216.264188 
L 196.346243 216.502342 
L 200.964517 216.734191 
L 205.58279 216.959733 
L 210.201064 217.178971 
L 214.819338 217.391902 
L 219.437612 217.598528 
L 224.055886 217.798849 
L 228.67416 217.992864 
L 233.292433 218.180573 
L 237.910707 218.361977 
L 242.528981 218.537076 
L 247.147255 218.705868 
L 251.765529 218.868356 
L 256.383803 219.024537 
L 261.002077 219.174413 
L 265.62035 219.317984 
L 270.238624 219.455249 
L 274.856898 219.586208 
L 279.475172 219.710862 
L 284.093446 219.82921 
L 288.71172 219.941253 
L 293.329994 220.04699 
L 297.948267 220.146422 
L 302.566541 220.239548 
L 307.184815 220.326368 
L 311.803089 220.406883 
L 316.421363 220.481092 
L 321.039637 220.548996 
L 325.65791 220.610594 
L 330.276184 220.665887 
L 334.894458 220.714874 
L 339.512732 220.757556 
L 344.131006 220.793932 
L 348.74928 220.824002 
L 353.367554 220.847767 
L 357.985827 220.865226 
L 362.604101 220.87638 
L 367.222375 220.881228 
L 371.840649 220.879771 
L 376.458923 220.872008 
L 381.077197 220.857939 
L 385.69547 220.837565 
L 390.313744 220.810886 
L 394.932018 220.7779 
L 399.550292 220.73861 
L 404.168566 220.693013 
L 408.78684 220.641112 
L 413.405114 220.582904 
L 418.023387 220.518391 
L 422.641661 220.447573 
L 427.259935 220.370448 
L 431.878209 220.287019 
L 436.496483 220.197283 
L 441.114757 220.101243 
L 445.73303 219.998896 
L 450.351304 219.890244 
L 454.969578 219.775287 
L 459.587852 219.654024 
L 464.206126 219.526455 
L 468.8244 219.392581 
L 473.442674 219.252401 
L 478.060947 219.105916 
L 482.679221 218.953125 
L 487.297495 218.794029 
L 491.915769 218.628627 
L 496.534043 218.456919 
L 501.152317 218.278906 
L 505.770591 218.094588 
L 510.388864 217.903963 
L 515.007138 217.707034 
L 519.625412 217.503798 
L 524.243686 217.294257 
L 528.86196 217.078411 
L 533.480234 216.856259 
L 538.098507 216.627801 
L 542.716781 216.393038 
L 547.335055 216.151969 
L 551.953329 215.904595 
L 556.571603 215.650915 
L 561.189877 215.39093 
L 565.808151 215.124639 
L 570.426424 214.852043 
L 575.044698 214.57314 
L 579.662972 214.287933 
L 584.281246 213.99642 
L 588.89952 213.698601 
L 593.517794 213.394477 
L 598.136067 213.084047 
L 602.754341 212.767311 
" clip-path="url(#pd587081edb)" style="fill: none; stroke: #008000; stroke-width: 2.5; stroke-linecap: square"/>
   </g>
   <g id="line2d_32">
    <path d="M 635.082258 194.248011 
L 639.700532 193.275156 
L 644.318806 192.318334 
L 648.93708 191.377544 
L 653.555354 190.452786 
L 658.173628 189.544062 
L 662.791901 188.65137 
L 667.410175 187.77471 
L 672.028449 186.914083 
L 676.646723 186.069489 
L 681.264997 185.240927 
L 685.883271 184.428398 
L 690.501544 183.631902 
L 695.119818 182.851438 
L 699.738092 182.087007 
L 704.356366 181.338609 
L 708.97464 180.606243 
L 713.592914 179.889909 
L 718.211188 179.189609 
L 722.829461 178.50534 
L 727.447735 177.837105 
L 732.066009 177.184902 
L 736.684283 176.548732 
L 741.302557 175.928594 
L 745.920831 175.324489 
L 750.539104 174.736416 
L 755.157378 174.164377 
L 759.775652 173.608369 
L 764.393926 173.068395 
L 769.0122 172.544453 
L 773.630474 172.036543 
L 778.248748 171.544667 
L 782.867021 171.068822 
L 787.485295 170.609011 
L 792.103569 170.165232 
L 796.721843 169.737485 
L 801.340117 169.325772 
L 805.958391 168.930091 
L 810.576665 168.550442 
L 815.194938 168.186826 
L 819.813212 167.839243 
L 824.431486 167.507692 
L 829.04976 167.192174 
L 833.668034 166.892689 
L 838.286308 166.609236 
L 842.904581 166.341816 
L 847.522855 166.090428 
L 852.141129 165.855073 
L 856.759403 165.63575 
L 861.377677 165.432461 
L 865.995951 165.245204 
L 870.614225 165.073979 
L 875.232498 164.918787 
L 879.850772 164.779628 
L 884.469046 164.656501 
L 889.08732 164.549407 
L 893.705594 164.458345 
L 898.323868 164.383316 
L 902.942141 164.32432 
L 907.560415 164.281356 
L 912.178689 164.254425 
L 916.796963 164.243527 
L 921.415237 164.248661 
L 926.033511 164.269828 
L 930.651785 164.307027 
L 935.270058 164.360259 
L 939.888332 164.429524 
L 944.506606 164.514821 
L 949.12488 164.616151 
L 953.743154 164.733513 
L 958.361428 164.866908 
L 962.979701 165.016336 
L 967.597975 165.181796 
L 972.216249 165.363289 
L 976.834523 165.560814 
L 981.452797 165.774372 
L 986.071071 166.003963 
L 990.689345 166.249586 
L 995.307618 166.511242 
L 999.925892 166.788931 
L 1004.544166 167.082652 
L 1009.16244 167.392406 
L 1013.780714 167.718192 
L 1018.398988 168.060011 
L 1023.017262 168.417862 
L 1027.635535 168.791747 
L 1032.253809 169.181663 
L 1036.872083 169.587613 
L 1041.490357 170.009595 
L 1046.108631 170.44761 
L 1050.726905 170.901657 
L 1055.345178 171.371737 
L 1059.963452 171.857849 
L 1064.581726 172.359994 
" clip-path="url(#pd587081edb)" style="fill: none; stroke: #008000; stroke-width: 2.5; stroke-linecap: square"/>
   </g>
   <g id="line2d_33">
    <path d="M 90.125944 203.082021 
L 94.744218 203.577221 
L 99.362492 204.066058 
L 103.980766 204.548531 
L 108.59904 205.024639 
L 113.217313 205.494384 
L 117.835587 205.957764 
L 122.453861 206.41478 
L 127.072135 206.865432 
L 131.690409 207.30972 
L 136.308683 207.747644 
L 140.926957 208.179204 
L 145.54523 208.6044 
L 150.163504 209.023231 
L 154.781778 209.435699 
L 159.400052 209.841802 
L 164.018326 210.241541 
L 168.6366 210.634916 
L 173.254873 211.021927 
L 177.873147 211.402574 
L 182.491421 211.776857 
L 187.109695 212.144775 
L 191.727969 212.50633 
L 196.346243 212.86152 
L 200.964517 213.210347 
L 205.58279 213.552809 
L 210.201064 213.888907 
L 214.819338 214.218641 
L 219.437612 214.542011 
L 224.055886 214.859016 
L 228.67416 215.169658 
L 233.292433 215.473935 
L 237.910707 215.771849 
L 242.528981 216.063398 
L 247.147255 216.348583 
L 251.765529 216.627404 
L 256.383803 216.899861 
L 261.002077 217.165954 
L 265.62035 217.425683 
L 270.238624 217.679047 
L 274.856898 217.926048 
L 279.475172 218.166684 
L 284.093446 218.400957 
L 288.71172 218.628865 
L 293.329994 218.850409 
L 297.948267 219.065589 
L 302.566541 219.274405 
L 307.184815 219.476856 
L 311.803089 219.672944 
L 316.421363 219.862667 
L 321.039637 220.046027 
L 325.65791 220.223022 
L 330.276184 220.393653 
L 334.894458 220.55792 
L 339.512732 220.715823 
L 344.131006 220.867362 
L 348.74928 221.012537 
L 353.367554 221.151347 
L 357.985827 221.283794 
L 362.604101 221.409876 
L 367.222375 221.529594 
L 371.840649 221.642948 
L 376.458923 221.749938 
L 381.077197 221.850564 
L 385.69547 221.944826 
L 390.313744 222.032724 
L 394.932018 222.114257 
L 399.550292 222.189427 
L 404.168566 222.258232 
L 408.78684 222.320674 
L 413.405114 222.376751 
L 418.023387 222.426464 
L 422.641661 222.469813 
L 427.259935 222.506797 
L 431.878209 222.537418 
L 436.496483 222.561675 
L 441.114757 222.579567 
L 445.73303 222.591095 
L 450.351304 222.59626 
L 454.969578 222.59506 
L 459.587852 222.587496 
L 464.206126 222.573568 
L 468.8244 222.553275 
L 473.442674 222.526619 
L 478.060947 222.493599 
L 482.679221 222.454214 
L 487.297495 222.408465 
L 491.915769 222.356353 
L 496.534043 222.297876 
L 501.152317 222.233035 
L 505.770591 222.16183 
L 510.388864 222.08426 
L 515.007138 222.000327 
L 519.625412 221.91003 
L 524.243686 221.813368 
L 528.86196 221.710342 
L 533.480234 221.600953 
L 538.098507 221.485199 
L 542.716781 221.363081 
L 547.335055 221.234599 
L 551.953329 221.099752 
L 556.571603 220.958542 
L 561.189877 220.810968 
L 565.808151 220.657029 
L 570.426424 220.496726 
L 575.044698 220.330059 
L 579.662972 220.157029 
L 584.281246 219.977634 
L 588.89952 219.791874 
L 593.517794 219.599751 
L 598.136067 219.401264 
L 602.754341 219.196412 
" clip-path="url(#pd587081edb)" style="fill: none; stroke: #ff7f0e; stroke-width: 2.5; stroke-linecap: square"/>
   </g>
   <g id="line2d_34">
    <path d="M 635.082258 230.522778 
L 639.700532 230.913629 
L 644.318806 231.298693 
L 648.93708 231.677972 
L 653.555354 232.051466 
L 658.173628 232.419173 
L 662.791901 232.781095 
L 667.410175 233.137232 
L 672.028449 233.487582 
L 676.646723 233.832147 
L 681.264997 234.170926 
L 685.883271 234.503919 
L 690.501544 234.831127 
L 695.119818 235.152549 
L 699.738092 235.468185 
L 704.356366 235.778036 
L 708.97464 236.082101 
L 713.592914 236.38038 
L 718.211188 236.672873 
L 722.829461 236.959581 
L 727.447735 237.240503 
L 732.066009 237.515639 
L 736.684283 237.78499 
L 741.302557 238.048555 
L 745.920831 238.306334 
L 750.539104 238.558327 
L 755.157378 238.804535 
L 759.775652 239.044957 
L 764.393926 239.279593 
L 769.0122 239.508444 
L 773.630474 239.731509 
L 778.248748 239.948788 
L 782.867021 240.160282 
L 787.485295 240.365989 
L 792.103569 240.565911 
L 796.721843 240.760048 
L 801.340117 240.948398 
L 805.958391 241.130963 
L 810.576665 241.307743 
L 815.194938 241.478736 
L 819.813212 241.643944 
L 824.431486 241.803366 
L 829.04976 241.957003 
L 833.668034 242.104853 
L 838.286308 242.246918 
L 842.904581 242.383198 
L 847.522855 242.513691 
L 852.141129 242.638399 
L 856.759403 242.757321 
L 861.377677 242.870458 
L 865.995951 242.977808 
L 870.614225 243.079373 
L 875.232498 243.175153 
L 879.850772 243.265146 
L 884.469046 243.349354 
L 889.08732 243.427776 
L 893.705594 243.500413 
L 898.323868 243.567264 
L 902.942141 243.628329 
L 907.560415 243.683608 
L 912.178689 243.733102 
L 916.796963 243.77681 
L 921.415237 243.814732 
L 926.033511 243.846868 
L 930.651785 243.873219 
L 935.270058 243.893784 
L 939.888332 243.908564 
L 944.506606 243.917557 
L 949.12488 243.920765 
L 953.743154 243.918188 
L 958.361428 243.909824 
L 962.979701 243.895675 
L 967.597975 243.87574 
L 972.216249 243.85002 
L 976.834523 243.818513 
L 981.452797 243.781221 
L 986.071071 243.738144 
L 990.689345 243.68928 
L 995.307618 243.634631 
L 999.925892 243.574196 
L 1004.544166 243.507976 
L 1009.16244 243.43597 
L 1013.780714 243.358178 
L 1018.398988 243.2746 
L 1023.017262 243.185237 
L 1027.635535 243.090088 
L 1032.253809 242.989153 
L 1036.872083 242.882432 
L 1041.490357 242.769926 
L 1046.108631 242.651634 
L 1050.726905 242.527557 
L 1055.345178 242.397693 
L 1059.963452 242.262044 
L 1064.581726 242.12061 
" clip-path="url(#pd587081edb)" style="fill: none; stroke: #ff7f0e; stroke-width: 2.5; stroke-linecap: square"/>
   </g>
   <g id="patch_3">
    <path d="M 52.52 319 
L 52.52 14.64 
" style="fill: none; stroke: #000000; stroke-width: 0.8; stroke-linejoin: miter; stroke-linecap: square"/>
   </g>
   <g id="patch_4">
    <path d="M 1069.2 319 
L 1069.2 14.64 
" style="fill: none; stroke: #000000; stroke-width: 0.8; stroke-linejoin: miter; stroke-linecap: square"/>
   </g>
   <g id="patch_5">
    <path d="M 52.52 319 
L 1069.2 319 
" style="fill: none; stroke: #000000; stroke-width: 0.8; stroke-linejoin: miter; stroke-linecap: square"/>
   </g>
   <g id="patch_6">
    <path d="M 52.52 14.64 
L 1069.2 14.64 
" style="fill: none; stroke: #000000; stroke-width: 0.8; stroke-linejoin: miter; stroke-linecap: square"/>
   </g>
   <g id="legend_1">
    <g id="patch_7">
     <path d="M 59.52 140.065 
L 239.984063 140.065 
Q 241.984063 140.065 241.984063 138.065 
L 241.984063 21.64 
Q 241.984063 19.64 239.984063 19.64 
L 59.52 19.64 
Q 57.52 19.64 57.52 21.64 
L 57.52 138.065 
Q 57.52 140.065 59.52 140.065 
z
" style="fill: #ffffff; opacity: 0.8; stroke: #cccccc; stroke-linejoin: miter"/>
    </g>
    <g id="line2d_35">
     <path d="M 61.52 27.738437 
L 71.52 27.738437 
L 81.52 27.738437 
" style="fill: none; stroke-dasharray: 1.5,2.475; stroke-dashoffset: 0; stroke: #ff0000; stroke-width: 1.5"/>
    </g>
    <g id="text_22">
     <!-- Chili's -->
     <g transform="translate(89.52 31.238437) scale(0.1 -0.1)">
      <defs>
       <path id="DejaVuSans-43" d="M 4122 4306 
L 4122 3641 
Q 3803 3938 3442 4084 
Q 3081 4231 2675 4231 
Q 1875 4231 1450 3742 
Q 1025 3253 1025 2328 
Q 1025 1406 1450 917 
Q 1875 428 2675 428 
Q 3081 428 3442 575 
Q 3803 722 4122 1019 
L 4122 359 
Q 3791 134 3420 21 
Q 3050 -91 2638 -91 
Q 1578 -91 968 557 
Q 359 1206 359 2328 
Q 359 3453 968 4101 
Q 1578 4750 2638 4750 
Q 3056 4750 3426 4639 
Q 3797 4528 4122 4306 
z
" transform="scale(0.015625)"/>
       <path id="DejaVuSans-27" d="M 1147 4666 
L 1147 2931 
L 616 2931 
L 616 4666 
L 1147 4666 
z
" transform="scale(0.015625)"/>
      </defs>
      <use xlink:href="#DejaVuSans-43"/>
      <use xlink:href="#DejaVuSans-68" transform="translate(69.824219 0)"/>
      <use xlink:href="#DejaVuSans-69" transform="translate(133.203125 0)"/>
      <use xlink:href="#DejaVuSans-6c" transform="translate(160.986328 0)"/>
      <use xlink:href="#DejaVuSans-69" transform="translate(188.769531 0)"/>
      <use xlink:href="#DejaVuSans-27" transform="translate(216.552734 0)"/>
      <use xlink:href="#DejaVuSans-73" transform="translate(244.042969 0)"/>
     </g>
    </g>
    <g id="line2d_36">
     <path d="M 61.52 42.416562 
L 71.52 42.416562 
L 81.52 42.416562 
" style="fill: none; stroke-dasharray: 5.55,2.4; stroke-dashoffset: 0; stroke: #ff0000; stroke-width: 1.5"/>
    </g>
    <g id="text_23">
     <!-- Chili's goes viral -->
     <g transform="translate(89.52 45.916562) scale(0.1 -0.1)">
      <defs>
       <path id="DejaVuSans-67" d="M 2906 1791 
Q 2906 2416 2648 2759 
Q 2391 3103 1925 3103 
Q 1463 3103 1205 2759 
Q 947 2416 947 1791 
Q 947 1169 1205 825 
Q 1463 481 1925 481 
Q 2391 481 2648 825 
Q 2906 1169 2906 1791 
z
M 3481 434 
Q 3481 -459 3084 -895 
Q 2688 -1331 1869 -1331 
Q 1566 -1331 1297 -1286 
Q 1028 -1241 775 -1147 
L 775 -588 
Q 1028 -725 1275 -790 
Q 1522 -856 1778 -856 
Q 2344 -856 2625 -561 
Q 2906 -266 2906 331 
L 2906 616 
Q 2728 306 2450 153 
Q 2172 0 1784 0 
Q 1141 0 747 490 
Q 353 981 353 1791 
Q 353 2603 747 3093 
Q 1141 3584 1784 3584 
Q 2172 3584 2450 3431 
Q 2728 3278 2906 2969 
L 2906 3500 
L 3481 3500 
L 3481 434 
z
" transform="scale(0.015625)"/>
      </defs>
      <use xlink:href="#DejaVuSans-43"/>
      <use xlink:href="#DejaVuSans-68" transform="translate(69.824219 0)"/>
      <use xlink:href="#DejaVuSans-69" transform="translate(133.203125 0)"/>
      <use xlink:href="#DejaVuSans-6c" transform="translate(160.986328 0)"/>
      <use xlink:href="#DejaVuSans-69" transform="translate(188.769531 0)"/>
      <use xlink:href="#DejaVuSans-27" transform="translate(216.552734 0)"/>
      <use xlink:href="#DejaVuSans-73" transform="translate(244.042969 0)"/>
      <use xlink:href="#DejaVuSans-20" transform="translate(296.142578 0)"/>
      <use xlink:href="#DejaVuSans-67" transform="translate(327.929688 0)"/>
      <use xlink:href="#DejaVuSans-6f" transform="translate(391.40625 0)"/>
      <use xlink:href="#DejaVuSans-65" transform="translate(452.587891 0)"/>
      <use xlink:href="#DejaVuSans-73" transform="translate(514.111328 0)"/>
      <use xlink:href="#DejaVuSans-20" transform="translate(566.210938 0)"/>
      <use xlink:href="#DejaVuSans-76" transform="translate(597.998047 0)"/>
      <use xlink:href="#DejaVuSans-69" transform="translate(657.177734 0)"/>
      <use xlink:href="#DejaVuSans-72" transform="translate(684.960938 0)"/>
      <use xlink:href="#DejaVuSans-61" transform="translate(726.074219 0)"/>
      <use xlink:href="#DejaVuSans-6c" transform="translate(787.353516 0)"/>
     </g>
    </g>
    <g id="line2d_37">
     <path d="M 61.52 57.094687 
L 71.52 57.094687 
L 81.52 57.094687 
" style="fill: none; stroke-dasharray: 1.5,2.475; stroke-dashoffset: 0; stroke: #1f77b4; stroke-width: 1.5"/>
    </g>
    <g id="text_24">
     <!-- Applebees -->
     <g transform="translate(89.52 60.594687) scale(0.1 -0.1)">
      <defs>
       <path id="DejaVuSans-41" d="M 2188 4044 
L 1331 1722 
L 3047 1722 
L 2188 4044 
z
M 1831 4666 
L 2547 4666 
L 4325 0 
L 3669 0 
L 3244 1197 
L 1141 1197 
L 716 0 
L 50 0 
L 1831 4666 
z
" transform="scale(0.015625)"/>
       <path id="DejaVuSans-70" d="M 1159 525 
L 1159 -1331 
L 581 -1331 
L 581 3500 
L 1159 3500 
L 1159 2969 
Q 1341 3281 1617 3432 
Q 1894 3584 2278 3584 
Q 2916 3584 3314 3078 
Q 3713 2572 3713 1747 
Q 3713 922 3314 415 
Q 2916 -91 2278 -91 
Q 1894 -91 1617 61 
Q 1341 213 1159 525 
z
M 3116 1747 
Q 3116 2381 2855 2742 
Q 2594 3103 2138 3103 
Q 1681 3103 1420 2742 
Q 1159 2381 1159 1747 
Q 1159 1113 1420 752 
Q 1681 391 2138 391 
Q 2594 391 2855 752 
Q 3116 1113 3116 1747 
z
" transform="scale(0.015625)"/>
       <path id="DejaVuSans-62" d="M 3116 1747 
Q 3116 2381 2855 2742 
Q 2594 3103 2138 3103 
Q 1681 3103 1420 2742 
Q 1159 2381 1159 1747 
Q 1159 1113 1420 752 
Q 1681 391 2138 391 
Q 2594 391 2855 752 
Q 3116 1113 3116 1747 
z
M 1159 2969 
Q 1341 3281 1617 3432 
Q 1894 3584 2278 3584 
Q 2916 3584 3314 3078 
Q 3713 2572 3713 1747 
Q 3713 922 3314 415 
Q 2916 -91 2278 -91 
Q 1894 -91 1617 61 
Q 1341 213 1159 525 
L 1159 0 
L 581 0 
L 581 4863 
L 1159 4863 
L 1159 2969 
z
" transform="scale(0.015625)"/>
      </defs>
      <use xlink:href="#DejaVuSans-41"/>
      <use xlink:href="#DejaVuSans-70" transform="translate(68.408203 0)"/>
      <use xlink:href="#DejaVuSans-70" transform="translate(131.884766 0)"/>
      <use xlink:href="#DejaVuSans-6c" transform="translate(195.361328 0)"/>
      <use xlink:href="#DejaVuSans-65" transform="translate(223.144531 0)"/>
      <use xlink:href="#DejaVuSans-62" transform="translate(284.667969 0)"/>
      <use xlink:href="#DejaVuSans-65" transform="translate(348.144531 0)"/>
      <use xlink:href="#DejaVuSans-65" transform="translate(409.667969 0)"/>
      <use xlink:href="#DejaVuSans-73" transform="translate(471.191406 0)"/>
     </g>
    </g>
    <g id="line2d_38">
     <path d="M 61.52 71.772812 
L 71.52 71.772812 
L 81.52 71.772812 
" style="fill: none; stroke-dasharray: 1.5,2.475; stroke-dashoffset: 0; stroke: #2ca02c; stroke-width: 1.5"/>
    </g>
    <g id="text_25">
     <!-- Friday's -->
     <g transform="translate(89.52 75.272812) scale(0.1 -0.1)">
      <defs>
       <path id="DejaVuSans-46" d="M 628 4666 
L 3309 4666 
L 3309 4134 
L 1259 4134 
L 1259 2759 
L 3109 2759 
L 3109 2228 
L 1259 2228 
L 1259 0 
L 628 0 
L 628 4666 
z
" transform="scale(0.015625)"/>
       <path id="DejaVuSans-64" d="M 2906 2969 
L 2906 4863 
L 3481 4863 
L 3481 0 
L 2906 0 
L 2906 525 
Q 2725 213 2448 61 
Q 2172 -91 1784 -91 
Q 1150 -91 751 415 
Q 353 922 353 1747 
Q 353 2572 751 3078 
Q 1150 3584 1784 3584 
Q 2172 3584 2448 3432 
Q 2725 3281 2906 2969 
z
M 947 1747 
Q 947 1113 1208 752 
Q 1469 391 1925 391 
Q 2381 391 2643 752 
Q 2906 1113 2906 1747 
Q 2906 2381 2643 2742 
Q 2381 3103 1925 3103 
Q 1469 3103 1208 2742 
Q 947 2381 947 1747 
z
" transform="scale(0.015625)"/>
       <path id="DejaVuSans-79" d="M 2059 -325 
Q 1816 -950 1584 -1140 
Q 1353 -1331 966 -1331 
L 506 -1331 
L 506 -850 
L 844 -850 
Q 1081 -850 1212 -737 
Q 1344 -625 1503 -206 
L 1606 56 
L 191 3500 
L 800 3500 
L 1894 763 
L 2988 3500 
L 3597 3500 
L 2059 -325 
z
" transform="scale(0.015625)"/>
      </defs>
      <use xlink:href="#DejaVuSans-46"/>
      <use xlink:href="#DejaVuSans-72" transform="translate(50.269531 0)"/>
      <use xlink:href="#DejaVuSans-69" transform="translate(91.382812 0)"/>
      <use xlink:href="#DejaVuSans-64" transform="translate(119.166016 0)"/>
      <use xlink:href="#DejaVuSans-61" transform="translate(182.642578 0)"/>
      <use xlink:href="#DejaVuSans-79" transform="translate(243.921875 0)"/>
      <use xlink:href="#DejaVuSans-27" transform="translate(303.101562 0)"/>
      <use xlink:href="#DejaVuSans-73" transform="translate(330.591797 0)"/>
     </g>
    </g>
    <g id="line2d_39">
     <path d="M 61.52 86.450938 
L 71.52 86.450938 
L 81.52 86.450938 
" style="fill: none; stroke-dasharray: 1.5,2.475; stroke-dashoffset: 0; stroke: #8c564b; stroke-width: 1.5"/>
    </g>
    <g id="text_26">
     <!-- Outback Steakhouse -->
     <g transform="translate(89.52 89.950938) scale(0.1 -0.1)">
      <defs>
       <path id="DejaVuSans-4f" d="M 2522 4238 
Q 1834 4238 1429 3725 
Q 1025 3213 1025 2328 
Q 1025 1447 1429 934 
Q 1834 422 2522 422 
Q 3209 422 3611 934 
Q 4013 1447 4013 2328 
Q 4013 3213 3611 3725 
Q 3209 4238 2522 4238 
z
M 2522 4750 
Q 3503 4750 4090 4092 
Q 4678 3434 4678 2328 
Q 4678 1225 4090 567 
Q 3503 -91 2522 -91 
Q 1538 -91 948 565 
Q 359 1222 359 2328 
Q 359 3434 948 4092 
Q 1538 4750 2522 4750 
z
" transform="scale(0.015625)"/>
       <path id="DejaVuSans-75" d="M 544 1381 
L 544 3500 
L 1119 3500 
L 1119 1403 
Q 1119 906 1312 657 
Q 1506 409 1894 409 
Q 2359 409 2629 706 
Q 2900 1003 2900 1516 
L 2900 3500 
L 3475 3500 
L 3475 0 
L 2900 0 
L 2900 538 
Q 2691 219 2414 64 
Q 2138 -91 1772 -91 
Q 1169 -91 856 284 
Q 544 659 544 1381 
z
M 1991 3584 
L 1991 3584 
z
" transform="scale(0.015625)"/>
      </defs>
      <use xlink:href="#DejaVuSans-4f"/>
      <use xlink:href="#DejaVuSans-75" transform="translate(78.710938 0)"/>
      <use xlink:href="#DejaVuSans-74" transform="translate(142.089844 0)"/>
      <use xlink:href="#DejaVuSans-62" transform="translate(181.298828 0)"/>
      <use xlink:href="#DejaVuSans-61" transform="translate(244.775391 0)"/>
      <use xlink:href="#DejaVuSans-63" transform="translate(306.054688 0)"/>
      <use xlink:href="#DejaVuSans-6b" transform="translate(361.035156 0)"/>
      <use xlink:href="#DejaVuSans-20" transform="translate(418.945312 0)"/>
      <use xlink:href="#DejaVuSans-53" transform="translate(450.732422 0)"/>
      <use xlink:href="#DejaVuSans-74" transform="translate(514.208984 0)"/>
      <use xlink:href="#DejaVuSans-65" transform="translate(553.417969 0)"/>
      <use xlink:href="#DejaVuSans-61" transform="translate(614.941406 0)"/>
      <use xlink:href="#DejaVuSans-6b" transform="translate(676.220703 0)"/>
      <use xlink:href="#DejaVuSans-68" transform="translate(734.130859 0)"/>
      <use xlink:href="#DejaVuSans-6f" transform="translate(797.509766 0)"/>
      <use xlink:href="#DejaVuSans-75" transform="translate(858.691406 0)"/>
      <use xlink:href="#DejaVuSans-73" transform="translate(922.070312 0)"/>
      <use xlink:href="#DejaVuSans-65" transform="translate(974.169922 0)"/>
     </g>
    </g>
    <g id="line2d_40">
     <path d="M 61.52 101.129062 
L 71.52 101.129062 
L 81.52 101.129062 
" style="fill: none; stroke-dasharray: 1.5,2.475; stroke-dashoffset: 0; stroke: #9467bd; stroke-width: 1.5"/>
    </g>
    <g id="text_27">
     <!-- Red Robin -->
     <g transform="translate(89.52 104.629062) scale(0.1 -0.1)">
      <defs>
       <path id="DejaVuSans-52" d="M 2841 2188 
Q 3044 2119 3236 1894 
Q 3428 1669 3622 1275 
L 4263 0 
L 3584 0 
L 2988 1197 
Q 2756 1666 2539 1819 
Q 2322 1972 1947 1972 
L 1259 1972 
L 1259 0 
L 628 0 
L 628 4666 
L 2053 4666 
Q 2853 4666 3247 4331 
Q 3641 3997 3641 3322 
Q 3641 2881 3436 2590 
Q 3231 2300 2841 2188 
z
M 1259 4147 
L 1259 2491 
L 2053 2491 
Q 2509 2491 2742 2702 
Q 2975 2913 2975 3322 
Q 2975 3731 2742 3939 
Q 2509 4147 2053 4147 
L 1259 4147 
z
" transform="scale(0.015625)"/>
      </defs>
      <use xlink:href="#DejaVuSans-52"/>
      <use xlink:href="#DejaVuSans-65" transform="translate(64.982422 0)"/>
      <use xlink:href="#DejaVuSans-64" transform="translate(126.505859 0)"/>
      <use xlink:href="#DejaVuSans-20" transform="translate(189.982422 0)"/>
      <use xlink:href="#DejaVuSans-52" transform="translate(221.769531 0)"/>
      <use xlink:href="#DejaVuSans-6f" transform="translate(286.751953 0)"/>
      <use xlink:href="#DejaVuSans-62" transform="translate(347.933594 0)"/>
      <use xlink:href="#DejaVuSans-69" transform="translate(411.410156 0)"/>
      <use xlink:href="#DejaVuSans-6e" transform="translate(439.193359 0)"/>
     </g>
    </g>
    <g id="line2d_41">
     <path d="M 61.52 115.807187 
L 71.52 115.807187 
L 81.52 115.807187 
" style="fill: none; stroke: #008000; stroke-width: 2.5; stroke-linecap: square"/>
    </g>
    <g id="text_28">
     <!-- Chili's (Best Fit) -->
     <g transform="translate(89.52 119.307187) scale(0.1 -0.1)">
      <defs>
       <path id="DejaVuSans-28" d="M 1984 4856 
Q 1566 4138 1362 3434 
Q 1159 2731 1159 2009 
Q 1159 1288 1364 580 
Q 1569 -128 1984 -844 
L 1484 -844 
Q 1016 -109 783 600 
Q 550 1309 550 2009 
Q 550 2706 781 3412 
Q 1013 4119 1484 4856 
L 1984 4856 
z
" transform="scale(0.015625)"/>
       <path id="DejaVuSans-42" d="M 1259 2228 
L 1259 519 
L 2272 519 
Q 2781 519 3026 730 
Q 3272 941 3272 1375 
Q 3272 1813 3026 2020 
Q 2781 2228 2272 2228 
L 1259 2228 
z
M 1259 4147 
L 1259 2741 
L 2194 2741 
Q 2656 2741 2882 2914 
Q 3109 3088 3109 3444 
Q 3109 3797 2882 3972 
Q 2656 4147 2194 4147 
L 1259 4147 
z
M 628 4666 
L 2241 4666 
Q 2963 4666 3353 4366 
Q 3744 4066 3744 3513 
Q 3744 3084 3544 2831 
Q 3344 2578 2956 2516 
Q 3422 2416 3680 2098 
Q 3938 1781 3938 1306 
Q 3938 681 3513 340 
Q 3088 0 2303 0 
L 628 0 
L 628 4666 
z
" transform="scale(0.015625)"/>
       <path id="DejaVuSans-29" d="M 513 4856 
L 1013 4856 
Q 1481 4119 1714 3412 
Q 1947 2706 1947 2009 
Q 1947 1309 1714 600 
Q 1481 -109 1013 -844 
L 513 -844 
Q 928 -128 1133 580 
Q 1338 1288 1338 2009 
Q 1338 2731 1133 3434 
Q 928 4138 513 4856 
z
" transform="scale(0.015625)"/>
      </defs>
      <use xlink:href="#DejaVuSans-43"/>
      <use xlink:href="#DejaVuSans-68" transform="translate(69.824219 0)"/>
      <use xlink:href="#DejaVuSans-69" transform="translate(133.203125 0)"/>
      <use xlink:href="#DejaVuSans-6c" transform="translate(160.986328 0)"/>
      <use xlink:href="#DejaVuSans-69" transform="translate(188.769531 0)"/>
      <use xlink:href="#DejaVuSans-27" transform="translate(216.552734 0)"/>
      <use xlink:href="#DejaVuSans-73" transform="translate(244.042969 0)"/>
      <use xlink:href="#DejaVuSans-20" transform="translate(296.142578 0)"/>
      <use xlink:href="#DejaVuSans-28" transform="translate(327.929688 0)"/>
      <use xlink:href="#DejaVuSans-42" transform="translate(366.943359 0)"/>
      <use xlink:href="#DejaVuSans-65" transform="translate(435.546875 0)"/>
      <use xlink:href="#DejaVuSans-73" transform="translate(497.070312 0)"/>
      <use xlink:href="#DejaVuSans-74" transform="translate(549.169922 0)"/>
      <use xlink:href="#DejaVuSans-20" transform="translate(588.378906 0)"/>
      <use xlink:href="#DejaVuSans-46" transform="translate(620.166016 0)"/>
      <use xlink:href="#DejaVuSans-69" transform="translate(670.435547 0)"/>
      <use xlink:href="#DejaVuSans-74" transform="translate(698.21875 0)"/>
      <use xlink:href="#DejaVuSans-29" transform="translate(737.427734 0)"/>
     </g>
    </g>
    <g id="line2d_42">
     <path d="M 61.52 130.485312 
L 71.52 130.485312 
L 81.52 130.485312 
" style="fill: none; stroke: #ff7f0e; stroke-width: 2.5; stroke-linecap: square"/>
    </g>
    <g id="text_29">
     <!-- Competitor Average (Best Fit) -->
     <g transform="translate(89.52 133.985312) scale(0.1 -0.1)">
      <use xlink:href="#DejaVuSans-43"/>
      <use xlink:href="#DejaVuSans-6f" transform="translate(69.824219 0)"/>
      <use xlink:href="#DejaVuSans-6d" transform="translate(131.005859 0)"/>
      <use xlink:href="#DejaVuSans-70" transform="translate(228.417969 0)"/>
      <use xlink:href="#DejaVuSans-65" transform="translate(291.894531 0)"/>
      <use xlink:href="#DejaVuSans-74" transform="translate(353.417969 0)"/>
      <use xlink:href="#DejaVuSans-69" transform="translate(392.626953 0)"/>
      <use xlink:href="#DejaVuSans-74" transform="translate(420.410156 0)"/>
      <use xlink:href="#DejaVuSans-6f" transform="translate(459.619141 0)"/>
      <use xlink:href="#DejaVuSans-72" transform="translate(520.800781 0)"/>
      <use xlink:href="#DejaVuSans-20" transform="translate(561.914062 0)"/>
      <use xlink:href="#DejaVuSans-41" transform="translate(593.701172 0)"/>
      <use xlink:href="#DejaVuSans-76" transform="translate(656.234375 0)"/>
      <use xlink:href="#DejaVuSans-65" transform="translate(715.414062 0)"/>
      <use xlink:href="#DejaVuSans-72" transform="translate(776.9375 0)"/>
      <use xlink:href="#DejaVuSans-61" transform="translate(818.050781 0)"/>
      <use xlink:href="#DejaVuSans-67" transform="translate(879.330078 0)"/>
      <use xlink:href="#DejaVuSans-65" transform="translate(942.806641 0)"/>
      <use xlink:href="#DejaVuSans-20" transform="translate(1004.330078 0)"/>
      <use xlink:href="#DejaVuSans-28" transform="translate(1036.117188 0)"/>
      <use xlink:href="#DejaVuSans-42" transform="translate(1075.130859 0)"/>
      <use xlink:href="#DejaVuSans-65" transform="translate(1143.734375 0)"/>
      <use xlink:href="#DejaVuSans-73" transform="translate(1205.257812 0)"/>
      <use xlink:href="#DejaVuSans-74" transform="translate(1257.357422 0)"/>
      <use xlink:href="#DejaVuSans-20" transform="translate(1296.566406 0)"/>
      <use xlink:href="#DejaVuSans-46" transform="translate(1328.353516 0)"/>
      <use xlink:href="#DejaVuSans-69" transform="translate(1378.623047 0)"/>
      <use xlink:href="#DejaVuSans-74" transform="translate(1406.40625 0)"/>
      <use xlink:href="#DejaVuSans-29" transform="translate(1445.615234 0)"/>
     </g>
    </g>
   </g>
  </g>
 </g>
 <defs>
  <clipPath id="pd587081edb">
   <rect x="52.52" y="14.64" width="1016.68" height="304.36"/>
  </clipPath>
 </defs>
</svg>
